<?xml version="1.0" encoding="UTF-8" standalone="no"?>
<!-- Generator: Adobe Illustrator 16.0.0, SVG Export Plug-In . SVG Version: 6.00 Build 0)  -->

<svg
   version="1.1"
   id="Layer_1"
   x="0px"
   y="0px"
   width="612px"
   height="191.25px"
   viewBox="0 0 612 191.25"
   enable-background="new 0 0 612 191.25"
   xml:space="preserve"
   sodipodi:docname="Steam-WishlistButton.svg"
   inkscape:version="1.2.1 (9c6d41e410, 2022-07-14)"
   xmlns:inkscape="http://www.inkscape.org/namespaces/inkscape"
   xmlns:sodipodi="http://sodipodi.sourceforge.net/DTD/sodipodi-0.dtd"
   xmlns="http://www.w3.org/2000/svg"
   xmlns:svg="http://www.w3.org/2000/svg"><defs
   id="defs756"><rect
   x="231.98556"
   y="26.954513"
   width="346.87365"
   height="57.885921"
   id="rect1055" />
	
	

		
		
	</defs><sodipodi:namedview
   id="namedview754"
   pagecolor="#505050"
   bordercolor="#ffffff"
   borderopacity="1"
   inkscape:showpageshadow="0"
   inkscape:pageopacity="0"
   inkscape:pagecheckerboard="1"
   inkscape:deskcolor="#505050"
   showgrid="false"
   inkscape:zoom="2.2630719"
   inkscape:cx="278.60361"
   inkscape:cy="105.8296"
   inkscape:window-width="1920"
   inkscape:window-height="991"
   inkscape:window-x="-9"
   inkscape:window-y="-9"
   inkscape:window-maximized="1"
   inkscape:current-layer="Layer_1" />
<path
   fill="#010101"
   d="M592.923,191.25H19.173c-10.519,0-19.125-8.606-19.125-19.125v-153C0.048,8.606,8.654,0,19.173,0h573.75  c10.519,0,19.125,8.606,19.125,19.125v153C612.048,182.644,603.441,191.25,592.923,191.25z"
   id="path703" />
<g
   id="g711">
			<path
   fill="#ffffff"
   d="m 144.254,38.244 c -31.603,0 -57.493,24.367 -59.954,55.336 l 32.245,13.331 c 2.732,-1.867 6.034,-2.959 9.585,-2.959 0.318,0 0.635,0.008 0.949,0.025 l 14.34,-20.785 c 0,-0.1 -0.002,-0.194 -0.002,-0.292 0,-12.512 10.178,-22.69 22.689,-22.69 12.509,0 22.687,10.178 22.687,22.69 0,12.51 -10.178,22.689 -22.687,22.689 -0.174,0 -0.344,-0.004 -0.515,-0.008 l -20.452,14.592 c 0.011,0.268 0.019,0.537 0.019,0.807 0,9.391 -7.639,17.031 -17.029,17.031 -8.243,0 -15.135,-5.885 -16.697,-13.676 l -23.061,-9.533 c 7.14,25.252 30.34,43.766 57.882,43.766 33.227,0 60.161,-26.936 60.161,-60.162 0,-33.226 -26.934,-60.162 -60.16,-60.162 z"
   id="path705" />
			<path
   fill="#ffffff"
   d="m 122.002,129.529 -7.39,-3.053 c 1.31,2.727 3.575,5.01 6.583,6.264 6.502,2.709 14,-0.377 16.71,-6.883 1.312,-3.15 1.321,-6.625 0.02,-9.779 -1.299,-3.156 -3.751,-5.617 -6.901,-6.932 -3.126,-1.303 -6.477,-1.254 -9.42,-0.143 l 7.636,3.154 c 4.796,2 7.064,7.508 5.065,12.305 -1.997,4.798 -7.507,7.067 -12.303,5.067 z"
   id="path707" />
			<path
   fill="#ffffff"
   d="m 179.222,82.899 c 0,-8.337 -6.781,-15.12 -15.117,-15.12 -8.336,0 -15.12,6.783 -15.12,15.12 0,8.335 6.784,15.117 15.12,15.117 8.336,0 15.117,-6.782 15.117,-15.117 z m -26.449,-0.026 c 0,-6.273 5.086,-11.355 11.357,-11.355 6.273,0 11.357,5.082 11.357,11.355 0,6.273 -5.084,11.355 -11.357,11.355 -6.271,0 -11.357,-5.082 -11.357,-11.355 z"
   id="path709" />
		</g><g
   id="g725"
   transform="translate(0,13.256318)">
			<path
   fill="#ffffff"
   d="m 268.666,79.405 -4.03,7.087 c -3.105,-2.17 -7.313,-3.475 -10.986,-3.475 -4.199,0 -6.797,1.737 -6.797,4.85 0,3.783 4.615,4.664 11.475,7.125 7.372,2.608 11.609,5.672 11.609,12.424 0,9.236 -7.266,14.428 -17.707,14.428 -5.09,0 -11.229,-1.314 -15.948,-4.184 l 2.94,-7.857 c 3.835,2.025 8.42,3.225 12.509,3.225 5.511,0 8.131,-2.033 8.131,-5.039 0,-3.439 -3.996,-4.473 -10.442,-6.607 -7.348,-2.453 -12.439,-5.671 -12.439,-13.146 0,-8.428 6.749,-13.268 16.461,-13.268 6.766,0 12.205,2.144 15.224,4.437 z"
   id="path713" />
			<path
   fill="#ffffff"
   d="m 300.175,83.885 v 37.182 h -9.49 V 83.885 h -13.776 v -8.141 h 37.003 v 8.141 z"
   id="path715" />
			<path
   fill="#ffffff"
   d="m 333.922,83.859 v 10.213 h 18.164 v 8.14 h -18.164 v 10.639 h 21.072 v 8.215 H 324.431 V 75.744 h 30.563 v 8.115 z"
   id="path717" />
			<path
   fill="#ffffff"
   d="m 376.182,112.266 -3.002,8.801 h -9.949 l 16.994,-45.322 h 9.555 l 17.473,45.322 h -10.287 l -3.066,-8.801 z m 8.763,-25.709 -6.186,18.146 h 12.506 z"
   id="path719" />
			<path
   fill="#ffffff"
   d="m 455.961,93.261 -12.402,26.485 h -5.355 L 426.002,93.5 v 27.567 h -9.09 V 75.744 h 9.066 l 15.234,32.715 14.689,-32.715 h 9.148 v 45.322 h -9.09 V 93.261 Z"
   id="path721" />
			<path
   fill="#ffffff"
   d="m 483.4,81.461 c 0,3.894 -2.918,6.322 -6.27,6.322 -3.361,0 -6.287,-2.428 -6.287,-6.322 0,-3.895 2.926,-6.306 6.287,-6.306 3.352,0 6.27,2.411 6.27,6.306 z m -11.502,0 c 0,3.257 2.348,5.304 5.232,5.304 2.875,0 5.211,-2.047 5.211,-5.304 0,-3.269 -2.336,-5.284 -5.211,-5.284 -2.878,0 -5.232,2.04 -5.232,5.284 z m 5.323,-3.221 c 1.623,0 2.17,0.859 2.17,1.788 0,0.851 -0.504,1.422 -1.121,1.713 l 1.457,2.731 h -1.193 l -1.229,-2.42 h -1.266 v 2.42 h -0.994 V 78.24 Z m -1.172,2.898 h 1.111 c 0.713,0 1.137,-0.45 1.137,-1.016 0,-0.571 -0.303,-0.937 -1.143,-0.937 h -1.105 z"
   id="path723" />
		</g>
<text
   xml:space="preserve"
   id="text1053"
   style="font-size:33.3333px;line-height:1.25;font-family:Blink;-inkscape-font-specification:Blink;letter-spacing:1px;white-space:pre;shape-inside:url(#rect1055);fill:#ffffff;fill-opacity:1"
   transform="translate(7.5119134,14.58195)"><tspan
     x="231.98633"
     y="57.804031"
     id="tspan484"><tspan
       style="font-family:Inter;-inkscape-font-specification:Inter"
       id="tspan482">WISHLIST ON</tspan></tspan></text></svg>
