<?xml version="1.0" encoding="UTF-8" standalone="no"?>
<!-- Generator: Adobe Illustrator 16.0.0, SVG Export Plug-In . SVG Version: 6.00 Build 0)  -->

<svg
   version="1.1"
   id="Layer_1"
   x="0px"
   y="0px"
   width="612px"
   height="191.25px"
   viewBox="0 0 612 191.25"
   enable-background="new 0 0 612 191.25"
   xml:space="preserve"
   sodipodi:docname="DownloadButton.svg"
   inkscape:version="1.4 (86a8ad7, 2024-10-11)"
   xmlns:inkscape="http://www.inkscape.org/namespaces/inkscape"
   xmlns:sodipodi="http://sodipodi.sourceforge.net/DTD/sodipodi-0.dtd"
   xmlns="http://www.w3.org/2000/svg"
   xmlns:svg="http://www.w3.org/2000/svg"><defs
   id="defs756"><rect
   x="231.98556"
   y="26.954513"
   width="346.87365"
   height="57.885921"
   id="rect1055" />
	
	

		
		
	<clipPath
   clipPathUnits="userSpaceOnUse"
   id="clipPath3"><path
     d="M 0,576 H 576 V 0 H 0 Z"
     transform="translate(-177.2812,-151.01271)"
     id="path3" /></clipPath><clipPath
   clipPathUnits="userSpaceOnUse"
   id="clipPath5"><path
     d="M 0,576 H 576 V 0 H 0 Z"
     transform="translate(-333.26461,-187.75101)"
     id="path5" /></clipPath><clipPath
   clipPathUnits="userSpaceOnUse"
   id="clipPath7"><path
     d="M 0,576 H 576 V 0 H 0 Z"
     transform="translate(-209.44041,-176.04981)"
     id="path7" /></clipPath><clipPath
   clipPathUnits="userSpaceOnUse"
   id="clipPath9"><path
     d="M 0,576 H 576 V 0 H 0 Z"
     transform="translate(-208.2217,-117.38571)"
     id="path9" /></clipPath><clipPath
   clipPathUnits="userSpaceOnUse"
   id="clipPath11"><path
     d="M 0,576 H 576 V 0 H 0 Z"
     transform="translate(-398.03221,-159.83691)"
     id="path11" /></clipPath><clipPath
   clipPathUnits="userSpaceOnUse"
   id="clipPath13"><path
     d="M 0,576 H 576 V 0 H 0 Z"
     transform="translate(-437.58401,-111.5947)"
     id="path13" /></clipPath><clipPath
   clipPathUnits="userSpaceOnUse"
   id="clipPath15"><path
     d="M 0,576 H 576 V 0 H 0 Z"
     transform="translate(-257.20171,-159.97851)"
     id="path15" /></clipPath></defs><sodipodi:namedview
   id="namedview754"
   pagecolor="#505050"
   bordercolor="#ffffff"
   borderopacity="1"
   inkscape:showpageshadow="0"
   inkscape:pageopacity="0"
   inkscape:pagecheckerboard="1"
   inkscape:deskcolor="#505050"
   showgrid="false"
   inkscape:zoom="0.80011674"
   inkscape:cx="351.19875"
   inkscape:cy="293.08223"
   inkscape:window-width="1832"
   inkscape:window-height="1051"
   inkscape:window-x="2639"
   inkscape:window-y="-9"
   inkscape:window-maximized="1"
   inkscape:current-layer="Layer_1" />
<path
   fill="#010101"
   d="M592.923,191.25H19.173c-10.519,0-19.125-8.606-19.125-19.125v-153C0.048,8.606,8.654,0,19.173,0h573.75  c10.519,0,19.125,8.606,19.125,19.125v153C612.048,182.644,603.441,191.25,592.923,191.25z"
   id="path703" />

<text
   xml:space="preserve"
   id="text1053"
   style="font-size:33.3333px;line-height:1.25;font-family:Blink;-inkscape-font-specification:Blink;letter-spacing:1px;white-space:pre;shape-inside:url(#rect1055);display:inline;fill:#ffffff;fill-opacity:1"
   transform="translate(7.5119134,14.58195)"><tspan
     x="231.98633"
     y="57.284222"
     id="tspan2"><tspan
       style="font-family:Inter;-inkscape-font-specification:Inter"
       id="tspan1">DOWNLOAD ON</tspan></tspan></text><text
   xml:space="preserve"
   style="font-size:40px;line-height:1.25;font-family:Blink;-inkscape-font-specification:Blink"
   x="267.33575"
   y="-20.76823"
   id="text379"><tspan
     sodipodi:role="line"
     id="tspan377" /></text><path
   fill-rule="evenodd"
   clip-rule="evenodd"
   d="m 120.15581,45.25704 c -27.015005,0 -48.854005,22 -48.854005,49.217 0,21.756 13.993,40.172 33.405005,46.69 2.427,0.49 3.316,-1.059 3.316,-2.362 0,-1.141 -0.08,-5.052 -0.08,-9.127 -13.590005,2.934 -16.420005,-5.867 -16.420005,-5.867 -2.184,-5.704 -5.42,-7.17 -5.42,-7.17 -4.448,-3.015 0.324,-3.015 0.324,-3.015 4.934,0.326 7.523,5.052 7.523,5.052 4.367,7.496 11.404005,5.378 14.235005,4.074 0.404,-3.178 1.699,-5.378 3.074,-6.6 -10.839,-1.141 -22.243005,-5.378 -22.243005,-24.283 0,-5.378 1.94,-9.778 5.014,-13.2 -0.485,-1.222 -2.184,-6.275 0.486,-13.038 0,0 4.125,-1.304 13.426005,5.052 a 46.97,46.97 0 0 1 12.214,-1.63 c 4.125,0 8.33,0.571 12.213,1.63 9.302,-6.356 13.427,-5.052 13.427,-5.052 2.67,6.763 0.97,11.816 0.485,13.038 3.155,3.422 5.015,7.822 5.015,13.2 0,18.905 -11.404,23.06 -22.324,24.283 1.78,1.548 3.316,4.481 3.316,9.126 0,6.6 -0.08,11.897 -0.08,13.526 0,1.304 0.89,2.853 3.316,2.364 19.412,-6.52 33.405,-24.935 33.405,-46.691 0.08,-27.217 -21.839,-49.217 -48.773,-49.217 z"
   fill="#ffffff"
   id="path1" /><g
   id="g29"
   transform="matrix(0.45136898,0,0,0.45136898,175.38808,-140.99787)"><path
     id="path2"
     d="m 0,0 h -30.267 c -0.781,0 -1.415,-0.634 -1.415,-1.415 v -14.798 c 0,-0.781 0.634,-1.417 1.415,-1.417 h 11.807 v -18.385 c 0,0 -2.651,-0.904 -9.981,-0.904 -8.647,0 -20.727,3.16 -20.727,29.724 0,26.569 12.579,30.064 24.388,30.064 10.222,0 14.626,-1.799 17.428,-2.667 0.881,-0.269 1.695,0.608 1.695,1.389 l 3.377,14.298 c 0,0.366 -0.124,0.805 -0.54,1.104 -1.138,0.813 -8.081,4.697 -25.621,4.697 -20.205,0 -40.932,-8.596 -40.932,-49.921 0,-41.327 23.73,-47.485 43.727,-47.485 16.557,0 26.601,7.075 26.601,7.075 0.414,0.229 0.459,0.808 0.459,1.073 V -1.415 C 1.414,-0.634 0.781,0 0,0"
     style="fill:#ffffff;fill-opacity:1;fill-rule:nonzero;stroke:none"
     transform="matrix(1.3333333,0,0,-1.3333333,236.37493,566.64973)"
     clip-path="url(#clipPath3)" /><path
     id="path4"
     d="m 0,0 c 0,0.788 -0.624,1.423 -1.405,1.423 h -17.042 c -0.779,0 -1.411,-0.635 -1.411,-1.423 0,-0.003 0.004,-32.934 0.004,-32.934 H -46.418 V 0 c 0,0.788 -0.627,1.423 -1.407,1.423 h -17.041 c -0.775,0 -1.407,-0.635 -1.407,-1.423 v -89.177 c 0,-0.787 0.632,-1.427 1.407,-1.427 h 17.041 c 0.78,0 1.407,0.64 1.407,1.427 v 38.145 h 26.564 c 0,0 -0.046,-38.142 -0.046,-38.145 0,-0.787 0.631,-1.427 1.412,-1.427 h 17.082 c 0.78,0 1.404,0.64 1.406,1.427 z"
     style="fill:#ffffff;fill-opacity:1;fill-rule:nonzero;stroke:none"
     transform="matrix(1.3333333,0,0,-1.3333333,444.3528,517.66533)"
     clip-path="url(#clipPath5)" /><path
     id="path6"
     d="m 0,0 c 0,6.136 -4.92,11.095 -10.99,11.095 -6.064,0 -10.987,-4.959 -10.987,-11.095 0,-6.131 4.923,-11.104 10.987,-11.104 C -4.92,-11.104 0,-6.131 0,0"
     style="fill:#ffffff;fill-opacity:1;fill-rule:nonzero;stroke:none"
     transform="matrix(1.3333333,0,0,-1.3333333,279.25387,533.26693)"
     clip-path="url(#clipPath7)" /><path
     id="path8"
     d="m 0,0 v 41.164 c 0,0.782 -0.63,1.421 -1.41,1.421 h -16.988 c -0.78,0 -1.477,-0.804 -1.477,-1.585 v -58.977 c 0,-1.733 1.08,-2.249 2.478,-2.249 h 15.306 c 1.679,0 2.091,0.826 2.091,2.277 z"
     style="fill:#ffffff;fill-opacity:1;fill-rule:nonzero;stroke:none"
     transform="matrix(1.3333333,0,0,-1.3333333,277.62893,611.48573)"
     clip-path="url(#clipPath9)" /><path
     id="path10"
     d="m 0,0 h -16.911 c -0.776,0 -1.407,-0.64 -1.407,-1.427 v -43.725 c 0,0 -4.297,-3.144 -10.395,-3.144 -6.098,0 -7.716,2.767 -7.716,8.737 v 38.132 c 0,0.787 -0.63,1.427 -1.406,1.427 h -17.164 c -0.774,0 -1.409,-0.64 -1.409,-1.427 v -41.018 c 0,-17.736 9.884,-22.075 23.481,-22.075 11.156,0 20.15,6.164 20.15,6.164 0,0 0.427,-3.248 0.622,-3.633 0.193,-0.384 0.698,-0.773 1.244,-0.773 l 10.919,0.049 c 0.774,0 1.409,0.64 1.409,1.424 L 1.411,-1.427 C 1.411,-0.64 0.779,0 0,0"
     style="fill:#ffffff;fill-opacity:1;fill-rule:nonzero;stroke:none"
     transform="matrix(1.3333333,0,0,-1.3333333,530.7096,554.88413)"
     clip-path="url(#clipPath11)" /><path
     id="path12"
     d="m 0,0 c -5.866,0.179 -9.845,2.841 -9.845,2.841 v 28.24 c 0,0 3.925,2.406 8.741,2.836 6.09,0.546 11.958,-1.294 11.958,-15.821 C 10.854,2.776 8.206,-0.247 0,0 m 6.67,50.245 c -9.605,0 -16.138,-4.285 -16.138,-4.285 v 30.196 c 0,0.788 -0.63,1.423 -1.406,1.423 h -17.091 c -0.777,0 -1.408,-0.635 -1.408,-1.423 v -89.177 c 0,-0.787 0.631,-1.426 1.41,-1.426 h 11.858 c 0.534,0 0.938,0.275 1.237,0.757 0.295,0.479 0.72,4.112 0.72,4.112 0,0 6.988,-6.623 20.217,-6.623 15.532,0 24.439,7.878 24.439,35.366 0,27.488 -14.226,31.08 -23.838,31.08"
     style="fill:#ffffff;fill-opacity:1;fill-rule:nonzero;stroke:none"
     transform="matrix(1.3333333,0,0,-1.3333333,583.44533,619.20707)"
     clip-path="url(#clipPath13)" /><path
     id="path14"
     d="m 0,0 h -12.784 c 0,0 -0.019,16.885 -0.019,16.889 0,0.639 -0.329,0.959 -1.069,0.959 h -17.42 c -0.677,0 -1.041,-0.298 -1.041,-0.95 V -0.554 c 0,0 -8.73,-2.107 -9.32,-2.277 -0.588,-0.171 -1.021,-0.713 -1.021,-1.359 v -10.967 c 0,-0.789 0.63,-1.426 1.409,-1.426 h 8.932 v -26.384 c 0,-19.596 13.746,-21.521 23.021,-21.521 4.239,0 9.309,1.361 10.146,1.67 0.506,0.186 0.801,0.711 0.801,1.279 l 0.014,12.064 c 0,0.787 -0.665,1.424 -1.413,1.424 -0.745,0 -2.651,-0.303 -4.613,-0.303 -6.279,0 -8.407,2.919 -8.407,6.699 0,3.776 -10e-4,25.072 -10e-4,25.072 H 0 c 0.779,0 1.411,0.637 1.411,1.426 V -1.421 C 1.411,-0.634 0.779,0 0,0"
     style="fill:#ffffff;fill-opacity:1;fill-rule:nonzero;stroke:none"
     transform="matrix(1.3333333,0,0,-1.3333333,342.9356,554.69533)"
     clip-path="url(#clipPath15)" /></g></svg>
