<?xml version="1.0" encoding="UTF-8" standalone="no"?>
<!-- Created with Inkscape (http://www.inkscape.org/) -->

<svg
   width="1024"
   height="1024"
   viewBox="0 0 270.93333 270.93333"
   version="1.1"
   id="svg5"
   xml:space="preserve"
   inkscape:version="1.2.1 (9c6d41e410, 2022-07-14)"
   sodipodi:docname="platforms-around-logo.svg"
   xmlns:inkscape="http://www.inkscape.org/namespaces/inkscape"
   xmlns:sodipodi="http://sodipodi.sourceforge.net/DTD/sodipodi-0.dtd"
   xmlns:xlink="http://www.w3.org/1999/xlink"
   xmlns="http://www.w3.org/2000/svg"
   xmlns:svg="http://www.w3.org/2000/svg"><sodipodi:namedview
     id="namedview7"
     pagecolor="#505050"
     bordercolor="#ffffff"
     borderopacity="1"
     inkscape:showpageshadow="0"
     inkscape:pageopacity="0"
     inkscape:pagecheckerboard="1"
     inkscape:deskcolor="#505050"
     inkscape:document-units="mm"
     showgrid="false"
     inkscape:zoom="0.65478515"
     inkscape:cx="297.80761"
     inkscape:cy="466.56525"
     inkscape:window-width="1920"
     inkscape:window-height="991"
     inkscape:window-x="-9"
     inkscape:window-y="-9"
     inkscape:window-maximized="1"
     inkscape:current-layer="layer1" /><defs
     id="defs2"><linearGradient
       id="linearGradient9498"><stop
         style="stop-color:#fcaf3e;stop-opacity:1;"
         offset="0"
         id="stop9500" /><stop
         id="stop6206"
         offset="0.5"
         style="stop-color:#f89426;stop-opacity:1;" /><stop
         style="stop-color:#ce5c00;stop-opacity:1;"
         offset="1"
         id="stop9502" /></linearGradient><linearGradient
       id="linearGradient5060"><stop
         style="stop-color:#eeeeec;stop-opacity:1;"
         offset="0"
         id="stop5062" /><stop
         style="stop-color:#d3d7cf;stop-opacity:1;"
         offset="1"
         id="stop5064" /></linearGradient><linearGradient
       id="linearGradient2182"><stop
         style="stop-color:#555753;stop-opacity:1;"
         offset="0"
         id="stop2184" /><stop
         style="stop-color:#000000;stop-opacity:1;"
         offset="1"
         id="stop2186" /></linearGradient><linearGradient
       id="linearGradient2300"><stop
         style="stop-color:#000000;stop-opacity:0.32673267;"
         offset="0.0000000"
         id="stop2302" /><stop
         style="stop-color:#000000;stop-opacity:0;"
         offset="1"
         id="stop2304" /></linearGradient><linearGradient
       id="linearGradient2219"><stop
         id="stop2221"
         offset="0"
         style="stop-color:#eeeeec;stop-opacity:1;" /><stop
         id="stop2223"
         offset="1"
         style="stop-color:#2e3436;stop-opacity:1;" /></linearGradient><linearGradient
       id="linearGradient28799-4"><stop
         id="stop28801-13"
         offset="0"
         style="stop-color:#fefefc;stop-opacity:1;" /><stop
         style="stop-color:#fefefc;stop-opacity:1"
         offset="0.75733864"
         id="stop28807-8" /><stop
         id="stop28803-8"
         offset="1"
         style="stop-color:#d4d4d4;stop-opacity:1" /></linearGradient><radialGradient
       r="14.572236"
       fy="137.66095"
       fx="223.19559"
       cy="137.66095"
       cx="223.19559"
       gradientTransform="matrix(1.0857794,-0.03431182,0.03943781,1.2479887,-154.54194,-26.542647)"
       gradientUnits="userSpaceOnUse"
       id="radialGradient29032"
       xlink:href="#linearGradient28799-4"
       inkscape:collect="always" /><radialGradient
       r="14.572236"
       fy="137.66095"
       fx="223.19559"
       cy="137.66095"
       cx="223.19559"
       gradientTransform="matrix(0.81524244,-0.03431182,0.02961133,1.2479887,-129.43743,-26.542647)"
       gradientUnits="userSpaceOnUse"
       id="radialGradient29648"
       xlink:href="#linearGradient28799-4"
       inkscape:collect="always" /><linearGradient
       inkscape:collect="always"
       id="linearGradient14392-7"><stop
         style="stop-color:#3e2a06;stop-opacity:1"
         offset="0"
         id="stop14394-8" /><stop
         style="stop-color:#ad780a;stop-opacity:1"
         offset="1"
         id="stop14396-6" /></linearGradient><linearGradient
       inkscape:collect="always"
       xlink:href="#linearGradient14392-7"
       id="linearGradient14477"
       gradientUnits="userSpaceOnUse"
       gradientTransform="matrix(0.87491199,0,0,0.81148755,60.367186,62.586953)"
       x1="442.03912"
       y1="371.54401"
       x2="490.12241"
       y2="293.58548" /><linearGradient
       inkscape:collect="always"
       xlink:href="#linearGradient14392-7"
       id="linearGradient14485"
       gradientUnits="userSpaceOnUse"
       gradientTransform="translate(4e-6,9.6185359e-6)"
       x1="442.03912"
       y1="371.54401"
       x2="490.12241"
       y2="293.58548" /><clipPath
       clipPathUnits="userSpaceOnUse"
       id="clipPath14186-9"><path
         inkscape:original-d="m 137.57703,281.0191 c 6.32494,-1.3585 11.99755,4.87308 16.86679,9.13228 6.42572,5.62067 -8.54781,26.01622 13.24488,19.8293 5.86081,-1.66388 6.89528,11.31183 10.16415,16.45304 4.09971,6.44793 11.58575,13.6827 13.65231,21.03883 1.58383,5.63779 1.34339,10.90606 -1.62666,15.95302 -3.57124,6.06857 -11.7907,10.42929 -18.78877,11.20919 -5.73056,0.63864 -11.87822,-3.8351 -17.38362,-5.54906 -12.31617,-3.83432 -23.77946,-5.82074 -36.09666,-9.65174 -2.50091,-0.77785 -8.28361,-2.638 -10.96988,-3.42629 -4.51043,-1.3236 -6.46556,-0.99271 -8.72046,-4.76819 -2.68251,-4.49147 0.68051,-9.72669 3.16379,-14.79408 4.06995,-8.30524 1.91195,-17.82603 0.46203,-25.51057 -0.92235,-4.8884 -0.66071,-7.92707 2.7425,-10.79139 4.99476,-4.20385 14.53027,-1.53186 20.35272,-4.08305 5.82246,-2.55119 6.66365,-13.6939 12.93688,-15.04129 z"
         sodipodi:nodetypes="ssssssssssssssss"
         inkscape:connector-curvature="0"
         id="path14188-1"
         d="m 137.57703,281.0191 c 1.59929,-0.66295 3.3982,-0.78361 5.10074,-0.46963 1.70253,0.31398 3.31141,1.04948 4.74342,2.02239 2.86402,1.94583 4.98821,4.77774 7.02263,7.57952 4.67189,6.43406 9.16868,13.00227 13.24488,19.8293 3.30635,5.53766 6.34352,11.25685 10.16415,16.45304 2.49398,3.3919 5.3066,6.53947 7.813,9.92221 2.50639,3.38273 4.72794,7.05586 5.83931,11.11662 1.44411,5.27653 0.88463,11.09291 -1.62666,15.95302 -1.76663,3.41896 -4.47646,6.35228 -7.77242,8.33898 -3.29595,1.9867 -7.17064,3.01444 -11.01635,2.87021 -6.11413,-0.2293 -11.69944,-3.28515 -17.38362,-5.54906 -11.58097,-4.6125 -24.15978,-6.0594 -36.09666,-9.65174 -3.66859,-1.10404 -7.27582,-2.4107 -10.96988,-3.42629 -1.64125,-0.45122 -3.30866,-0.8482 -4.85875,-1.55144 -1.55008,-0.70325 -2.999548,-1.7491 -3.86171,-3.21675 -0.666391,-1.13439 -0.948386,-2.47002 -0.930187,-3.78554 0.0182,-1.31552 0.325889,-2.61453 0.773815,-3.85158 0.895851,-2.47409 2.343262,-4.71374 3.320162,-7.15696 1.59511,-3.98935 1.88169,-8.38839 1.66657,-12.67942 -0.21511,-4.29103 -0.91078,-8.54478 -1.20454,-12.83115 -0.13118,-1.91406 -0.18066,-3.85256 0.18479,-5.73598 0.36545,-1.88343 1.17577,-3.72459 2.55771,-5.05541 1.27406,-1.22693 2.96492,-1.95531 4.69643,-2.31651 1.73151,-0.3612 3.51533,-0.37747 5.28367,-0.33762 1.76833,0.0399 3.54067,0.13425 5.30351,-0.0106 1.76284,-0.14488 3.53347,-0.54055 5.06911,-1.41828 1.45996,-0.83447 2.65433,-2.0745 3.64374,-3.43424 0.9894,-1.35974 1.78909,-2.84573 2.60891,-4.31396 0.81983,-1.46823 1.66834,-2.93151 2.74157,-4.22611 1.07324,-1.2946 2.38923,-2.42304 3.94266,-3.06698"
         style="fill:#402c07;fill-opacity:1;stroke:none" /></clipPath><inkscape:path-effect
       is_visible="true"
       id="path-effect4669-1"
       effect="spiro" /><inkscape:path-effect
       is_visible="true"
       id="path-effect4669-4-3"
       effect="spiro" /><inkscape:path-effect
       effect="spiro"
       id="path-effect14972-2-2"
       is_visible="true" /><inkscape:path-effect
       effect="spiro"
       id="path-effect15017-9"
       is_visible="true" /><clipPath
       clipPathUnits="userSpaceOnUse"
       id="clipPath15031-3"><path
         style="fill:none;stroke:#729fcf;stroke-width:0.125;stroke-linecap:butt;stroke-linejoin:miter;stroke-miterlimit:4;stroke-dasharray:none;stroke-opacity:1"
         d="m 248.06066,184.61218 c -2.60091,3.4397 -5.23338,6.85555 -7.89695,10.24696 -2.83301,3.60715 -5.70116,7.1866 -8.58729,10.75139 -3.54135,4.37407 -7.15155,8.79286 -9.44912,13.93045 -1.97407,4.41422 -2.91014,9.20748 -4.26498,13.84932 -1.53862,5.27153 -3.62627,10.37023 -5.97071,15.33612 -2.1648,4.58539 -4.54978,9.06293 -6.93891,13.53553 -1.73823,3.25407 -3.50515,6.58104 -4.10782,10.22071 -0.47627,2.87632 -0.19849,5.84423 0.53376,8.66626 0.73224,2.82202 1.90964,5.5106 3.23775,8.10601 5.66724,11.07504 14.17003,20.62168 24.24176,27.92472 4.57063,3.31418 9.46669,6.18109 14.60245,8.52595 2.78247,1.27041 5.71355,2.40436 8.77186,2.45744 1.52915,0.0265 3.0741,-0.22544 4.47434,-0.84055 1.40024,-0.6151 2.65068,-1.60373 3.48254,-2.88709 1.02278,-1.5779 1.36992,-3.53829 1.16461,-5.40743 -0.2053,-1.86914 -0.93484,-3.65294 -1.91324,-5.25873 -2.38997,-3.92251 -6.1652,-6.76055 -9.79642,-9.57343 -7.84055,-6.07358 -15.42466,-12.48038 -22.68212,-19.23996 -2.04911,-1.90854 -4.0984,-3.87759 -5.53019,-6.28412 -1.3943,-2.34352 -2.14763,-5.01375 -2.65783,-7.69253 -1.39963,-7.34872 -1.0404,-15.0827 1.45958,-22.13343 0.97802,-2.75834 2.27066,-5.39225 3.51815,-8.03965 2.1622,-4.58855 4.21133,-9.26299 7.04933,-13.46723 3.53268,-5.23334 8.24484,-9.67275 11.15147,-15.27803 2.45457,-4.7335 3.49353,-10.05742 4.36185,-15.31831 0.66531,-4.03089 1.24751,-8.07549 1.74613,-12.13037"
         id="path15033-2"
         inkscape:connector-curvature="0"
         inkscape:original-d="m 248.06066,184.61218 c 0,0 -5.10626,6.34527 -7.89695,10.24696 -2.7907,3.9017 -5.73652,6.64881 -8.58729,10.75139 -2.85076,4.10259 -7.36482,9.43164 -9.44912,13.93045 -2.08429,4.49881 -2.32047,9.0356 -4.26498,13.84932 -1.94451,4.81371 -3.70129,10.64183 -5.97071,15.33612 -2.26943,4.69429 -5.37093,9.68473 -6.93891,13.53553 -1.56799,3.8508 -3.81119,5.72384 -4.10782,10.22071 -0.29663,4.49686 -0.57747,8.31749 3.77151,16.77227 4.34898,8.45478 17.23626,22.00721 24.24176,27.92472 7.00549,5.9175 9.39133,7.22492 14.60245,8.52595 5.21112,1.30104 13.85627,2.9981 16.72874,-1.2702 2.87246,-4.26829 2.27191,-5.96483 -0.74863,-10.66616 -3.02055,-4.70132 -4.82469,-5.30209 -9.79642,-9.57343 -4.97172,-4.27133 -18.63696,-14.87266 -22.68212,-19.23996 -4.04516,-4.36729 -7.10731,-3.41164 -5.53019,-6.28412 1.57712,-2.87249 -2.20738,-4.00856 -2.65783,-7.69253 -0.76361,-6.24511 0.9436,-18.71046 1.45958,-22.13343 0.51598,-3.42296 1.22371,-2.92446 3.51815,-8.03965 2.29444,-5.11519 4.12424,-8.62435 7.04933,-13.46723 2.92509,-4.84289 8.62493,-10.12787 11.15147,-15.27803 2.52654,-5.15017 3.50393,-10.72068 4.36185,-15.31831 0.85792,-4.59763 1.74613,-12.13037 1.74613,-12.13037 z"
         sodipodi:nodetypes="czzzzzzzzzzzzzzzszzzzzc" /></clipPath><inkscape:path-effect
       is_visible="true"
       id="path-effect29716-6-1"
       effect="spiro" /><clipPath
       clipPathUnits="userSpaceOnUse"
       id="clipPath14822-9"><path
         sodipodi:nodetypes="aaaasssaccaa"
         inkscape:connector-curvature="0"
         d="m 386.1875,285.32775 c -0.40516,-1.10369 -1.11845,-2.08156 -1.9907,-2.86987 -0.87226,-0.78832 -1.90049,-1.39229 -2.98278,-1.85155 -2.16459,-0.91852 -4.52053,-1.26149 -6.83152,-1.69556 -2.17919,-0.40931 -4.34179,-0.90631 -6.52782,-1.27734 -2.27136,-0.38551 -4.6179,-0.63213 -6.8653,-0.1253 -1.96583,0.44333 -3.7845,1.45879 -5.27172,2.81864 -1.48723,1.35984 -2.64911,3.0564 -3.48499,4.89007 -1.47218,3.22952 -1.93451,6.86503 -1.65394,10.40316 0.20882,2.63325 0.87532,5.34594 2.60877,7.33912 1.40065,1.61052 3.38733,2.61526 5.43398,3.22092 3.52502,1.04316 7.36663,0.98822 10.86038,-0.1553 5.76689,-1.93113 10.87568,-5.77387 14.33034,-10.77903 1.13861,-1.64963 2.11217,-3.44809 2.5532,-5.4034 0.33597,-1.48955 0.34831,-3.08112 -0.1779,-4.51456"
         id="path14824-1"
         inkscape:original-d="m 386.1875,285.32775 c -2.36571,-3.81321 -7.59294,-4.9003 -11.805,-6.41698 -2.08672,-0.75138 -4.32322,-1.04333 -6.52782,-1.27734 -2.27612,-0.2416 -4.71593,-0.91505 -6.8653,-0.1253 -3.64566,1.33955 -7.24986,3.80684 -8.75671,7.70871 -1.13743,2.94527 -1.80122,7.05909 -1.65394,10.40316 0.13075,2.96891 0.9633,5.07273 2.60877,7.33912 1.08803,1.49859 3.40096,2.67896 5.43398,3.22092 3.49923,0.93284 7.37483,0.82779 10.86038,-0.1553 5.98587,-2.2615 11.09272,-5.76885 14.33034,-10.77903 1.07459,-1.67639 2.15539,-3.45031 2.5532,-5.4034 0.30053,-1.4755 0.61519,-3.23621 -0.1779,-4.51456 z"
         style="fill:none;stroke:#ce5c00;stroke-width:1px;stroke-linecap:butt;stroke-linejoin:miter;stroke-opacity:1" /></clipPath><clipPath
       clipPathUnits="userSpaceOnUse"
       id="clipPath14822-2-4"><path
         sodipodi:nodetypes="aaaasssaccaa"
         inkscape:connector-curvature="0"
         d="m 386.1875,285.32775 c -0.40516,-1.10369 -1.11845,-2.08156 -1.9907,-2.86987 -0.87226,-0.78832 -1.90049,-1.39229 -2.98278,-1.85155 -2.16459,-0.91852 -4.52053,-1.26149 -6.83152,-1.69556 -2.17919,-0.40931 -4.34179,-0.90631 -6.52782,-1.27734 -2.27136,-0.38551 -4.6179,-0.63213 -6.8653,-0.1253 -1.96583,0.44333 -3.7845,1.45879 -5.27172,2.81864 -1.48723,1.35984 -2.64911,3.0564 -3.48499,4.89007 -1.47218,3.22952 -1.93451,6.86503 -1.65394,10.40316 0.20882,2.63325 0.87532,5.34594 2.60877,7.33912 1.40065,1.61052 3.38733,2.61526 5.43398,3.22092 3.52502,1.04316 7.36663,0.98822 10.86038,-0.1553 5.76689,-1.93113 10.87568,-5.77387 14.33034,-10.77903 1.13861,-1.64963 2.11217,-3.44809 2.5532,-5.4034 0.33597,-1.48955 0.34831,-3.08112 -0.1779,-4.51456"
         id="path14824-6-5"
         inkscape:original-d="m 386.1875,285.32775 c -2.36571,-3.81321 -7.59294,-4.9003 -11.805,-6.41698 -2.08672,-0.75138 -4.32322,-1.04333 -6.52782,-1.27734 -2.27612,-0.2416 -4.71593,-0.91505 -6.8653,-0.1253 -3.64566,1.33955 -7.24986,3.80684 -8.75671,7.70871 -1.13743,2.94527 -1.80122,7.05909 -1.65394,10.40316 0.13075,2.96891 0.9633,5.07273 2.60877,7.33912 1.08803,1.49859 3.40096,2.67896 5.43398,3.22092 3.49923,0.93284 7.37483,0.82779 10.86038,-0.1553 5.98587,-2.2615 11.09272,-5.76885 14.33034,-10.77903 1.07459,-1.67639 2.15539,-3.45031 2.5532,-5.4034 0.30053,-1.4755 0.61519,-3.23621 -0.1779,-4.51456 z"
         style="fill:none;stroke:#ce5c00;stroke-width:1px;stroke-linecap:butt;stroke-linejoin:miter;stroke-opacity:1" /></clipPath><linearGradient
       id="linearGradient14518-6"><stop
         id="stop14540-0"
         offset="0"
         style="stop-color:#110800;stop-opacity:1;" /><stop
         style="stop-color:#a65a00;stop-opacity:0.80000001;"
         offset="0.59066743"
         id="stop14542-5" /><stop
         style="stop-color:#ff921e;stop-opacity:0;"
         offset="1"
         id="stop14522-4" /></linearGradient><inkscape:path-effect
       is_visible="true"
       id="path-effect29716-0-0"
       effect="spiro" /><inkscape:path-effect
       is_visible="true"
       id="path-effect29716-0-8-3"
       effect="spiro" /><inkscape:path-effect
       effect="spiro"
       id="path-effect14300-7"
       is_visible="true" /><clipPath
       clipPathUnits="userSpaceOnUse"
       id="clipPath14489-3"><path
         style="fill:url(#linearGradient14485);fill-opacity:1;stroke:none"
         d="m 516.00562,331.8756 c -0.6714,1.71905 -1.62682,3.32679 -2.81579,4.73826 -2.6238,3.11482 -6.268,5.17039 -9.89648,7.01985 -6.1886,3.15437 -12.60169,5.92177 -18.41964,9.71654 -3.89802,2.54249 -7.4959,5.52671 -10.86016,8.74238 -2.87719,2.75012 -5.60582,5.68745 -8.83247,8.01771 -3.25567,2.35122 -7.01915,4.05426 -10.99061,4.6502 -4.83026,0.72481 -9.82134,-0.21289 -14.29898,-2.16416 -3.13754,-1.36728 -6.15569,-3.3229 -7.96301,-6.22931 -1.81425,-2.91754 -2.22807,-6.48813 -2.23266,-9.92375 -0.008,-6.07666 1.11824,-12.09004 2.17848,-18.07349 0.88097,-4.97177 1.71949,-9.95483 2.26013,-14.97502 0.98337,-9.13118 0.9763,-18.35278 0.3199,-27.51327 -0.10993,-1.53416 -0.23754,-3.0832 -0.008,-4.60412 0.22922,-1.52092 0.85475,-3.0367 2.02069,-4.03986 1.07696,-0.9266 2.52093,-1.33598 3.93947,-1.4145 1.41854,-0.0785 2.83404,0.14655 4.23982,0.35197 3.31254,0.48405 6.65159,0.8649 9.88917,1.71656 2.04284,0.53738 4.03315,1.25925 6.0722,1.81081 3.40258,0.92039 6.96639,1.36144 10.46739,0.95192 3.76917,-0.44089 7.42987,-1.85678 11.22363,-1.76474 1.55658,0.0378 3.1015,0.33171 4.58649,0.79985 1.51539,0.47772 3.00914,1.16182 4.12281,2.29512 0.84639,0.8613 1.43579,1.94539 1.87872,3.06879 0.65982,1.67352 1.01492,3.457 1.16703,5.24945 0.13475,1.58788 0.11343,3.19441 0.41433,4.75933 0.49503,2.57458 1.84746,4.92305 3.52848,6.93494 1.68102,2.01189 3.68982,3.72048 5.69641,5.40783 1.99908,1.68103 4.0106,3.35469 6.16708,4.82839 1.0121,0.69165 2.05642,1.33949 3.01736,2.10062 0.96094,0.76113 1.84466,1.6468 2.44543,2.71535 0.81492,1.44944 1.06377,3.2077 0.68307,4.82635 l 2e-5,0"
         id="path14491-6"
         inkscape:connector-curvature="0"
         sodipodi:nodetypes="aaaaaaaaaaaaaaaaaaaaaaaacscaa"
         inkscape:original-d="m 516.00562,331.8756 c 0.90859,1.59687 -1.57016,3.38773 -2.81579,4.73826 -2.74207,2.97299 -6.45099,4.90178 -9.89648,7.01985 -5.91373,3.63539 -12.61918,5.90302 -18.41964,9.71654 -3.88318,2.553 -7.32809,5.72221 -10.86016,8.74238 -3.0221,2.58411 -5.48201,5.87643 -8.83247,8.01771 -3.3519,2.1422 -7.0437,4.15414 -10.99061,4.6502 -4.78298,0.60114 -9.87221,-0.25577 -14.29898,-2.16416 -3.0947,-1.33413 -6.16113,-3.38144 -7.96301,-6.22931 -1.81288,-2.86525 -2.06093,-6.5375 -2.23266,-9.92375 -0.30734,-6.06031 1.36252,-12.0605 2.17848,-18.07349 0.67882,-5.00236 1.85312,-9.94325 2.26013,-14.97502 0.73946,-9.14185 -0.7797,-18.40771 0.3199,-27.51327 0.35468,-2.93704 -0.181,-6.65876 2.01238,-8.64398 2.0384,-1.84494 5.43058,-1.1212 8.17929,-1.06253 3.34492,0.0714 6.63224,0.95108 9.88917,1.71656 2.05612,0.48325 3.99816,1.41138 6.0722,1.81081 3.44031,0.66255 6.96573,1.06623 10.46739,0.95192 3.78516,-0.12356 7.43659,-1.79636 11.22363,-1.76474 1.55185,0.013 3.12359,0.28186 4.58649,0.79985 1.48266,0.52499 2.98786,1.20618 4.12281,2.29512 0.86547,0.83038 1.42933,1.95676 1.87872,3.06879 0.67163,1.66196 0.8942,3.4778 1.16703,5.24945 0.24238,1.57389 -0.1531,3.27141 0.41433,4.75933 1.83023,4.79924 5.57666,8.72712 9.22489,12.34277 1.74278,1.93455 4.03041,3.53404 6.16708,4.82839 2.26886,1.37444 4.3675,2.44991 5.46279,4.81597 0.65901,1.48517 -0.54371,3.76097 0.68307,4.82635 z" /></clipPath><inkscape:path-effect
       effect="spiro"
       id="path-effect14300-2-7"
       is_visible="true" /><clipPath
       clipPathUnits="userSpaceOnUse"
       id="clipPath14481-1"><path
         style="fill:url(#linearGradient14485);fill-opacity:1;stroke:none"
         d="m 516.00562,331.8756 c -0.6714,1.71905 -1.62682,3.32679 -2.81579,4.73826 -2.6238,3.11482 -6.268,5.17039 -9.89648,7.01985 -6.1886,3.15437 -12.60169,5.92177 -18.41964,9.71654 -3.89802,2.54249 -7.4959,5.52671 -10.86016,8.74238 -2.87719,2.75012 -5.60582,5.68745 -8.83247,8.01771 -3.25567,2.35122 -7.01915,4.05426 -10.99061,4.6502 -4.83026,0.72481 -9.82134,-0.21289 -14.29898,-2.16416 -3.13754,-1.36728 -6.15569,-3.3229 -7.96301,-6.22931 -1.81425,-2.91754 -2.22807,-6.48813 -2.23266,-9.92375 -0.008,-6.07666 1.11824,-12.09004 2.17848,-18.07349 0.88097,-4.97177 1.71949,-9.95483 2.26013,-14.97502 0.98337,-9.13118 0.9763,-18.35278 0.3199,-27.51327 -0.10993,-1.53416 -0.23754,-3.0832 -0.008,-4.60412 0.22922,-1.52092 0.85475,-3.0367 2.02069,-4.03986 1.07696,-0.9266 2.52093,-1.33598 3.93947,-1.4145 1.41854,-0.0785 2.83404,0.14655 4.23982,0.35197 3.31254,0.48405 6.65159,0.8649 9.88917,1.71656 2.04284,0.53738 4.03315,1.25925 6.0722,1.81081 3.40258,0.92039 6.96639,1.36144 10.46739,0.95192 3.76917,-0.44089 7.42987,-1.85678 11.22363,-1.76474 1.55658,0.0378 3.1015,0.33171 4.58649,0.79985 1.51539,0.47772 3.00914,1.16182 4.12281,2.29512 0.84639,0.8613 1.43579,1.94539 1.87872,3.06879 0.65982,1.67352 1.01492,3.457 1.16703,5.24945 0.13475,1.58788 0.11343,3.19441 0.41433,4.75933 0.49503,2.57458 1.84746,4.92305 3.52848,6.93494 1.68102,2.01189 3.68982,3.72048 5.69641,5.40783 1.99908,1.68103 4.0106,3.35469 6.16708,4.82839 1.0121,0.69165 2.05642,1.33949 3.01736,2.10062 0.96094,0.76113 1.84466,1.6468 2.44543,2.71535 0.81492,1.44944 1.06377,3.2077 0.68307,4.82635 l 2e-5,0"
         id="path14483-3"
         inkscape:connector-curvature="0"
         sodipodi:nodetypes="aaaaaaaaaaaaaaaaaaaaaaaacscaa"
         inkscape:original-d="m 516.00562,331.8756 c 0.90859,1.59687 -1.57016,3.38773 -2.81579,4.73826 -2.74207,2.97299 -6.45099,4.90178 -9.89648,7.01985 -5.91373,3.63539 -12.61918,5.90302 -18.41964,9.71654 -3.88318,2.553 -7.32809,5.72221 -10.86016,8.74238 -3.0221,2.58411 -5.48201,5.87643 -8.83247,8.01771 -3.3519,2.1422 -7.0437,4.15414 -10.99061,4.6502 -4.78298,0.60114 -9.87221,-0.25577 -14.29898,-2.16416 -3.0947,-1.33413 -6.16113,-3.38144 -7.96301,-6.22931 -1.81288,-2.86525 -2.06093,-6.5375 -2.23266,-9.92375 -0.30734,-6.06031 1.36252,-12.0605 2.17848,-18.07349 0.67882,-5.00236 1.85312,-9.94325 2.26013,-14.97502 0.73946,-9.14185 -0.7797,-18.40771 0.3199,-27.51327 0.35468,-2.93704 -0.181,-6.65876 2.01238,-8.64398 2.0384,-1.84494 5.43058,-1.1212 8.17929,-1.06253 3.34492,0.0714 6.63224,0.95108 9.88917,1.71656 2.05612,0.48325 3.99816,1.41138 6.0722,1.81081 3.44031,0.66255 6.96573,1.06623 10.46739,0.95192 3.78516,-0.12356 7.43659,-1.79636 11.22363,-1.76474 1.55185,0.013 3.12359,0.28186 4.58649,0.79985 1.48266,0.52499 2.98786,1.20618 4.12281,2.29512 0.86547,0.83038 1.42933,1.95676 1.87872,3.06879 0.67163,1.66196 0.8942,3.4778 1.16703,5.24945 0.24238,1.57389 -0.1531,3.27141 0.41433,4.75933 1.83023,4.79924 5.57666,8.72712 9.22489,12.34277 1.74278,1.93455 4.03041,3.53404 6.16708,4.82839 2.26886,1.37444 4.3675,2.44991 5.46279,4.81597 0.65901,1.48517 -0.54371,3.76097 0.68307,4.82635 z" /></clipPath><inkscape:path-effect
       effect="spiro"
       id="path-effect14300-2-2-0"
       is_visible="true" /><clipPath
       clipPathUnits="userSpaceOnUse"
       id="clipPath14473-5"><path
         style="fill:url(#linearGradient14477);fill-opacity:1;stroke:none"
         d="m 511.82669,331.89986 c -0.60617,1.40358 -1.44178,2.70776 -2.46357,3.84504 -2.32524,2.58805 -5.50706,4.22246 -8.65855,5.69652 -5.42045,2.53534 -11.00071,4.7788 -16.11556,7.88485 -3.38301,2.05437 -6.53696,4.47221 -9.50169,7.09434 -2.52461,2.23286 -4.92977,4.6271 -7.72763,6.50627 -2.88313,1.93644 -6.17534,3.29888 -9.61582,3.77358 -4.21817,0.58201 -8.55335,-0.18335 -12.51035,-1.75619 -2.7091,-1.07682 -5.36625,-2.6185 -6.96693,-5.05501 -1.53813,-2.3413 -1.9333,-5.25173 -1.95338,-8.053 -0.0354,-4.93859 0.96501,-9.81816 1.90598,-14.66641 0.78215,-4.02995 1.52682,-8.0717 1.97741,-12.15204 0.81784,-7.40607 0.66114,-14.88536 0.27989,-22.32668 -0.064,-1.24906 -0.13361,-2.5105 0.0789,-3.74301 0.21256,-1.23251 0.73646,-2.45247 1.68171,-3.27147 0.93914,-0.8137 2.20952,-1.15942 3.45104,-1.2115 1.24152,-0.0521 2.47642,0.16381 3.70512,0.34927 2.88969,0.43617 5.81087,0.7091 8.65215,1.39297 1.78651,0.43 3.53091,1.02011 5.31265,1.46945 2.98632,0.75312 6.09645,1.10709 9.15804,0.77247 3.2941,-0.36004 6.50688,-1.50957 9.81969,-1.43207 1.35838,0.0318 2.70755,0.27142 4.01277,0.64907 1.31265,0.3798 2.61744,0.9202 3.6071,1.86246 0.72535,0.69061 1.25006,1.56936 1.64371,2.49029 0.57625,1.34814 0.88626,2.79994 1.02105,4.25986 0.11897,1.28855 0.10468,2.59405 0.36251,3.86214 0.4369,2.14878 1.63966,4.08139 3.11506,5.70353 1.4754,1.62214 3.22406,2.96752 4.9559,4.31247 1.75634,1.36398 3.50975,2.7398 5.39565,3.91818 0.88228,0.55128 1.79349,1.05932 2.63473,1.67142 0.84123,0.61209 1.61878,1.33907 2.14473,2.23668 0.68386,1.16711 0.90229,2.59857 0.59763,3.91652 l 2e-5,0"
         id="path14475-9"
         inkscape:connector-curvature="0"
         sodipodi:nodetypes="aaaaaaaaaaaaaaaaaaaaaaaacscaa"
         inkscape:original-d="m 511.82669,331.89986 c 0.79493,1.29584 -1.37375,2.7491 -2.46357,3.84504 -2.39907,2.41255 -5.64405,3.97773 -8.65855,5.69652 -5.17399,2.95008 -11.04067,4.79023 -16.11556,7.88485 -3.39744,2.07173 -6.41144,4.64351 -9.50169,7.09434 -2.64407,2.09697 -4.79627,4.76865 -7.72763,6.50627 -2.93262,1.73837 -6.16262,3.37103 -9.61582,3.77358 -4.18468,0.48781 -8.63731,-0.20756 -12.51035,-1.75619 -2.70759,-1.08263 -5.39044,-2.744 -6.96693,-5.05501 -1.58611,-2.32511 -1.80313,-5.3051 -1.95338,-8.053 -0.2689,-4.91787 1.19208,-9.78694 1.90598,-14.66641 0.59391,-4.05935 1.62131,-8.06882 1.97741,-12.15204 0.64696,-7.4185 -0.68217,-14.93763 0.27989,-22.32668 0.31031,-2.38337 -0.15836,-5.4035 1.76065,-7.01448 1.78342,-1.49715 4.75128,-0.90984 7.15616,-0.86223 2.92651,0.0579 5.80263,0.77179 8.65215,1.39297 1.79893,0.39215 3.49804,1.14531 5.31265,1.46945 3.00996,0.53765 6.0944,0.86523 9.15804,0.77247 3.31168,-0.10027 6.50636,-1.45773 9.81969,-1.43207 1.35773,0.0105 2.73287,0.22873 4.01277,0.64907 1.2972,0.42602 2.61412,0.9788 3.6071,1.86246 0.75721,0.67384 1.25054,1.58789 1.64371,2.49029 0.58762,1.34866 0.78235,2.82219 1.02105,4.25986 0.21206,1.27719 -0.13395,2.65471 0.36251,3.86214 1.60129,3.89452 4.87908,7.08195 8.07096,10.016 1.52478,1.56986 3.52626,2.86783 5.39565,3.91818 1.98506,1.11534 3.82118,1.98807 4.77946,3.9081 0.57658,1.2052 -0.47569,3.05198 0.59763,3.91652 z" /></clipPath><inkscape:path-effect
       is_visible="true"
       id="path-effect4582-3"
       effect="spiro" /><inkscape:path-effect
       is_visible="true"
       id="path-effect4500-7"
       effect="spiro" /><clipPath
       clipPathUnits="userSpaceOnUse"
       id="clipPath14656-7"><path
         sodipodi:nodetypes="aaaaassssaaaaaa"
         inkscape:connector-curvature="0"
         d="m 304.84727,225.44951 c 6.01627,4.92338 9.77707,12.317 10.94319,20.00305 1.8254,12.03148 -2.34636,24.07488 -6.44591,35.53273 -0.81749,2.28481 -1.63978,4.59033 -1.96473,6.99513 -0.32495,2.4048 -0.11897,4.94825 1.02948,7.08594 1.30279,2.42497 3.73227,4.12469 6.36677,4.92292 2.58877,0.78438 5.39365,0.76103 8.01466,0.0922 2.62101,-0.66882 5.06097,-1.96774 7.18716,-3.63996 5.48002,-4.30997 8.75799,-10.98552 10.01043,-17.84394 1.25243,-6.85841 0.63908,-13.92879 -0.551,-20.7983 -1.62313,-9.36916 -4.30898,-18.53961 -7.74003,-27.40773 -2.51766,-6.50732 -5.46794,-12.91081 -9.61753,-18.52016 -4.04611,-5.46946 -9.16208,-10.08954 -13.10336,-15.63502 -2.73209,-3.84412 -4.89983,-8.13097 -8.1917,-11.50812 -1.64594,-1.68858 -3.57654,-3.13527 -5.76975,-4.00143 -2.19321,-0.86616 -4.66356,-1.12446 -6.93254,-0.48249 -1.50468,0.42573 -2.89193,1.23739 -4.03791,2.30136 -1.14598,1.06397 -2.05268,2.37637 -2.69275,3.80312 -1.28015,2.85349 -1.47719,6.11241 -0.96512,9.1977 0.66114,3.98343 2.44407,7.69333 4.46569,11.18873 2.27396,3.93169 4.918,7.71926 8.38442,10.65407 3.5985,3.04664 7.96161,5.07413 11.61053,8.0602"
         id="path14658-9"
         inkscape:original-d="m 304.84727,225.44951 c 5.05628,5.63479 9.72833,12.47181 10.94319,20.00305 1.91724,11.88535 -4.97006,23.58228 -6.44591,35.53273 -0.57645,4.66766 -2.84839,9.7988 -0.93525,14.08107 1.10334,2.46967 3.76154,4.35176 6.36677,4.92292 5.08221,1.1142 11.95719,2.41291 15.20182,-3.54776 6.07775,-11.16533 10.5961,-26.78641 9.45943,-38.64224 -0.906,-9.44981 -3.86858,-18.61978 -7.74003,-27.40773 -2.817,-6.39442 -6.14704,-12.5833 -9.61753,-18.52016 -3.44146,-5.88721 -8.20051,-10.94245 -13.10336,-15.63502 -6.34842,-6.07614 -12.40311,-17.98386 -20.89399,-15.99204 -5.48499,1.28669 -7.45029,9.57719 -7.69578,15.30218 -0.17245,4.02188 2.46425,7.71677 4.46569,11.18873 2.26238,3.92465 5.10447,7.56255 8.38442,10.65407 3.43735,3.23988 8.4511,4.53927 11.61053,8.0602 z"
         style="fill:none;stroke:#c17d11;stroke-width:1px;stroke-linecap:butt;stroke-linejoin:miter;stroke-opacity:1" /></clipPath><inkscape:path-effect
       is_visible="true"
       id="path-effect29707-7-6"
       effect="spiro" /><inkscape:path-effect
       is_visible="true"
       id="path-effect29553-7"
       effect="spiro" /><clipPath
       id="clipPath29644-8"
       clipPathUnits="userSpaceOnUse"><path
         sodipodi:nodetypes="zzzzzzz"
         inkscape:connector-curvature="0"
         inkscape:original-d="m 54.232441,122.36218 c -3.79199,4.78949 -8.5176,11.69104 -8.19273,17.25 0.32487,5.55896 3.86025,13.93486 8.37542,16 4.51517,2.06514 5.75436,0.0125 8.32902,-2.5 2.57466,-2.51247 3.85871,-7.34762 4.00585,-12.25 0.14713,-4.90238 -3.03534,-11.91949 -5.43855,-15.25 -2.40321,-3.33051 -3.28702,-8.03949 -7.07901,-3.25 z"
         id="path29646-8"
         d="m 54.232441,122.36218 c -1.780966,0.097 -3.484616,0.91899 -4.787851,2.1367 -1.303235,1.21771 -2.221372,2.81176 -2.786181,4.50357 -1.129618,3.38363 -0.875481,7.05177 -0.618698,10.60973 0.23251,3.22162 0.470404,6.50533 1.676785,9.50158 0.60319,1.49813 1.450247,2.91021 2.580338,4.06395 1.130092,1.15374 2.551736,2.04189 4.118297,2.43447 1.468838,0.36809 3.038161,0.29183 4.482784,-0.16209 1.444623,-0.45391 2.763917,-1.27887 3.846236,-2.33791 1.57904,-1.54507 2.643262,-3.5662 3.253449,-5.68947 0.610186,-2.12328 0.784157,-4.35155 0.752401,-6.56053 -0.03974,-2.76435 -0.400909,-5.53851 -1.265755,-8.16439 -0.864846,-2.62588 -2.245742,-5.10327 -4.172795,-7.08561 -0.933308,-0.96009 -1.997766,-1.80513 -3.198586,-2.39747 -1.200819,-0.59233 -2.54344,-0.92535 -3.880424,-0.85253"
         style="fill:url(#radialGradient29648);fill-opacity:1;stroke:none" /></clipPath><linearGradient
       id="linearGradient28469-0"><stop
         style="stop-color:#d2940a;stop-opacity:1"
         offset="0"
         id="stop28479-4" /><stop
         style="stop-color:#d89c08;stop-opacity:1"
         offset="0.75143719"
         id="stop28477-2" /><stop
         id="stop28485-7"
         offset="0.86579126"
         style="stop-color:#b67e07;stop-opacity:1;" /><stop
         id="stop28473-1"
         offset="1"
         style="stop-color:#946106;stop-opacity:1" /></linearGradient><inkscape:path-effect
       is_visible="true"
       id="path-effect28463-4"
       effect="spiro" /><inkscape:path-effect
       is_visible="true"
       id="path-effect28489-4"
       effect="spiro" /><inkscape:path-effect
       is_visible="true"
       id="path-effect28273-54-7"
       effect="spiro" /><linearGradient
       id="linearGradient28275-8"><stop
         id="stop28277-1"
         offset="0"
         style="stop-color:#ad780a;stop-opacity:1" /><stop
         style="stop-color:#d89e08;stop-opacity:1"
         offset="0.11972899"
         id="stop28291-9" /><stop
         style="stop-color:#edb80b;stop-opacity:1"
         offset="0.25514477"
         id="stop28289-6" /><stop
         style="stop-color:#ebc80d;stop-opacity:1"
         offset="0.39194193"
         id="stop28287-6" /><stop
         style="stop-color:#f5d838;stop-opacity:1"
         offset="0.52741116"
         id="stop28285-7" /><stop
         style="stop-color:#f6d811;stop-opacity:1"
         offset="0.76906693"
         id="stop28283-7" /><stop
         id="stop28279-5"
         offset="1"
         style="stop-color:#f5cd31;stop-opacity:1" /></linearGradient><inkscape:path-effect
       is_visible="true"
       id="path-effect28273-44"
       effect="spiro" /><inkscape:path-effect
       is_visible="true"
       id="path-effect28384-7"
       effect="spiro" /><linearGradient
       id="linearGradient29529-6"><stop
         id="stop29531-0"
         offset="0"
         style="stop-color:#3a2903;stop-opacity:1;" /><stop
         style="stop-color:#735208;stop-opacity:1"
         offset="0.55472803"
         id="stop29539-7" /><stop
         id="stop29533-8"
         offset="1"
         style="stop-color:#ac8c04;stop-opacity:1" /></linearGradient><inkscape:path-effect
       is_visible="true"
       id="path-effect29455-3"
       effect="spiro" /><linearGradient
       id="linearGradient29477-3"><stop
         id="stop29479-5"
         offset="0"
         style="stop-color:#757574;stop-opacity:0" /><stop
         style="stop-color:#757574;stop-opacity:1;"
         offset="0.26291031"
         id="stop29487-5" /><stop
         style="stop-color:#757574;stop-opacity:1;"
         offset="0.5"
         id="stop29485-0" /><stop
         id="stop29481-3"
         offset="1"
         style="stop-color:#757574;stop-opacity:0" /></linearGradient><linearGradient
       id="linearGradient29336-6"><stop
         id="stop29338-1"
         offset="0"
         style="stop-color:#646464;stop-opacity:0" /><stop
         style="stop-color:#646464;stop-opacity:0.5825243"
         offset="0.30628255"
         id="stop29344-7" /><stop
         id="stop29354-5"
         offset="0.47000006"
         style="stop-color:#646464;stop-opacity:1" /><stop
         style="stop-color:#646464;stop-opacity:0.25728154"
         offset="0.72834015"
         id="stop29356-3" /><stop
         id="stop29340-6"
         offset="1"
         style="stop-color:#646464;stop-opacity:0;" /></linearGradient><linearGradient
       id="linearGradient28976-3"><stop
         id="stop28978-7"
         offset="0"
         style="stop-color:#747474;stop-opacity:1" /><stop
         style="stop-color:#8c8c8c;stop-opacity:1;"
         offset="0.125"
         id="stop29259-5" /><stop
         style="stop-color:#a4a4a4;stop-opacity:1;"
         offset="0.25"
         id="stop29257-0" /><stop
         style="stop-color:#d4d4d4;stop-opacity:1"
         offset="0.5"
         id="stop28984-4" /><stop
         id="stop28986-0"
         offset="0.61919296"
         style="stop-color:#d4d4d4;stop-opacity:1" /><stop
         id="stop28980-2"
         offset="1"
         style="stop-color:#7c7c7c;stop-opacity:1" /></linearGradient><inkscape:path-effect
       is_visible="true"
       id="path-effect28974-8"
       effect="spiro" /><clipPath
       id="clipPath29028-5"
       clipPathUnits="userSpaceOnUse"><path
         sodipodi:nodetypes="aaaaaaaa"
         inkscape:connector-curvature="0"
         inkscape:original-d="m 85.75,122.36218 c -2.54738,2.12715 -5.20812,4.59907 -6.25,7.75 -1.30914,3.95917 -1.63336,8.91703 0.5,12.5 3.91901,6.58194 12.38353,13.85135 19.75,11.75 4.87452,-1.3905 6.10748,-8.51023 7,-13.5 0.59149,-3.30679 0.59578,-7.19325 -1.25,-10 -3.61233,-5.49303 -10.4265,-9.89357 -17,-10 -1.04403,-0.0169 -1.94852,0.83074 -2.75,1.5 z"
         id="path29030-7"
         d="m 85.75,122.36218 c -2.780425,1.91023 -5.110569,4.57487 -6.25,7.75 -1.436029,4.00163 -0.885838,8.48071 0.5,12.5 1.419488,4.11688 3.793788,8.04098 7.37932,10.51234 1.792766,1.23567 3.868091,2.08301 6.030402,2.33859 2.162311,0.25558 4.409274,-0.0949 6.340278,-1.10093 2.35312,-1.22596 4.14782,-3.37278 5.26217,-5.78076 1.11436,-2.40798 1.5888,-5.0701 1.73783,-7.71924 0.18989,-3.37546 -0.14047,-6.80646 -1.25,-10 -1.20527,-3.46909 -3.39005,-6.67055 -6.472754,-8.6666 -1.541351,-0.99803 -3.291947,-1.68356 -5.110883,-1.93515 -1.818936,-0.25158 -3.704766,-0.0633 -5.416363,0.60175 -0.975471,0.37901 -1.887438,0.9074 -2.75,1.5"
         style="fill:url(#radialGradient29032);fill-opacity:1;stroke:none" /></clipPath><inkscape:path-effect
       is_visible="true"
       id="path-effect28881-6"
       effect="spiro" /><linearGradient
       id="linearGradient28935-8"><stop
         id="stop28937-7"
         offset="0"
         style="stop-color:#949494;stop-opacity:0.39215687;" /><stop
         style="stop-color:#949494;stop-opacity:1;"
         offset="0.5"
         id="stop28943-3" /><stop
         id="stop28939-8"
         offset="1"
         style="stop-color:#949494;stop-opacity:0.39215687;" /></linearGradient><linearGradient
       id="linearGradient28853-5"><stop
         id="stop28855-3"
         offset="0"
         style="stop-color:#020204;stop-opacity:1" /><stop
         style="stop-color:#020204;stop-opacity:1"
         offset="0.73448181"
         id="stop28865-0" /><stop
         id="stop28857-9"
         offset="1"
         style="stop-color:#5c5c5c;stop-opacity:1;" /></linearGradient><inkscape:path-effect
       is_visible="true"
       id="path-effect28851-0"
       effect="spiro" /><inkscape:path-effect
       is_visible="true"
       id="path-effect28273-4-2"
       effect="spiro" /><inkscape:path-effect
       is_visible="true"
       id="path-effect28797-81"
       effect="spiro" /><inkscape:path-effect
       is_visible="true"
       id="path-effect28797-8-1"
       effect="spiro" /><inkscape:path-effect
       is_visible="true"
       id="path-effect28463-0-7"
       effect="spiro" /><inkscape:path-effect
       is_visible="true"
       id="path-effect28463-8-0"
       effect="spiro" /><inkscape:path-effect
       is_visible="true"
       id="path-effect29721-2"
       effect="spiro" /><inkscape:path-effect
       is_visible="true"
       id="path-effect28714-5"
       effect="spiro" /><inkscape:path-effect
       is_visible="true"
       id="path-effect29678-4-6"
       effect="spiro" /><inkscape:path-effect
       is_visible="true"
       id="path-effect29678-1"
       effect="spiro" /><inkscape:path-effect
       is_visible="true"
       id="path-effect29672-0"
       effect="spiro" /><mask
       id="path-1-outside-1_607_21728"
       maskUnits="userSpaceOnUse"
       x="392.584"
       y="220.326"
       width="826"
       height="259"
       fill="#000000"><rect
         fill="#ffffff"
         x="392.58401"
         y="220.326"
         width="826"
         height="259"
         id="rect2" /><path
         fill-rule="evenodd"
         clip-rule="evenodd"
         d="m 396.847,467.557 c -0.923,-3.547 0.639,-7.276 3.801,-9.079 l 20.431,-11.644 c 12.948,-7.379 22.835,-19.218 27.855,-33.353 L 504.72,256.398 c 6.832,-19.238 24.888,-32.072 45.123,-32.072 h 26.813 c 4.413,0 7.99,3.613 7.99,8.07 v 4.22 l 5.194,-3.643 c 8.028,-5.63 17.568,-8.647 27.341,-8.647 h 31.483 c 4.412,0 7.99,3.613 7.99,8.07 v 0.421 c 5.076,-5.239 12.155,-8.491 19.987,-8.491 h 75.886 c 1.457,0 2.823,0.394 4,1.083 1.205,-0.703 2.582,-1.083 3.997,-1.083 h 22.736 c 18.335,0 33.199,15.013 33.199,33.533 v 29.851 c 0.622,-35.113 28.996,-63.384 63.908,-63.384 35.3,0 63.917,28.905 63.917,64.562 0,35.656 -28.617,64.561 -63.917,64.561 -34.912,0 -63.286,-28.27 -63.908,-63.383 v 19.1 c 0,10.568 5.488,20.361 14.458,25.8 l 5.761,3.494 c 3.079,1.867 4.546,5.579 3.587,9.074 -0.959,3.496 -4.109,5.915 -7.699,5.915 h -52.067 c -7.829,0 -14.906,-3.249 -19.983,-8.486 v 0.417 c 0,4.457 -3.577,8.069 -7.989,8.069 h -95.861 c -1.466,0 -2.84,-0.399 -4.021,-1.095 -1.172,0.682 -2.532,1.072 -3.981,1.072 h -29.967 c -8.701,0 -15.958,-6.244 -17.62,-14.538 l -4.904,10.039 c -1.346,2.755 -4.123,4.499 -7.165,4.499 h -36.203 c -3.035,0 -5.675,-1.71 -7.028,-4.228 l -33.524,95.498 c -6.077,17.312 -22.291,28.881 -40.476,28.881 h -67.203 c -3.631,0 -6.805,-2.473 -7.727,-6.02 z M 552.805,305.03 v 40.326 h 36.203 L 608.71,305.03 v 30.238 c 0,5.571 4.471,10.088 9.987,10.088 h 29.967 v -112.96 h -31.483 c -8.144,0 -16.094,2.515 -22.784,7.206 l -17.741,12.442 v -19.648 h -26.813 c -16.862,0 -31.909,10.695 -37.603,26.727 l -55.786,157.083 c -5.667,15.959 -16.83,29.325 -31.449,37.657 l -20.431,11.644 h 67.203 c 14.802,0 27.999,-9.417 32.946,-23.508 z m 199.73,8.53 v -28.156 c -0.175,8.634 -4.186,16.316 -10.381,21.38 3.955,1.46 7.492,3.796 10.381,6.776 z m -27.958,-8.57 c 11.031,0 19.974,-9.033 19.974,-20.176 v -12.045 h -47.979 v -8.094 h 35.98 c 11.032,0 19.975,-9.033 19.975,-20.175 v -12.104 h -75.886 c -11.032,0 -19.975,9.033 -19.975,20.176 v 92.807 h 95.861 l 10e-4,-12.056 c 10e-4,-11.143 -8.942,-20.178 -19.974,-20.178 h -35.978 l -0.004,-8.155 z m 25.252,-38.279 c 0.954,-0.758 1.858,-1.577 2.706,-2.452 v 8.195 c -0.087,-2.287 -1.116,-4.329 -2.706,-5.743 z m 174.41,81.115 c -1.055,-3.349 0.157,-7.003 2.997,-9.033 10.699,-7.652 17.059,-20.071 17.059,-33.313 v -52.612 c 0,-15.763 12.651,-28.542 28.257,-28.542 h 31.978 c 12.24,0 22.55,3.24 30.68,9.146 -0.12,-0.884 -0.09,-1.799 0.1,-2.712 0.76,-3.747 4.03,-6.434 7.82,-6.434 h 49.23 c 8.73,0 16.97,4.125 22.26,11.151 l 10.16,13.504 3.9,-8.4 c 4.61,-9.919 14.47,-16.255 25.32,-16.255 h 52.51 c 3.76,0 7.02,2.653 7.81,6.369 0.79,3.716 -1.09,7.487 -4.52,9.054 l -0.98,0.447 c -8.12,3.712 -14.34,10.681 -17.15,19.226 l -59.89,181.934 c -6.51,19.792 -24.84,33.146 -45.49,33.144 l -58.27,-0.005 c -3.76,0 -7.01,-2.647 -7.81,-6.358 -0.8,-3.71 1.07,-7.48 4.49,-9.055 11.51,-5.301 20.52,-14.931 25.11,-26.84 l 45.95,-121.888 -38.4,-60.686 c -1.28,-2.034 -3.14,-3.633 -5.34,-4.591 l -8.47,-3.705 c 0.02,0.026 0.04,0.052 0.06,0.079 8.68,10.673 12.42,24.948 12.42,39.98 v 10.505 c 0,27.608 -10.02,43.459 -21.29,52.167 -5.46,4.219 -10.92,6.527 -15.02,7.786 -2.06,0.632 -3.8,1.007 -5.08,1.229 -0.64,0.112 -1.17,0.185 -1.56,0.232 -0.2,0.024 -0.36,0.041 -0.49,0.054 -0.07,0.006 -0.12,0.011 -0.17,0.015 l -0.06,0.005 -0.03,0.002 -0.01,0.001 c -0.01,10e-4 -0.01,10e-4 -0.6,-8.048 0,0 36.32,-2.68 36.32,-53.443 v -10.505 c 0,-27.581 -13.78,-49.035 -43.51,-49.035 h -31.978 c -11.193,0 -20.267,9.166 -20.267,20.472 v 52.612 c 0,11.805 -4.22,23.064 -11.663,31.829 -2.556,3.011 -5.493,5.727 -8.77,8.07 h 79.868 l 0.59,8.049 c -0.2,0.014 -0.39,0.021 -0.59,0.021 h -79.868 c -3.479,0 -6.558,-2.274 -7.613,-5.623 z m 118.891,-115.43 12.07,5.274 c 1.65,0.724 3.19,1.666 4.59,2.797 1.67,1.364 3.13,3.001 4.31,4.855 l 40.58,64.139 -48.42,125.707 c -3.51,9.095 -8.23,17.049 -15.53,23.188 -3.83,3.222 -8.1,5.944 -12.71,8.069 l 58.27,0.005 c 17.21,10e-4 32.48,-11.127 37.91,-27.62 l 59.89,-181.934 c 2.07,-6.298 5.63,-11.912 10.27,-16.409 3.24,-3.13 7.01,-5.72 11.17,-7.624 l 0.98,-0.447 H 1154 c -7.75,0 -14.8,4.526 -18.08,11.611 l -9.51,20.473 -18.15,-24.119 c -3.78,-5.018 -9.66,-7.965 -15.9,-7.965 z m -45.547,74.65 c 0,0 14.617,-1.085 14.617,-17.307 v -3.357 c 0,-8.814 -6.29,-15.652 -14.617,-15.652 h -13.35 v 36.316 z m -5.36,-8.071 h 4.87 c 0.179,-0.029 0.452,-0.082 0.787,-0.169 0.813,-0.211 1.83,-0.579 2.79,-1.18 1.51,-0.953 3.54,-2.796 3.54,-7.887 v -3.357 c 0,-4.846 -3.18,-7.582 -6.627,-7.582 h -5.36 z M 869.226,288.888 c 0,6.215 4.988,11.253 11.141,11.253 6.153,0 11.14,-5.038 11.14,-11.253 0,-6.215 -4.987,-11.253 -11.14,-11.253 -6.153,0 -11.141,5.038 -11.141,11.253 z m -36.66,56.491 -5.762,-3.493 c -2.195,-1.331 -4.225,-2.868 -6.073,-4.577 -7.729,-7.15 -12.262,-17.327 -12.262,-28.143 v -51.307 c 0,-14.062 -11.286,-25.463 -25.209,-25.463 h -22.736 l 10e-4,92.808 c 0,11.142 8.942,20.175 19.974,20.175 z m 47.801,0 c 30.888,0 55.928,-25.292 55.928,-56.491 0,-31.2 -25.04,-56.492 -55.928,-56.492 -30.889,0 -55.929,25.292 -55.929,56.492 0,31.199 25.04,56.491 55.929,56.491 z m 0,-37.168 c -10.566,0 -19.131,-8.651 -19.131,-19.323 0,-10.672 8.565,-19.324 19.131,-19.324 10.565,0 19.13,8.652 19.13,19.324 0,10.672 -8.565,19.323 -19.13,19.323 z"
         id="path4-6" /></mask><mask
       id="path-3-outside-2_607_21728"
       maskUnits="userSpaceOnUse"
       x="501.691"
       y="356.518"
       width="554"
       height="123"
       fill="#000000"><rect
         fill="#ffffff"
         x="501.69101"
         y="356.51801"
         width="554"
         height="123"
         id="rect13" /><path
         fill-rule="evenodd"
         clip-rule="evenodd"
         d="m 762.576,361.518 c 1.456,0 2.821,0.393 3.997,1.08 1.204,-0.702 2.579,-1.08 3.993,-1.08 h 19.821 c 9.775,0 19.316,3.018 27.344,8.649 l 9.728,6.824 c 4.617,-9.182 14.056,-15.473 24.949,-15.473 h 14.035 c 4.413,0 7.99,3.613 7.99,8.07 v 0.407 c 5.076,-5.231 12.15,-8.477 19.974,-8.477 h 43.944 c 1.455,0 2.82,0.393 3.995,1.079 1.175,-0.686 2.54,-1.079 3.995,-1.079 h 55.929 c 26.47,0 47.94,21.679 47.94,48.421 v 56.491 c 0,4.457 -3.58,8.07 -7.99,8.07 h -32.07 c -4.42,0 -7.99,-3.613 -7.99,-8.07 v -12.095 h -15.92 v 12.095 c 0,4.457 -3.577,8.07 -7.99,8.07 h -31.909 c -4.413,0 -7.99,-3.613 -7.99,-8.07 v -0.408 c -5.075,5.232 -12.15,8.478 -19.974,8.478 h -43.944 c -1.455,0 -2.82,-0.393 -3.995,-1.079 -1.175,0.686 -2.539,1.079 -3.995,1.079 h -22.197 c -9.252,0 -18.306,-2.704 -26.07,-7.786 l -10.421,-6.821 c -4.55,8.688 -13.589,14.607 -23.996,14.607 h -13.193 c -1.455,0 -2.82,-0.393 -3.996,-1.08 -1.204,0.702 -2.58,1.08 -3.994,1.08 l -31.949,-10e-4 c -4.412,0 -7.989,-3.613 -7.989,-8.07 v -7.988 l -15.993,0.001 v 7.988 c 0,4.457 -3.577,8.07 -7.989,8.07 H 666.7 c -1.456,0 -2.82,-0.393 -3.995,-1.079 -1.176,0.686 -2.54,1.079 -3.995,1.079 h -28.316 c -5.994,0 -11.303,-2.963 -14.569,-7.517 l -0.719,2.093 c -1.115,3.247 -4.145,5.424 -7.548,5.424 h -36.311 c -4.112,0 -7.498,-3.137 -7.941,-7.171 -5.007,4.512 -11.581,7.171 -18.619,7.171 h -30.006 c -2.578,0 -4.996,-1.255 -6.497,-3.372 -1.5,-2.117 -1.897,-4.834 -1.067,-7.299 l 23.423,-69.495 c 6.613,-19.622 24.859,-32.816 45.381,-32.816 h 18.588 c 4.267,0 7.752,3.377 7.978,7.629 l 2.982,-1.653 c 7.07,-3.921 15.005,-5.976 23.071,-5.976 h 30.17 c 4.412,0 7.99,3.613 7.99,8.07 v 13.576 c 8.588,-13.048 23.274,-21.646 39.948,-21.646 z m -168.067,21.26 v -13.19 h -18.588 c -17.102,0 -32.307,10.995 -37.818,27.347 l -23.422,69.495 h 30.006 c 8.231,0 15.572,-5.092 18.57,-12.744 0.153,-0.388 0.294,-0.784 0.423,-1.185 l 7.567,-23.475 v 37.404 h 36.311 l 12.849,-37.404 v 27.316 c 0,5.572 4.471,10.088 9.987,10.088 h 28.316 v -96.842 h -30.17 c -6.722,0 -13.334,1.713 -19.226,4.98 z m 104.147,67.594 31.971,-0.002 v 16.059 l 31.949,0.001 v -96.842 h -55.928 c -22.063,0 -39.948,18.066 -39.948,40.351 v 56.491 h 31.956 z m 102.355,5.107 c 1.209,-2.535 1.887,-5.378 1.887,-8.381 l 19.623,12.844 c 6.47,4.235 14.015,6.488 21.725,6.488 h 22.197 v -96.842 h -14.035 c -8.177,0 -15.206,4.963 -18.297,12.069 -1.079,2.481 -1.677,5.223 -1.677,8.106 v 0.542 l -19.26,-13.509 c -6.69,-4.693 -14.641,-7.208 -22.787,-7.208 h -19.821 v 96.842 h 13.193 c 7.597,0 14.161,-4.471 17.252,-10.951 z m 137.34,-9.224 v -76.667 h -43.944 c -11.031,0 -19.974,9.033 -19.974,20.175 v 76.667 h 43.944 c 11.031,0 19.974,-9.033 19.974,-20.175 z m 39.899,0.01 h 31.9 v 20.165 h 32.07 v -56.491 c 0,-22.285 -17.89,-40.351 -39.95,-40.351 H 946.341 V 466.43 H 978.25 Z M 730.618,413.943 c 0,0 -0.938,-13.348 -14.969,-13.348 h -2.903 c -7.624,0 -14.092,5.741 -14.092,13.348 v 12.193 h 31.964 z m -7.99,4.122 v -3.633 c -0.025,-0.15 -0.066,-0.368 -0.131,-0.633 -0.174,-0.707 -0.473,-1.572 -0.948,-2.369 -0.716,-1.201 -2.007,-2.765 -5.9,-2.765 h -2.903 c -3.858,0 -6.102,2.754 -6.102,5.278 v 4.122 z m 273.544,-9.4 h -2.904 c -3.893,0 -5.184,1.564 -5.9,2.765 -0.475,0.797 -0.774,1.662 -0.947,2.369 -0.065,0.265 -0.107,0.483 -0.131,0.633 v 3.633 h 15.98 v -4.122 c 0,-2.524 -2.24,-5.278 -6.098,-5.278 z m 14.088,5.278 c 0,-7.607 -6.46,-13.348 -14.088,-13.348 h -2.904 c -14.03,0 -14.968,13.348 -14.968,13.348 v 12.193 h 31.96 z"
         id="path15" /></mask><mask
       id="path-3-outside-2_607_21728-1"
       maskUnits="userSpaceOnUse"
       x="501.691"
       y="356.518"
       width="554"
       height="123"
       fill="#000000"><rect
         fill="#ffffff"
         x="501.69101"
         y="356.51801"
         width="554"
         height="123"
         id="rect13-0" /><path
         fill-rule="evenodd"
         clip-rule="evenodd"
         d="m 762.576,361.518 c 1.456,0 2.821,0.393 3.997,1.08 1.204,-0.702 2.579,-1.08 3.993,-1.08 h 19.821 c 9.775,0 19.316,3.018 27.344,8.649 l 9.728,6.824 c 4.617,-9.182 14.056,-15.473 24.949,-15.473 h 14.035 c 4.413,0 7.99,3.613 7.99,8.07 v 0.407 c 5.076,-5.231 12.15,-8.477 19.974,-8.477 h 43.944 c 1.455,0 2.82,0.393 3.995,1.079 1.175,-0.686 2.54,-1.079 3.995,-1.079 h 55.929 c 26.47,0 47.94,21.679 47.94,48.421 v 56.491 c 0,4.457 -3.58,8.07 -7.99,8.07 h -32.07 c -4.42,0 -7.99,-3.613 -7.99,-8.07 v -12.095 h -15.92 v 12.095 c 0,4.457 -3.577,8.07 -7.99,8.07 h -31.909 c -4.413,0 -7.99,-3.613 -7.99,-8.07 v -0.408 c -5.075,5.232 -12.15,8.478 -19.974,8.478 h -43.944 c -1.455,0 -2.82,-0.393 -3.995,-1.079 -1.175,0.686 -2.539,1.079 -3.995,1.079 h -22.197 c -9.252,0 -18.306,-2.704 -26.07,-7.786 l -10.421,-6.821 c -4.55,8.688 -13.589,14.607 -23.996,14.607 h -13.193 c -1.455,0 -2.82,-0.393 -3.996,-1.08 -1.204,0.702 -2.58,1.08 -3.994,1.08 l -31.949,-10e-4 c -4.412,0 -7.989,-3.613 -7.989,-8.07 v -7.988 l -15.993,0.001 v 7.988 c 0,4.457 -3.577,8.07 -7.989,8.07 H 666.7 c -1.456,0 -2.82,-0.393 -3.995,-1.079 -1.176,0.686 -2.54,1.079 -3.995,1.079 h -28.316 c -5.994,0 -11.303,-2.963 -14.569,-7.517 l -0.719,2.093 c -1.115,3.247 -4.145,5.424 -7.548,5.424 h -36.311 c -4.112,0 -7.498,-3.137 -7.941,-7.171 -5.007,4.512 -11.581,7.171 -18.619,7.171 h -30.006 c -2.578,0 -4.996,-1.255 -6.497,-3.372 -1.5,-2.117 -1.897,-4.834 -1.067,-7.299 l 23.423,-69.495 c 6.613,-19.622 24.859,-32.816 45.381,-32.816 h 18.588 c 4.267,0 7.752,3.377 7.978,7.629 l 2.982,-1.653 c 7.07,-3.921 15.005,-5.976 23.071,-5.976 h 30.17 c 4.412,0 7.99,3.613 7.99,8.07 v 13.576 c 8.588,-13.048 23.274,-21.646 39.948,-21.646 z m -168.067,21.26 v -13.19 h -18.588 c -17.102,0 -32.307,10.995 -37.818,27.347 l -23.422,69.495 h 30.006 c 8.231,0 15.572,-5.092 18.57,-12.744 0.153,-0.388 0.294,-0.784 0.423,-1.185 l 7.567,-23.475 v 37.404 h 36.311 l 12.849,-37.404 v 27.316 c 0,5.572 4.471,10.088 9.987,10.088 h 28.316 v -96.842 h -30.17 c -6.722,0 -13.334,1.713 -19.226,4.98 z m 104.147,67.594 31.971,-0.002 v 16.059 l 31.949,0.001 v -96.842 h -55.928 c -22.063,0 -39.948,18.066 -39.948,40.351 v 56.491 h 31.956 z m 102.355,5.107 c 1.209,-2.535 1.887,-5.378 1.887,-8.381 l 19.623,12.844 c 6.47,4.235 14.015,6.488 21.725,6.488 h 22.197 v -96.842 h -14.035 c -8.177,0 -15.206,4.963 -18.297,12.069 -1.079,2.481 -1.677,5.223 -1.677,8.106 v 0.542 l -19.26,-13.509 c -6.69,-4.693 -14.641,-7.208 -22.787,-7.208 h -19.821 v 96.842 h 13.193 c 7.597,0 14.161,-4.471 17.252,-10.951 z m 137.34,-9.224 v -76.667 h -43.944 c -11.031,0 -19.974,9.033 -19.974,20.175 v 76.667 h 43.944 c 11.031,0 19.974,-9.033 19.974,-20.175 z m 39.899,0.01 h 31.9 v 20.165 h 32.07 v -56.491 c 0,-22.285 -17.89,-40.351 -39.95,-40.351 H 946.341 V 466.43 H 978.25 Z M 730.618,413.943 c 0,0 -0.938,-13.348 -14.969,-13.348 h -2.903 c -7.624,0 -14.092,5.741 -14.092,13.348 v 12.193 h 31.964 z m -7.99,4.122 v -3.633 c -0.025,-0.15 -0.066,-0.368 -0.131,-0.633 -0.174,-0.707 -0.473,-1.572 -0.948,-2.369 -0.716,-1.201 -2.007,-2.765 -5.9,-2.765 h -2.903 c -3.858,0 -6.102,2.754 -6.102,5.278 v 4.122 z m 273.544,-9.4 h -2.904 c -3.893,0 -5.184,1.564 -5.9,2.765 -0.475,0.797 -0.774,1.662 -0.947,2.369 -0.065,0.265 -0.107,0.483 -0.131,0.633 v 3.633 h 15.98 v -4.122 c 0,-2.524 -2.24,-5.278 -6.098,-5.278 z m 14.088,5.278 c 0,-7.607 -6.46,-13.348 -14.088,-13.348 h -2.904 c -14.03,0 -14.968,13.348 -14.968,13.348 v 12.193 h 31.96 z"
         id="path15-7" /></mask></defs><g
     inkscape:label="Ebene 1"
     inkscape:groupmode="layer"
     id="layer1"><circle
       style="fill:#ffffff;stroke-width:0.430048;fill-opacity:0"
       id="path1546"
       cx="135.46666"
       cy="135.46666"
       r="99.347427" /><g
       id="g2799"
       transform="matrix(0.84064704,0,0,0.84064704,135.23637,4.3249365)"><path
         fill="#a4c639"
         d="m 21.481,0.65239 4.062,7.0627 c -7.394,3.6269 -12.406,10.728 -12.406,18.875 h 23.656 23.656 c 0,-8.1468 -5.012,-15.248 -12.406,-18.875 l 4.063,-7.0626 c 0,0 0.19231,-0.37509 -0.17225,-0.58569 -0.365,-0.21059 -0.61,0.14869 -0.61,0.14869 l -4.125,7.1248 c -3.141,-1.3979 -6.6721,-2.1875 -10.406,-2.1875 -3.7341,0 -7.2653,0.7896 -10.406,2.1875 l -4.125,-7.1248 c 0,0 -0.23006,-0.35939 -0.59737,-0.14971 -0.368,0.20967 -0.184,0.58671 -0.184,0.58671 z m 4.062,13.68 c 1.2395,0 2.25,1.0105 2.25,2.25 -10e-6,1.2395 -1.0105,2.2188 -2.25,2.2188 -1.2395,0 -2.25,-0.97928 -2.25,-2.2188 0,-1.23952 1.0105,-2.25 2.25,-2.25 z m 22.5,0 c 1.2395,0 2.25,1.0105 2.25,2.25 -10e-6,1.2395 -1.0105,2.2188 -2.25,2.2188 -1.2395,0 -2.25,-0.97928 -2.25,-2.2188 0,-1.23952 1.0105,-2.25 2.25,-2.25 z"
         id="path2781-6" /><path
         d="m 12.947,29.344 v 35.893 c 0,1.7807 2.1523,4.1116 3.933,4.1116 h 5.6295 v 12.237 c 0,3.1162 2.2691,5.625 5.0938,5.625 2.8246,0 5.0938,-2.5088 5.0938,-5.625 v -12.237 h 8.1875 v 12.237 c 0,3.1162 2.2691,5.625 5.0938,5.625 2.8246,0 5.125,-2.5088 5.125,-5.625 v -12.237 h 5.5982 c 1.7807,0 3.933,-2.3309 3.933,-4.1116 V 29.344 h -47.688 z"
         fill="#a4c639"
         id="path2783" /><rect
         ry="5.625"
         height="32.544998"
         width="10.197"
         y="28.593"
         x="0"
         fill="#a4c639"
         id="rect2785" /><rect
         rx="5.625"
         height="32.544998"
         width="10.197"
         y="28.593"
         x="63.389999"
         fill="#a4c639"
         id="rect2787" /></g><path
       d="m 84.344621,97.319452 c -1.09632,2.53273 -2.39401,4.864098 -3.89754,7.007518 -2.04945,2.92204 -3.7275,4.94464 -5.02071,6.06782 -2.0047,1.84361 -4.1526,2.78779 -6.45265,2.84149 -1.65119,0 -3.64247,-0.46986 -5.96042,-1.42298 -2.32554,-0.94866 -4.4627,-1.41851 -6.41684,-1.41851 -2.04945,0 -4.24747,0.46985 -6.59853,1.41851 -2.35463,0.95312 -4.2515,1.44983 -5.70177,1.49905 -2.20563,0.094 -4.40409,-0.87706 -6.59853,-2.91756 -1.40061,-1.22162 -3.15249,-3.31582 -5.25117,-6.28261 -2.25171,-3.16815 -4.10293,-6.841948 -5.55321,-11.030348 -1.5532,-4.52402 -2.33181,-8.90483 -2.33181,-13.14604 0,-4.85828 1.04978,-9.04847 3.15249,-12.55984 1.65254,-2.82046 3.851,-5.04532 6.60255,-6.67862 2.75155,-1.6333 5.7246,-2.46561 8.92631,-2.51886 1.75188,0 4.04924,0.5419 6.90415,1.6069 2.84686,1.06858 4.67482,1.61047 5.47625,1.61047 0.59917,0 2.62984,-0.63363 6.07229,-1.89686 3.25541,-1.1715 6.00293,-1.65657 8.25375,-1.4655 6.09914,0.49223 10.68132,2.89654 13.72865,7.22813 -5.45477,3.30508 -8.15306,7.93425 -8.09937,13.87274 0.0492,4.62559 1.72727,8.47481 5.02519,11.53109 1.49458,1.41851 3.16368,2.51483 5.02071,3.29344 -0.40272,1.16792 -0.82783,2.28662 -1.27979,3.36057 z m -13.98819,-55.04438 c 0,3.62552 -1.32453,7.01065 -3.96466,10.1439 -3.18605,3.72481 -7.03973,5.87718 -11.21874,5.53755 -0.0532,-0.43495 -0.0841,-0.89272 -0.0841,-1.37376 0,-3.48049 1.51517,-7.20531 4.20586,-10.25085 1.34333,-1.54201 3.0518,-2.82417 5.12363,-3.84698 2.06735,-1.00754 4.02284,-1.56473 5.86197,-1.66015 0.0537,0.48467 0.0761,0.96938 0.0761,1.45024 z"
       id="path4"
       inkscape:connector-curvature="0"
       style="fill:#ffffff;stroke-width:0.061063" /><path
       d="m 22.659814,209.58283 h 5.414429 v -23.04916 h -5.414429 z m 2.69636,-26.07184 c 1.696094,0 3.022508,-1.3047 3.022508,-2.93549 0,-1.65263 -1.326414,-2.95727 -3.022508,-2.95727 -1.674329,0 -3.000743,1.3047 -3.000743,2.95727 0,1.63085 1.326414,2.93549 3.000743,2.93549 z m 20.745125,-5.82769 c -9.154308,0 -14.895164,6.24073 -14.895164,16.22169 0,9.98095 5.740299,16.19999 14.895164,16.19999 9.132598,0 14.873454,-6.21904 14.873454,-16.19999 0,-9.98096 -5.740299,-16.22169 -14.873454,-16.22169 z m 0,4.78385 c 5.58833,0 9.154308,4.43593 9.154308,11.43773 0,6.97999 -3.566089,11.41602 -9.154308,11.41602 -5.61004,0 -9.154308,-4.43593 -9.154308,-11.41602 0,-7.0017 3.544379,-11.43773 9.154308,-11.43773 z m 17.157437,18.28746 c 0.239193,5.78427 4.979511,9.35024 12.198705,9.35024 7.588959,0 12.372919,-3.74009 12.372919,-9.69816 0,-4.67506 -2.69636,-7.30618 -9.06747,-8.76297 l -3.609613,-0.82632 c -3.848824,-0.91325 -5.436147,-2.13095 -5.436147,-4.21842 0,-2.60937 2.391923,-4.34893 5.936249,-4.34893 3.587851,0 6.044791,1.76134 6.305871,4.69683 h 5.34919 c -0.13044,-5.52314 -4.69685,-9.26341 -11.611426,-9.26341 -6.828014,0 -11.677096,3.76181 -11.677096,9.32855 0,4.47939 2.739833,7.26275 8.523615,8.58929 l 4.066246,0.95678 c 3.957531,0.93503 5.566611,2.23969 5.566611,4.50113 0,2.60934 -2.63112,4.47939 -6.414407,4.47939 -3.827055,0 -6.718915,-1.89176 -7.066828,-4.78383 h -5.436139 z"
       id="path2807"
       style="stroke-width:0.556661;stroke:none;stroke-opacity:1;fill:#ffffff;fill-opacity:1" /><g
       id="g4472"
       transform="matrix(0.03305676,0,0,0.03305676,168.90634,225.70156)"><path
         inkscape:connector-curvature="0"
         id="path3216"
         style="fill:#2e3336;fill-rule:evenodd"
         d="m -330.39862,-790.23755 c -19.3561,38.2588 -32.0973,85.297 -33.2063,142.9971 -4.7038,244.7445 10.657,206.8934 1.1753,319.1973 -3.4808,41.3314 -27.9815,101.761 -58.068,162.278 -34.5096,69.134001 -76.0911,138.108301 -101.7473,178.579701 -48.5016,76.49886 -105.5389,156.043459 -145.3458,236.902059 -22.7551,45.8827 -40.0338,92.1933 -47.1108,138.6157 -4.7311,31.03072 -5.2806,71.15352 -4.2209,108.75562 -28.0548,24.373 -42.4649,65.4237 -71.2927,96.7193 -18.5943,20.1387 -54.5358,26.6795 -94.3696,34.3952 -34.1753,6.5408 -70.3366,19.844 -82.9777,40.203 -1.4113,2.2713 -2.687,4.6264 -3.8579,7.0463 -28.78278,55.4174 6.4447,150.53 -10.7365,220.89 -7.2756,29.9134 -19.69678,58.0626 -19.91848,83.8598 -0.075,13.3036 2.93918,27.41427 12.20108,43.43677 10.142,17.6398 32.4124,30.2068 64.0901,41.1582 29.546,10.2165 67.9117,19.1837 112.5238,29.6935 l 15.4353,3.6013 c 20.0639,4.7783 40.0555,9.5548 60.2669,13.5979 13.1561,2.7193 20.8009,4.0417 27.3398,5.2184 28.4424,5.0712 39.2466,7.0554 115.096,36.6744 18.3017,7.1299 38.5858,14.7728 60.047,21.3136 42.4077,13.1561 90.3282,22.7109 134.5743,14.7002 22.4176,-4.0414 43.5841,-12.5685 62.399,-27.2668 19.4766,-15.2133 38.2185,-35.7194 51.5217,-56.5185 3.5563,-5.5469 6.8445,-11.2885 9.7239,-17.197 2.5232,-4.9863 4.7632,-10.0953 6.6333,-15.3101 1.7827,-4.7531 3.2688,-9.6847 4.3515,-14.635 17.8459,-8.8988 62.0064,-22.3262 167.149901,-23.3435 158.46006,-1.544 264.001159,55.638 264.001159,55.638 l 0.075,-1.1749 c 1.3224,7.4972 2.9395,14.4781 4.9981,21.1664 3.0141,9.7747 7.0558,18.7419 12.494,27.4144 5.5131,8.5994 12.3486,16.7573 21.0211,24.7695 9.4072,8.6724 20.726,16.6846 33.6622,23.5198 12.0535,6.3209 25.577,11.612 40.4229,15.5079 13.5234,3.5286 28.1491,5.8805 43.65695,6.6153 14.48,0.7348 29.6187,0.074 45.4214,-2.2047 26.6796,-3.8215 47.2584,-12.2738 64.9707,-23.2251 17.2723,-10.657 31.3834,-23.4457 45.7888,-36.5273 l 0.4419,-0.3673 v 0 c 9.4818,-8.5998 19.1092,-17.345 29.7662,-25.3572 7.1284,-5.3655 13.6707,-10.3641 19.9186,-15.2132 9.2601,-7.1299 14.4057,-11.1716 19.6241,-15.2878 15.6552,-12.2737 31.8231,-25.0624 47.9932,-37.1163 16.7573,-12.4213 34.5427,-25.0625 53.8736,-37.4093 14.6257,-9.4073 31.0887,-20.06427 46.891,-30.42657 16.3172,-10.7314 33.3675,-21.9757 49.4631,-33.0001 28.749,-19.5266 68.4262,-43.729 83.4571,-75.1656 5.0201,-9.725 7.7153,-20.1488 6.9859,-31.3539 -2.3516,-35.9396 -44.9065,-68.3521 -82.5359,-100.5447 -18.3018,-15.7278 -36.7489,-31.3089 -46.3764,-47.2584 -7.7902,-12.8613 -17.1992,-32.2653 -19.844,-46.3764 -7.4278,-39.1314 -7.2692,-68.365 -25.7973,-94.2141 -17.0034,-23.7223 -31.8655,-30.5463 -58.0726,-33.5071 -3.9283,-0.4437 -7.6213,-0.9949 -11.2014,-1.5768 17.0254,-62.68 20.8311,-102.4753 17.7163,-154.98192 -7.1154,-119.9476 -85.6423,-256.4252 -174.4823,-394.714459 -52.4263,-86.597001 -107.5943,-167.860101 -142.11075,-224.947501 -18.8706,-31.7184 -29.6831,-52.6023 -39.5383,-80.229 -11.3591,-31.841 -15.2939,-109.1017 -16.6127,-233.6772 4.7038,-190.8726 -54.3882,-278.9942 -125.9001,-333.9704 -71.513299,-54.9759 -176.467159,-54.0939 -214.31826,-50.787 v 0 0 l -0.001,-10e-4 c -31.7335,2.7668 -165.2251,34.7885 -227.5283,160.4219 z" /><path
         inkscape:connector-curvature="0"
         id="path3218"
         style="fill:#fcc624;fill-rule:evenodd"
         d="m -806.04782,629.30093 c -37.6059,18.0678 -124.2004,17.7004 -145.2071,53.6907 -23.0626,39.5874 -8.1523,83.4369 -7.9325,133.9701 0.0744,35.7682 -0.5143,75.5788 -15.5701,117.9578 -12.34,34.8887 -16.5262,47.2273 1.1741,77.92927 17.7008,30.7755 94.527,45.5385 198.4563,70.3644 104.0022,24.753 70.8768,6.4635 187.2934,51.9275 72.1256,28.2031 173.9246,62.7988 239.881,11.3113 24.3115,-19.0237 64.1931,-62.0628 66.618,-104.0022 1.3957,-23.9445 -0.809,-49.50457 -6.5368,-65.00207 -19.0236,-51.7107 -57.0695,-73.8175 -93.2048,-127.8753 -66.178,-100.4047 -136.4675,-195.5929 -192.6556,-279.1772 -39.6618,-59.1254 -71.5384,-73.4485 -98.4946,-68.7479 -82.8497,14.6158 -56.1137,90.3404 -133.8228,127.6536 v 0 0 h 10e-4 z" /><path
         inkscape:connector-curvature="0"
         id="path3220"
         style="fill:#fcc624;fill-rule:evenodd"
         d="m 247.76254,543.81853 c -36.4924,25.7812 -28.5889,103.0533 -30.73,143.7566 -3.2506,62.2751 -3.6946,131.7155 -5.8357,159.3434 -3.5465,45.7266 -38.1926,149.0013 -33.9807,197.75747 4.1372,48.6828 7.6822,77.1973 37.97,105.1211 30.3609,27.9238 83.7715,48.7557 149.73965,39.2257 65.9687,-9.5304 90.9362,-50.5296 133.7104,-82.589 42.6974,-32.0609 86.6528,-70.1054 143.0911,-106.3036 56.4378,-36.27137 147.3026,-95.66587 160.378,-111.69557 13.0754,-16.1041 21.9399,-29.9912 12.4847,-51.1198 -9.3822,-21.1282 -42.3282,-53.7798 -78.3052,-83.4771 -93.8176,-77.5664 -53.3145,-149.6682 -92.4882,-187.7845 -11.9511,-12.8767 -20.8323,-19.9731 -34.7031,-22.7976 -74.8757,-15.2487 -95.4459,14.1606 -139.4109,9.8396 -47.4058,-4.6579 -29.5833,5.764 -126.8984,-7.2218 -33.49775,-3.8051 -71.89705,-17.0693 -95.02165,-2.0579 v 0 z" /><path
         inkscape:connector-curvature="0"
         id="path3222"
         style="fill:#fcc624;fill-rule:evenodd"
         d="m -310.71672,-315.63265 c 0.8476,0.896 0.5317,2.4828 1.4742,3.4211 11.0834,11.0389 23.9022,21.8597 35.0786,34.5205 12.8505,14.5579 24.6274,30.8412 35.5646,40.8189 20.1108,18.3467 39.2167,28.1514 67.1281,31.5963 53.9041,6.6533 94.206101,-8.2938 139.664201,-38.2742 21.3884,-14.1111 51.00706,-40.1289 68.13206,-52.9915 28.5164,-21.4617 36.6745,-19.7714 45.1266,-30.574 8.7469,-11.2445 13.0089,-40.6433 10.4369,-54.5341 -2.0573,-10.7313 -5.8061,-17.8596 -17.419,-25.2098 -12.9363,-8.1577 -35.2052,-16.7569 -73.79120004,-29.839 l -0.072,-0.073 c -19.74562496,-7.21595 -40.08808396,-14.48653 -57.58525996,-21.1647 -39.1736,-15.2135 -64.698311,-26.74025 -100.322801,-23.8875 -16.38312,1.31193 -32.50951,4.83112 -46.3788,10.2154 v 0.0726 c -26.09551,10.97666 -51.34957,27.85684 -72.0774,42.3751 -18.2273,12.7156 -36.8964,29.6188 -47.7006,46.9656 -6.4035,10.2641 -16.5395,31.4417 -7.0841,43.618 0.025,0.0314 24.1498,12.3899 48.3656,26.71 39.1494,23.1499 83.8691,35.1066 123.7966,32.8827 31.7572,-1.7686 67.204301,-11.7988 92.799901,-24.1184 25.7608,-12.3997 57.4357,-31.9549 88.30976,-55.7778 4.7781,-3.5284 13.8795,-12.4654 19.5696,-15.1617 5.0174,-2.377 21.1908,-0.9981 20.4482,4.4944 -0.5816,4.3008 -19.5753,11.9775 -26.4217,17.0626 -33.7738,25.0843 -71.37486,49.6531 -95.81406,60.9172 -25.2498,11.6374 -67.745901,25.0737 -96.467901,26.769 -26.2399,1.5482 -48.5217,-1.3627 -71.3318,-9.0757 -22.0531,-7.4571 -35.1262,-13.9321 -58.6071,-27.4938 -7.4889,-4.3251 -14.6886,-7.9359 -24.8239,-14.2642 z"
         sodipodi:nodetypes="cccssccccccccsccccccscccccscsccc" /><path
         id="path3224"
         transform="translate(-160,-342.63782)"
         d="m 168.86133,-303.74805 c -43.02229,-0.50889 -84.568283,32.86875 -98.226564,77.86133 -11.312176,37.53429 -10.798824,67.35751 -8.962891,83.66602 v 0.002 c 12.636,3.8195 25.782597,8.81644 40.841795,14.61914 -9.329298,-21.0092 -8.66597,-48.26223 3.67383,-70.74023 17.6298,-32.2475 52.5216,-42.60476 77.9375,-23.06446 25.343,19.5387 31.65963,61.48297 13.95703,93.73047 -6.3916,11.6798 -15.05936,20.49347 -24.75586,26.07617 16.8209,5.802804 30.33781,10.723982 41.28321,15.205082 14.1194,-17.924202 32.81711,-46.516982 40.69531,-70.958982 12.8188,-39.7682 2.93949,-110.33067 -50.53711,-137.50977 -11.69802,-5.9451 -23.86001,-8.74423 -35.90625,-8.88672 z m -281.29883,19.13672 c -6.85387,-0.0123 -14.18989,1.26835 -22.01758,4 h -0.002 c -33.9363,11.8254 -46.86493,68.90194 -34.89063,120.61524 6.6116,28.5008 18.28942,55.60523 35.69922,72.427731 3.5994,-2.7905 7.27141,-5.50816 10.94532,-8.00586 2.86329,-2.0561 5.72743,-4.040572 8.51953,-5.951171 -21.9636,-10.7238 -36.43268,-43.99859 -32.61329,-76.24609 3.96661,-33.5691 26.29726,-53.40281 49.876958,-44.22071 23.5798,9.1821 39.445216,43.927 35.478516,77.4961 -0.5128,4.4067 -1.320175,8.59448 -2.421875,12.48828 6.9772,-3.5994 13.294675,-6.46449 19.171875,-8.74219 1.4705,-0.5872 2.863765,-1.17719 4.259765,-1.61719 2.2034,-16.8953 1.910229,-35.33288 -1.763671,-53.77148 -10.288941,-50.6353 -33.231279,-88.40644 -70.242188,-88.47266 z M 244.35938,29.890625 c -8.08051,4.1867 -22.18539,10.062981 -43.70899,26.738281 -15.6449,12.1943 -44.58583,37.536672 -66.76953,52.888674 -14.485,10.0282 -30.33915,18.69868 -45.935548,25.48828 -22.4457,9.7742 -44.357593,15.65439 -60.871093,16.08789 -59.1969,3.1303 -87.355803,-11.531 -114.345703,-39.6582 -11.3207,-11.797903 -19.896636,-24.723044 -34.177736,-40.494144 -6.3269,-6.9869 -15.08121,-16.269837 -24.00781,-22.648437 -0.2426,7.7521 -25.09527,173.206511 -58.54297,246.349611 -33.4478,73.1432 -31.80716,48.29118 -54.28516,124.74414 -31.217,28.3261 -65.4392,104.43025 -87.9707,169.93945 -23.24337,76.90817 -40.85403,136.21015 -42.30859,222.35742 -11.61678,-23.15359 -19.9724,-48.06233 -23.25586,-75.15625 -11.5708,-95.14262 13.61684,-208.62466 88.81054,-290.31836 3.1833,-3.45875 3.11719,-4.87262 1.70508,-4.7832 -1.0983,0.0696 -3.01141,1.04887 -4.84375,2.6836 -93.9076,83.78639 -116.23582,238.32598 -106.57812,307.375 6.90432,49.36533 19.78295,91.95939 45.98633,126.58789 0.006,0.0864 0.01,0.16936 0.0156,0.25585 0.44284,0.50504 0.89431,0.9975 1.3418,1.4961 6.87913,8.86582 14.6379,17.20908 23.43554,24.99023 7e-4,6.2e-4 0.001,0.001 0.002,0.002 15.33928,16.93571 34.48999,35.42083 73.49414,65.06445 71.7794,54.5524 122.08362,83.3556 131.98242,118.832 13.1763,47.2242 -16.35835,78.454 -53.18555,97.6562 26.9268,26.9413 112.884463,82.1363 269.630862,75.2383 138.042358,-6.0745 224.608608,-58.3186 298.503908,-148.459 0.4724,-20.7423 2.74233,-55.4521 3.76953,-92.9199 0.9804,-35.78204 1.18806,-71.61559 6.66406,-99.40619 1.2893,-6.5404 3.75665,-12.73474 5.96485,-18.18165 9.0155,-22.23859 33.27904,-37.38856 56.49804,-38.48046 12.2072,-0.5743 25.02059,-1.45742 37.27149,1.08398 2.26451,-17.69576 4.02553,-34.71702 5.26367,-51.26367 15.81778,-4.58671 43.63633,-8.9148 77.05469,-10.0293 51.78218,-1.72719 113.80857,3.10453 145.1289,22.7461 -6.97784,-6.10311 -15.53007,-11.48697 -24.63867,-15.84571 -36.64316,-17.53479 -86.83108,-23.4338 -137.98633,-25.02344 13.67043,-36.28974 27.80057,-88.34263 26.30274,-127.28124 -3.9318,-102.20142 -54.73457,-180.9247 -127.13672,-235.6836 -1.7989,-1.36035 -3.55094,-2.39214 -4.23047,-2.49414 -0.67953,-0.102 -0.28757,0.72624 2.20703,3.08789 83.84575,79.3682 111.87312,169.76136 104.88672,257.47266 -2.72673,34.23235 -17.58189,73.03581 -34.58203,104.39062 -7.96625,-0.013 -17.36283,0.40155 -25.40039,0.54492 4.06232,-107.43022 -17.05786,-197.562 -76.93946,-323.04687 -5.72989,-10.871 -33.13619,-56.97733 -49.49609,-69.99024 -12.7848,-62.54865 -14.46917,-59.47983 -40.04687,-116.74023 -38.791,-86.8387 -52.84869,-187.212265 -64.67578,-246.197265 z"
         style="fill:#f5f5f5;fill-rule:evenodd"
         inkscape:connector-curvature="0" /><path
         inkscape:connector-curvature="0"
         id="path3232"
         style="fill:#2e3336;fill-rule:evenodd"
         d="m 552.04329,533.16883 c 1.2894,-2.4213 3.9011,-12.131 4.0987,-14.1028 4.9336,-49.1717 -90.7214,-60.2361 -165.1752,-57.7527 -33.7841,1.1267 -60.1135,5.1112 -75.8376,9.7535 -27.39375,8.0874 -40.88215,26.6398 -43.91705,49.8496 -6.1438,46.9864 7.7988,146.2455 54.41945,167.962 48.2104,22.4565 121.2194,-9.5981 164.3174,-57.9495 29.184,-32.7403 47.7684,-70.8593 62.0943,-97.7601 z" /><path
         inkscape:connector-curvature="0"
         id="path3234"
         style="fill:#2e3336;fill-opacity:1;fill-rule:evenodd"
         d="m -180.55522,-456.53795 c -3.1597,-4.7033 -16.3174,-2.2787 -22.6382,0 -6.2478,2.3521 -11.0985,9.1876 -8.525,13.8184 1.3222,2.3516 4.189,3.5284 6.3933,3.0867 3.3814,-0.7351 6.9828,-4.4838 11.5392,-7.9379 4.8511,-3.7487 11.9065,-7.0554 13.2288,-8.9672 v 0 z" /><path
         inkscape:connector-curvature="0"
         id="path3236"
         style="fill:#2e3336;fill-opacity:1;fill-rule:evenodd"
         d="m -139.69212,-456.39055 c -1.9114,-1.9843 21.3885,-6.7625 30.5741,0.4403 9.259701,7.2028 8.6725,12.8615 5.8801,15.8752 -2.9393,3.0867 -30.0605,-13.7435 -36.4542,-16.317 v 10e-4 z" /></g><g
       style="fill:#0078d6"
       id="g3104"
       transform="matrix(0.7832656,0,0,0.7832656,200.62454,101.15963)"><path
         d="M 0,12.5 35.7,7.6 V 42.1 H 0 M 40,6.9 87.3,0 V 41.8 H 40 M 0,45.74 h 35.7 v 34.6 L 0,75.34 M 40,46.2 H 87.3 V 87.6 L 40,80.9"
         id="path2673-0"
         sodipodi:nodetypes="cccccccccccccccc" /></g><g
       style="fill:none"
       id="g499"
       transform="matrix(0.26458333,0,0,0.26458333,71.471046,71.269001)"><g
         id="g4279"
         inkscape:label="mic-g"
         style="display:inline"
         transform="translate(-12.936549,-5.024998)"><path
           style="display:none;fill:#ffffff;stroke:none;stroke-width:1px;stroke-linecap:butt;stroke-linejoin:miter;stroke-opacity:1"
           d="m 89.851113,363.94537 51.373207,-16.01242 52.7076,-44.03416 35.3607,-15.34524 -52.7075,-34.0264 -24.3523,-61.04736 22.6843,-47.70367 37.6959,-18.34757 36.3616,-1.66796 c 0,0 23.685,11.67572 25.353,12.6765 1.6679,1.00078 21.0163,28.35533 21.0163,28.35533 l 15.0116,41.36543 28.3553,-35.02718 48.0373,-42.3662 23.3515,-50.03883 17.6803,12.34291 7.0055,45.03495 19.3483,24.68582 -2.0015,37.02872 -5.0039,5.33748 8.3398,29.02251 0.6672,27.68815 -19.3484,37.69591 -23.3514,20.01553 -4.0031,7.33903 12.6765,25.68659 11.0085,16.34602 c 0,0 -9.007,27.35455 -9.007,29.02251 0,1.66796 -9.007,15.34524 -13.0101,17.34679 -4.0031,2.00156 -29.0225,12.34291 -29.0225,12.34291 l -23.0178,-5.67106 -29.3561,-28.35534 -32.6921,31.69126 -39.6974,11.00854 -40.0311,-10.00777 -12.3429,-10.67494 -16.6796,8.3398 -32.692,-9.34058 -17.6804,-19.68194 -20.3491,-7.67262 -22.684307,-12.6765 -10.3414,-7.33902 z"
           id="path2464"
           inkscape:label="mic-filling" /><path
           d="m 207.704,160.524 c 2.967,2.698 3.207,7.314 0.536,10.31 -2.714,3.046 -4.676,6.697 -5.726,10.655 -1.05,3.957 -1.158,8.11 -0.315,12.118 0.843,4.008 2.613,7.758 5.166,10.943 2.552,3.184 5.815,5.714 9.52,7.381 3.647,1.641 5.286,5.957 3.661,9.64 -1.624,3.683 -5.897,5.339 -9.543,3.698 -5.789,-2.605 -10.886,-6.557 -14.874,-11.532 -3.987,-4.976 -6.753,-10.834 -8.07,-17.095 -1.317,-6.262 -1.149,-12.749 0.492,-18.933 1.64,-6.183 4.705,-11.886 8.946,-16.644 2.67,-2.996 7.241,-3.239 10.207,-0.541 z"
           fill="#ffffff"
           id="path24"
           inkscape:label="obsolete-micReflex-inner"
           style="display:none"
           sodipodi:insensitive="true"
           transform="rotate(44.936079,208.58847,198.15795)" /><path
           d="m 207.704,160.524 c 2.967,2.698 3.207,7.314 0.536,10.31 -2.714,3.046 -4.676,6.697 -5.726,10.655 -1.05,3.957 -1.158,8.11 -0.315,12.118 0.843,4.008 2.613,7.758 5.166,10.943 2.552,3.184 5.815,5.714 9.52,7.381 3.647,1.641 5.286,5.957 3.661,9.64 -1.624,3.683 -5.897,5.339 -9.543,3.698 -5.789,-2.605 -10.886,-6.557 -14.874,-11.532 -3.987,-4.976 -6.753,-10.834 -8.07,-17.095 -1.317,-6.262 -1.149,-12.749 0.492,-18.933 1.64,-6.183 4.705,-11.886 8.946,-16.644 2.67,-2.996 7.241,-3.239 10.207,-0.541 z"
           stroke="#f79009"
           stroke-width="8"
           stroke-linecap="round"
           stroke-linejoin="round"
           id="path28"
           style="display:none;opacity:1"
           inkscape:label="obsolete-micReflex-outer"
           sodipodi:insensitive="true"
           transform="rotate(44.936079,208.58847,198.15795)" /><path
           fill-rule="evenodd"
           clip-rule="evenodd"
           d="m 316.378,203.255 c -0.58,-19.52 -7.569,-38.97 -21.212,-54.885 -31.482,-36.724 -86.476,-40.717 -122.834,-8.918 -36.358,31.799 -40.31,87.347 -8.829,124.071 13.643,15.915 31.702,25.683 50.747,29.054 -26.095,4.242 -41.059,20.332 -54.321,34.591 -3.594,3.865 -7.065,7.597 -10.597,10.921 -9.145,8.605 -25.704,14.829 -41.128,18.895 -7.511,1.981 -14.3981,3.362 -19.4096,4.248 -2.5017,0.442 -4.5258,0.759 -5.9142,0.964 -0.6939,0.103 -1.2283,0.177 -1.5833,0.225 -0.1774,0.024 -0.31,0.042 -0.3952,0.053 l -0.0919,0.012 -0.0187,0.002 c -2.5924,0.322 -4.806,2.044 -5.7772,4.493 -0.9712,2.449 -0.5463,5.238 1.1088,7.279 l 0.3512,0.422 c 0.205,0.244 0.4971,0.585 0.8719,1.011 0.7492,0.852 1.8318,2.044 3.2147,3.469 2.7589,2.842 6.749,6.646 11.7036,10.515 9.1359,7.134 22.1999,15.002 37.2819,16.777 1.122,1.263 2.682,2.946 4.628,4.865 4.143,4.088 10.14,9.354 17.464,13.905 13.563,8.428 32.849,15.002 53.061,5.222 1.708,1.309 3.931,2.895 6.62,4.566 6.628,4.122 16.233,8.856 28.041,11.161 24.193,4.724 55.956,-1.082 88.63,-38.435 0.101,-0.116 0.198,-0.234 0.291,-0.354 l 25.512,23.851 c 3.146,3.327 7.169,5.711 11.699,6.202 11.096,1.201 33.494,1.199 51.233,-14.316 17.872,-15.631 20.5,-37.809 20.602,-48.755 0.041,-4.358 -1.684,-8.448 -4.346,-11.878 l -20.417,-28.819 c 0.131,-0.075 0.261,-0.156 0.389,-0.24 41.273,-27.322 51.504,-58.245 50.335,-83.106 -0.57,-12.134 -3.835,-22.413 -6.925,-29.628 -1.254,-2.928 -2.49,-5.376 -3.528,-7.271 12.473,-18.807 8.79,-39.027 2.471,-53.792 -3.411,-7.972 -7.714,-14.72 -11.127,-19.446 -1.602,-2.22 -3.028,-4.021 -4.105,-5.323 0.417,-15.33 -5.424,-29.515 -11.108,-39.6692 -3.083,-5.5064 -6.238,-10.039 -8.629,-13.2036 -1.198,-1.5862 -2.212,-2.8391 -2.939,-3.7098 -0.364,-0.4356 -0.657,-0.7764 -0.866,-1.0162 l -0.364,-0.4115 c -1.763,-1.9465 -4.435,-2.77 -6.973,-2.1494 -2.539,0.6207 -4.542,2.5874 -5.229,5.1329 l -0.005,0.0183 -0.025,0.0902 c -0.023,0.0836 -0.059,0.2136 -0.108,0.3876 -0.098,0.348 -0.247,0.8716 -0.447,1.5506 -0.399,1.3586 -0.999,3.3368 -1.79,5.7745 -1.585,4.8832 -3.924,11.571 -6.938,18.7956 -6.19,14.838 -14.657,30.502 -24.397,38.413 -3.762,3.056 -7.914,5.991 -12.216,9.032 -15.869,11.219 -33.775,23.877 -41.662,49.357 z m 10.644,20.194 76.795,98.95 c 0.376,-0.401 0.803,-0.764 1.279,-1.079 37.416,-24.769 44.782,-51.019 43.875,-70.31 -0.467,-9.941 -3.158,-18.482 -5.764,-24.568 -0.159,-0.372 -0.318,-0.734 -0.476,-1.087 -3.507,3.957 -8.028,9.208 -12.684,15.021 -5.018,6.264 -10.122,13.092 -14.271,19.6 -4.238,6.646 -7.124,12.412 -8.193,16.65 -0.978,3.874 -4.88,6.214 -8.715,5.226 -3.836,-0.987 -6.152,-4.929 -5.174,-8.803 1.659,-6.575 5.586,-13.942 10.031,-20.913 4.533,-7.109 9.984,-14.382 15.179,-20.867 5.207,-6.501 10.23,-12.299 13.946,-16.469 1.861,-2.087 3.4,-3.772 4.477,-4.94 0.539,-0.584 0.963,-1.039 1.255,-1.351 0.097,-0.103 0.18,-0.191 0.247,-0.263 11.05,-13.898 9.058,-29.46 3.32,-42.869 -1.829,-4.276 -3.991,-8.187 -6.097,-11.538 -3.095,7.406 -8.121,14.613 -15.59,21.283 -20.182,18.022 -32.124,33.723 -38.972,44.738 -3.426,5.512 -5.584,9.861 -6.864,12.757 -0.64,1.449 -1.06,2.534 -1.31,3.221 -0.125,0.344 -0.208,0.587 -0.253,0.727 l -0.025,0.074 -0.017,0.057 -0.002,0.004 c -1.135,3.813 -5.109,5.986 -8.894,4.856 -3.796,-1.133 -5.963,-5.16 -4.841,-8.994 l 0.17,-0.545 c 0.095,-0.288 0.229,-0.681 0.408,-1.175 0.36,-0.987 0.902,-2.375 1.676,-4.126 1.548,-3.503 4.022,-8.455 7.814,-14.555 7.588,-12.206 20.426,-28.963 41.616,-47.886 10.011,-8.939 13.89,-18.441 14.65,-27.486 1.033,-12.307 -3.656,-24.693 -9.129,-34.469 -1.004,-1.793 -2.018,-3.4702 -3.004,-5.0124 -1.501,4.3274 -3.384,9.3994 -5.624,14.7684 -6.247,14.974 -15.846,33.694 -28.622,44.072 -4.845,3.936 -9.705,7.416 -14.409,10.784 -18.726,13.408 -34.96,25.033 -37.808,56.517 z m -8.534,173.579 -85.974,-90.922 c -31.257,-1.655 -44.969,12.912 -60.785,29.714 -3.973,4.22 -8.078,8.582 -12.627,12.862 -11.996,11.288 -31.712,18.207 -47.278,22.311 -5.581,1.471 -10.82,2.628 -15.2748,3.51 1.3702,1.206 2.8686,2.46 4.4818,3.72 8.797,6.869 20.262,13.328 32.469,14.055 8.971,0.534 18.837,-1.985 29.028,-10.714 21.572,-18.478 39.827,-28.915 52.873,-34.756 6.519,-2.918 11.725,-4.683 15.379,-5.73 1.826,-0.523 3.264,-0.866 4.283,-1.084 0.509,-0.109 0.913,-0.187 1.209,-0.24 l 0.558,-0.093 c 3.918,-0.573 7.553,2.169 8.121,6.126 0.566,3.945 -2.132,7.608 -6.031,8.197 l -0.004,0.001 c -0.018,0.003 -0.062,0.01 -0.134,0.023 -0.143,0.026 -0.394,0.073 -0.748,0.149 -0.709,0.152 -1.833,0.417 -3.344,0.85 -3.02,0.865 -7.591,2.401 -13.481,5.037 -11.773,5.271 -28.865,14.963 -49.411,32.562 -7.603,6.513 -15.385,10.506 -23.084,12.541 2.983,2.584 6.506,5.305 10.434,7.745 12.318,7.654 27.282,11.871 42.481,2.812 0.079,-0.057 0.177,-0.127 0.292,-0.209 0.348,-0.247 0.854,-0.606 1.503,-1.061 1.299,-0.911 3.17,-2.208 5.481,-3.769 4.617,-3.12 11.018,-7.312 18.132,-11.588 7.097,-4.265 15.003,-8.674 22.617,-12.189 7.467,-3.447 15.247,-6.319 21.927,-7.038 3.936,-0.423 7.466,2.456 7.886,6.432 0.419,3.975 -2.432,7.541 -6.368,7.965 -4.306,0.463 -10.368,2.522 -17.486,5.809 -6.971,3.217 -14.391,7.343 -21.246,11.463 -6.362,3.824 -12.153,7.592 -16.532,10.533 0.323,0.208 0.655,0.418 0.997,0.631 5.59,3.476 13.574,7.387 23.249,9.276 18.772,3.665 45.547,0.055 75.167,-33.807 0.378,-0.431 0.794,-0.806 1.24,-1.124 z M 277.106,164.165 c 22.846,26.649 19.977,66.959 -6.406,90.034 -26.384,23.076 -66.292,20.178 -89.137,-6.471 -22.845,-26.649 -19.977,-66.959 6.407,-90.034 26.383,-23.076 66.291,-20.178 89.136,6.471 z m 88.345,261.008 c -0.609,-0.133 -1.164,-0.453 -1.598,-0.911 l -93.98,-96.259 c -43.581,-46.067 -6.726,-34.879 7.771,-45.119 3.612,-2.551 7.129,-5.316 10.536,-8.295 3.406,-2.979 6.618,-6.1 9.634,-9.345 12.107,-13.028 12.896,-56.675 45.321,-1.316 l 81.437,107.443 c 0.454,0.584 0.712,1.3 0.715,2.043 0.013,2.935 -0.186,7.078 -1.03,11.773 -1.702,9.461 -5.866,20.386 -15.415,28.738 -9.584,8.382 -21.175,11.188 -31.031,11.717 -4.877,0.261 -9.112,-0.051 -12.096,-0.424 -0.089,-0.011 -0.177,-0.026 -0.264,-0.045 z"
           fill="#ffffff"
           id="path26"
           inkscape:label="obsolete-mic-inner"
           style="display:none;opacity:1"
           sodipodi:insensitive="true" /><path
           fill-rule="evenodd"
           clip-rule="evenodd"
           d="m 316.378,203.255 c -0.58,-19.52 -7.569,-38.97 -21.212,-54.885 -31.482,-36.724 -86.476,-40.717 -122.834,-8.918 -36.358,31.799 -40.31,87.347 -8.829,124.071 13.643,15.915 31.702,25.683 50.747,29.054 -26.095,4.242 -41.059,20.332 -54.321,34.591 -3.594,3.865 -7.065,7.597 -10.597,10.921 -9.145,8.605 -25.704,14.829 -41.128,18.895 -7.511,1.981 -14.3981,3.362 -19.4096,4.248 -2.5017,0.442 -4.5258,0.759 -5.9142,0.964 -0.6939,0.103 -1.2283,0.177 -1.5833,0.225 -0.1774,0.024 -0.31,0.042 -0.3952,0.053 l -0.0919,0.012 -0.0187,0.002 c -2.5924,0.322 -4.806,2.044 -5.7772,4.493 -0.9712,2.449 -0.5463,5.238 1.1088,7.279 l 0.3512,0.422 c 0.205,0.244 0.4971,0.585 0.8719,1.011 0.7492,0.852 1.8318,2.044 3.2147,3.469 2.7589,2.842 6.749,6.646 11.7036,10.515 9.1359,7.134 22.1999,15.002 37.2819,16.777 1.122,1.263 2.682,2.946 4.628,4.865 4.143,4.088 10.14,9.354 17.464,13.905 13.563,8.428 32.849,15.002 53.061,5.222 1.708,1.309 3.931,2.895 6.62,4.566 6.628,4.122 16.233,8.856 28.041,11.161 24.193,4.724 55.956,-1.082 88.63,-38.435 0.101,-0.116 0.198,-0.234 0.291,-0.354 l 25.512,23.851 c 3.146,3.327 7.169,5.711 11.699,6.202 11.096,1.201 33.494,1.199 51.233,-14.316 17.872,-15.631 20.5,-37.809 20.602,-48.755 0.041,-4.358 -1.684,-8.448 -4.346,-11.878 l -20.417,-28.819 c 0.131,-0.075 0.261,-0.156 0.389,-0.24 41.273,-27.322 51.504,-58.245 50.335,-83.106 -0.57,-12.134 -3.835,-22.413 -6.925,-29.628 -1.254,-2.928 -2.49,-5.376 -3.528,-7.271 12.473,-18.807 8.79,-39.027 2.471,-53.792 -3.411,-7.972 -7.714,-14.72 -11.127,-19.446 -1.602,-2.22 -3.028,-4.021 -4.105,-5.323 0.417,-15.33 -5.424,-29.515 -11.108,-39.6692 -3.083,-5.5064 -6.238,-10.039 -8.629,-13.2036 -1.198,-1.5862 -2.212,-2.8391 -2.939,-3.7098 -0.364,-0.4356 -0.657,-0.7764 -0.866,-1.0162 l -0.364,-0.4115 c -1.763,-1.9465 -4.435,-2.77 -6.973,-2.1494 -2.539,0.6207 -4.542,2.5874 -5.229,5.1329 l -0.005,0.0183 -0.025,0.0902 c -0.023,0.0836 -0.059,0.2136 -0.108,0.3876 -0.098,0.348 -0.247,0.8716 -0.447,1.5506 -0.399,1.3586 -0.999,3.3368 -1.79,5.7745 -1.585,4.8832 -3.924,11.571 -6.938,18.7956 -6.19,14.838 -14.657,30.502 -24.397,38.413 -3.762,3.056 -7.914,5.991 -12.216,9.032 -15.869,11.219 -33.775,23.877 -41.662,49.357 z m 10.644,20.194 76.795,98.95 c 0.376,-0.401 0.803,-0.764 1.279,-1.079 37.416,-24.769 44.782,-51.019 43.875,-70.31 -0.467,-9.941 -3.158,-18.482 -5.764,-24.568 -0.159,-0.372 -0.318,-0.734 -0.476,-1.087 -3.507,3.957 -8.028,9.208 -12.684,15.021 -5.018,6.264 -10.122,13.092 -14.271,19.6 -4.238,6.646 -7.124,12.412 -8.193,16.65 -0.978,3.874 -4.88,6.214 -8.715,5.226 -3.836,-0.987 -6.152,-4.929 -5.174,-8.803 1.659,-6.575 5.586,-13.942 10.031,-20.913 4.533,-7.109 9.984,-14.382 15.179,-20.867 5.207,-6.501 10.23,-12.299 13.946,-16.469 1.861,-2.087 3.4,-3.772 4.477,-4.94 0.539,-0.584 0.963,-1.039 1.255,-1.351 0.097,-0.103 0.18,-0.191 0.247,-0.263 11.05,-13.898 9.058,-29.46 3.32,-42.869 -1.829,-4.276 -3.991,-8.187 -6.097,-11.538 -3.095,7.406 -8.121,14.613 -15.59,21.283 -20.182,18.022 -32.124,33.723 -38.972,44.738 -3.426,5.512 -5.584,9.861 -6.864,12.757 -0.64,1.449 -1.06,2.534 -1.31,3.221 -0.125,0.344 -0.208,0.587 -0.253,0.727 l -0.025,0.074 -0.017,0.057 -0.002,0.004 c -1.135,3.813 -5.109,5.986 -8.894,4.856 -3.796,-1.133 -5.963,-5.16 -4.841,-8.994 l 0.17,-0.545 c 0.095,-0.288 0.229,-0.681 0.408,-1.175 0.36,-0.987 0.902,-2.375 1.676,-4.126 1.548,-3.503 4.022,-8.455 7.814,-14.555 7.588,-12.206 20.426,-28.963 41.616,-47.886 10.011,-8.939 13.89,-18.441 14.65,-27.486 1.033,-12.307 -3.656,-24.693 -9.129,-34.469 -1.004,-1.793 -2.018,-3.4702 -3.004,-5.0124 -1.501,4.3274 -3.384,9.3994 -5.624,14.7684 -6.247,14.974 -15.846,33.694 -28.622,44.072 -4.845,3.936 -9.705,7.416 -14.409,10.784 -18.726,13.408 -34.96,25.033 -37.808,56.517 z m -8.534,173.579 -85.974,-90.922 c -31.257,-1.655 -44.969,12.912 -60.785,29.714 -3.973,4.22 -8.078,8.582 -12.627,12.862 -11.996,11.288 -31.712,18.207 -47.278,22.311 -5.581,1.471 -10.82,2.628 -15.2748,3.51 1.3702,1.206 2.8686,2.46 4.4818,3.72 8.797,6.869 20.262,13.328 32.469,14.055 8.971,0.534 18.837,-1.985 29.028,-10.714 21.572,-18.478 39.827,-28.915 52.873,-34.756 6.519,-2.918 11.725,-4.683 15.379,-5.73 1.826,-0.523 3.264,-0.866 4.283,-1.084 0.509,-0.109 0.913,-0.187 1.209,-0.24 l 0.558,-0.093 c 3.918,-0.573 7.553,2.169 8.121,6.126 0.566,3.945 -2.132,7.608 -6.031,8.197 l -0.004,0.001 c -0.018,0.003 -0.062,0.01 -0.134,0.023 -0.143,0.026 -0.394,0.073 -0.748,0.149 -0.709,0.152 -1.833,0.417 -3.344,0.85 -3.02,0.865 -7.591,2.401 -13.481,5.037 -11.773,5.271 -28.865,14.963 -49.411,32.562 -7.603,6.513 -15.385,10.506 -23.084,12.541 2.983,2.584 6.506,5.305 10.434,7.745 12.318,7.654 27.282,11.871 42.481,2.812 0.079,-0.057 0.177,-0.127 0.292,-0.209 0.348,-0.247 0.854,-0.606 1.503,-1.061 1.299,-0.911 3.17,-2.208 5.481,-3.769 4.617,-3.12 11.018,-7.312 18.132,-11.588 7.097,-4.265 15.003,-8.674 22.617,-12.189 7.467,-3.447 15.247,-6.319 21.927,-7.038 3.936,-0.423 7.466,2.456 7.886,6.432 0.419,3.975 -2.432,7.541 -6.368,7.965 -4.306,0.463 -10.368,2.522 -17.486,5.809 -6.971,3.217 -14.391,7.343 -21.246,11.463 -6.362,3.824 -12.153,7.592 -16.532,10.533 0.323,0.208 0.655,0.418 0.997,0.631 5.59,3.476 13.574,7.387 23.249,9.276 18.772,3.665 45.547,0.055 75.167,-33.807 0.378,-0.431 0.794,-0.806 1.24,-1.124 z M 277.106,164.165 c 22.846,26.649 19.977,66.959 -6.406,90.034 -26.384,23.076 -66.292,20.178 -89.137,-6.471 -22.845,-26.649 -19.977,-66.959 6.407,-90.034 26.383,-23.076 66.291,-20.178 89.136,6.471 z m 88.345,261.008 c -0.609,-0.133 -1.164,-0.453 -1.598,-0.911 l -93.98,-96.259 c -43.581,-46.067 -6.726,-34.879 7.771,-45.119 3.612,-2.551 7.129,-5.316 10.536,-8.295 3.406,-2.979 6.618,-6.1 9.634,-9.345 12.107,-13.028 12.896,-56.675 45.321,-1.316 l 81.437,107.443 c 0.454,0.584 0.712,1.3 0.715,2.043 0.013,2.935 -0.186,7.078 -1.03,11.773 -1.702,9.461 -5.866,20.386 -15.415,28.738 -9.584,8.382 -21.175,11.188 -31.031,11.717 -4.877,0.261 -9.112,-0.051 -12.096,-0.424 -0.089,-0.011 -0.177,-0.026 -0.264,-0.045 z"
           stroke="#f79009"
           stroke-width="8"
           stroke-linecap="round"
           stroke-linejoin="round"
           id="path30"
           inkscape:label="obsolete-mic-outer"
           sodipodi:insensitive="true"
           style="display:none;opacity:1" /><path
           d="m 207.704,160.524 c 2.967,2.698 3.207,7.314 0.536,10.31 -2.714,3.046 -4.676,6.697 -5.726,10.655 -1.05,3.957 -1.158,8.11 -0.315,12.118 0.843,4.008 2.613,7.758 5.166,10.943 2.552,3.184 5.815,5.714 9.52,7.381 3.647,1.641 5.286,5.957 3.661,9.64 -1.624,3.683 -5.897,5.339 -9.543,3.698 -5.789,-2.605 -10.886,-6.557 -14.874,-11.532 -3.987,-4.976 -6.753,-10.834 -8.07,-17.095 -1.317,-6.262 -1.149,-12.749 0.492,-18.933 1.64,-6.183 4.705,-11.886 8.946,-16.644 2.67,-2.996 7.241,-3.239 10.207,-0.541 z"
           fill="#ffffff"
           id="path697"
           inkscape:label="micReflex"
           style="display:inline;opacity:1;fill:#ffffff;fill-opacity:1;stroke:#f79009;stroke-width:8;stroke-dasharray:none;stroke-opacity:1"
           sodipodi:insensitive="true"
           transform="rotate(44.936079,208.58847,198.15795)" /><path
           d="m 316.378,203.255 c -0.58,-19.52 -7.569,-38.97 -21.212,-54.885 -31.482,-36.724 -86.476,-40.717 -122.834,-8.918 -36.358,31.799 -40.31,87.347 -8.829,124.071 13.643,15.915 31.702,25.683 50.747,29.054 -26.095,4.242 -41.059,20.332 -54.321,34.591 -3.594,3.865 -7.065,7.597 -10.597,10.921 -9.145,8.605 -25.704,14.829 -41.128,18.895 -7.511,1.981 -14.3981,3.362 -19.4096,4.248 -2.5017,0.442 -4.5258,0.759 -5.9142,0.964 -0.6939,0.103 -1.2283,0.177 -1.5833,0.225 -0.1774,0.024 -0.31,0.042 -0.3952,0.053 l -0.0919,0.012 -0.0187,0.002 c -2.5924,0.322 -4.806,2.044 -5.7772,4.493 -0.9712,2.449 -0.5463,5.238 1.1088,7.279 l 0.3512,0.422 c 0.205,0.244 0.4971,0.585 0.8719,1.011 0.7492,0.852 1.8318,2.044 3.2147,3.469 2.7589,2.842 6.749,6.646 11.7036,10.515 9.1359,7.134 22.1999,15.002 37.2819,16.777 1.122,1.263 2.682,2.946 4.628,4.865 4.143,4.088 10.14,9.354 17.464,13.905 13.563,8.428 32.849,15.002 53.061,5.222 1.708,1.309 3.931,2.895 6.62,4.566 6.628,4.122 16.233,8.856 28.041,11.161 24.193,4.724 55.956,-1.082 88.63,-38.435 0.101,-0.116 0.198,-0.234 0.291,-0.354 l 25.512,23.851 c 3.146,3.327 7.169,5.711 11.699,6.202 11.096,1.201 33.494,1.199 51.233,-14.316 17.872,-15.631 20.5,-37.809 20.602,-48.755 0.041,-4.358 -1.684,-8.448 -4.346,-11.878 l -20.417,-28.819 c 0.131,-0.075 0.261,-0.156 0.389,-0.24 41.273,-27.322 51.504,-58.245 50.335,-83.106 -0.57,-12.134 -3.835,-22.413 -6.925,-29.628 -1.254,-2.928 -2.49,-5.376 -3.528,-7.271 12.473,-18.807 8.79,-39.027 2.471,-53.792 -3.411,-7.972 -7.714,-14.72 -11.127,-19.446 -1.602,-2.22 -3.028,-4.021 -4.105,-5.323 0.417,-15.33 -5.424,-29.515 -11.108,-39.6692 -3.083,-5.5064 -6.238,-10.039 -8.629,-13.2036 -1.198,-1.5862 -2.212,-2.8391 -2.939,-3.7098 -0.364,-0.4356 -0.657,-0.7764 -0.866,-1.0162 l -0.364,-0.4115 c -1.763,-1.9465 -4.435,-2.77 -6.973,-2.1494 -2.539,0.6207 -4.542,2.5874 -5.229,5.1329 l -0.005,0.0183 -0.025,0.0902 c -0.023,0.0836 -0.059,0.2136 -0.108,0.3876 -0.098,0.348 -0.247,0.8716 -0.447,1.5506 -0.399,1.3586 -0.999,3.3368 -1.79,5.7745 -1.585,4.8832 -3.924,11.571 -6.938,18.7956 -6.19,14.838 -14.657,30.502 -24.397,38.413 -3.762,3.056 -7.914,5.991 -12.216,9.032 -15.869,11.219 -33.775,23.877 -41.662,49.357 z m 10.644,20.194 76.795,98.95 c 0.376,-0.401 0.803,-0.764 1.279,-1.079 37.416,-24.769 44.782,-51.019 43.875,-70.31 -0.467,-9.941 -3.158,-18.482 -5.764,-24.568 -0.159,-0.372 -0.318,-0.734 -0.476,-1.087 -3.507,3.957 -8.028,9.208 -12.684,15.021 -5.018,6.264 -10.122,13.092 -14.271,19.6 -4.238,6.646 -7.124,12.412 -8.193,16.65 -0.978,3.874 -4.88,6.214 -8.715,5.226 -3.836,-0.987 -6.152,-4.929 -5.174,-8.803 1.659,-6.575 5.586,-13.942 10.031,-20.913 4.533,-7.109 9.984,-14.382 15.179,-20.867 5.207,-6.501 10.23,-12.299 13.946,-16.469 1.861,-2.087 3.4,-3.772 4.477,-4.94 0.539,-0.584 0.963,-1.039 1.255,-1.351 0.097,-0.103 0.18,-0.191 0.247,-0.263 11.05,-13.898 9.058,-29.46 3.32,-42.869 -1.829,-4.276 -3.991,-8.187 -6.097,-11.538 -3.095,7.406 -8.121,14.613 -15.59,21.283 -20.182,18.022 -32.124,33.723 -38.972,44.738 -3.426,5.512 -5.584,9.861 -6.864,12.757 -0.64,1.449 -1.06,2.534 -1.31,3.221 -0.125,0.344 -0.208,0.587 -0.253,0.727 l -0.025,0.074 -0.017,0.057 -0.002,0.004 c -1.135,3.813 -5.109,5.986 -8.894,4.856 -3.796,-1.133 -5.963,-5.16 -4.841,-8.994 l 0.17,-0.545 c 0.095,-0.288 0.229,-0.681 0.408,-1.175 0.36,-0.987 0.902,-2.375 1.676,-4.126 1.548,-3.503 4.022,-8.455 7.814,-14.555 7.588,-12.206 20.426,-28.963 41.616,-47.886 10.011,-8.939 13.89,-18.441 14.65,-27.486 1.033,-12.307 -3.656,-24.693 -9.129,-34.469 -1.004,-1.793 -2.018,-3.4702 -3.004,-5.0124 -1.501,4.3274 -3.384,9.3994 -5.624,14.7684 -6.247,14.974 -15.846,33.694 -28.622,44.072 -4.845,3.936 -9.705,7.416 -14.409,10.784 -18.726,13.408 -34.96,25.033 -37.808,56.517 z m -8.534,173.579 -85.974,-90.922 c -31.257,-1.655 -44.969,12.912 -60.785,29.714 -3.973,4.22 -8.078,8.582 -12.627,12.862 -11.996,11.288 -31.712,18.207 -47.278,22.311 -5.581,1.471 -10.82,2.628 -15.2748,3.51 1.3702,1.206 2.8686,2.46 4.4818,3.72 8.797,6.869 20.262,13.328 32.469,14.055 8.971,0.534 18.837,-1.985 29.028,-10.714 21.572,-18.478 39.827,-28.915 52.873,-34.756 6.519,-2.918 11.725,-4.683 15.379,-5.73 1.826,-0.523 3.264,-0.866 4.283,-1.084 0.509,-0.109 0.913,-0.187 1.209,-0.24 l 0.558,-0.093 c 3.918,-0.573 7.553,2.169 8.121,6.126 0.566,3.945 -2.132,7.608 -6.031,8.197 l -0.004,0.001 c -0.018,0.003 -0.062,0.01 -0.134,0.023 -0.143,0.026 -0.394,0.073 -0.748,0.149 -0.709,0.152 -1.833,0.417 -3.344,0.85 -3.02,0.865 -7.591,2.401 -13.481,5.037 -11.773,5.271 -28.865,14.963 -49.411,32.562 -7.603,6.513 -15.385,10.506 -23.084,12.541 2.983,2.584 6.506,5.305 10.434,7.745 12.318,7.654 27.282,11.871 42.481,2.812 0.079,-0.057 0.177,-0.127 0.292,-0.209 0.348,-0.247 0.854,-0.606 1.503,-1.061 1.299,-0.911 3.17,-2.208 5.481,-3.769 4.617,-3.12 11.018,-7.312 18.132,-11.588 7.097,-4.265 15.003,-8.674 22.617,-12.189 7.467,-3.447 15.247,-6.319 21.927,-7.038 3.936,-0.423 7.466,2.456 7.886,6.432 0.419,3.975 -2.432,7.541 -6.368,7.965 -4.306,0.463 -10.368,2.522 -17.486,5.809 -6.971,3.217 -14.391,7.343 -21.246,11.463 -6.362,3.824 -12.153,7.592 -16.532,10.533 0.323,0.208 0.655,0.418 0.997,0.631 5.59,3.476 13.574,7.387 23.249,9.276 18.772,3.665 45.547,0.055 75.167,-33.807 0.378,-0.431 0.794,-0.806 1.24,-1.124 z M 277.106,164.165 c 22.846,26.649 19.977,66.959 -6.406,90.034 -26.384,23.076 -66.292,20.178 -89.137,-6.471 -22.845,-26.649 -19.977,-66.959 6.407,-90.034 26.383,-23.076 66.291,-20.178 89.136,6.471 z m 88.345,261.008 c -0.609,-0.133 -1.164,-0.453 -1.598,-0.911 l -93.98,-96.259 c -43.581,-46.067 -6.726,-34.879 7.771,-45.119 3.612,-2.551 7.129,-5.316 10.536,-8.295 3.406,-2.979 6.618,-6.1 9.634,-9.345 12.107,-13.028 12.896,-56.675 45.321,-1.316 l 81.437,107.443 c 0.454,0.584 0.712,1.3 0.715,2.043 0.013,2.935 -0.186,7.078 -1.03,11.773 -1.702,9.461 -5.866,20.386 -15.415,28.738 -9.584,8.382 -21.175,11.188 -31.031,11.717 -4.877,0.261 -9.112,-0.051 -12.096,-0.424 -0.089,-0.011 -0.177,-0.026 -0.264,-0.045 z"
           id="path367"
           inkscape:label="mic"
           style="display:inline;opacity:1;fill:#ffffff;fill-opacity:1;stroke:#f79009;stroke-width:8;stroke-linecap:butt;stroke-linejoin:round;stroke-dasharray:none;stroke-opacity:1;paint-order:normal"
           fill="#ffffff"
           fill-rule="evenodd"
           stroke-linejoin="round" /></g></g></g></svg>
