<?xml version="1.0" encoding="UTF-8"?>
<svg viewBox="0 0 188.75 186.25" xmlns="http://www.w3.org/2000/svg">
 <g transform="matrix(1.25,0,0,-1.25,0,186.25)">
  <g transform="scale(.24)">
   <path d="m315.86 0.60156c172.87 0 313.01 31.023 313.01 69.293s-140.14 69.294-313.01 69.294-313.01-31.024-313.01-69.294 140.14-69.293 313.01-69.293" fill="#40c1f3"/>
   <path d="m282.07,613.258c5.743-3.379 12.504-3.043 17.235-8.11-.34,5.067 7.769,5.067 12.164,7.094l-1.016,2.703c5.746,1.692 13.52-.336 17.91,1.352 10.477-4.391 19.598-13.176 27.711-21.625 5.067,5.406 12.5,5.746 18.582,8.785 7.098,3.379 13.52,9.125 20.278,12.84-4.731-20.949 2.363-50.684-21.965-59.809 1.351-5.07 7.094-3.379 9.797-6.422 5.746-4.73 8.789-10.472 9.8-17.23-2.703-1.016-5.066,2.703-8.109,2.363 2.703-8.449 9.125-24.328 0-31.426-2.367,2.704-1.691,7.098-5.07,9.801 0-6.082-2.703-11.152-5.407-16.222-2.363,1.015-2.363,4.058-3.378,6.421-2.704-2.027-3.379-4.73-4.055-7.433 21.965-10.137 53.055-11.828 77.043-4.731 3.043,4.731 3.383,12.164 8.789,14.532 4.73,1.687 9.797,9.797 14.867,3.379 2.363-3.043 1.688-8.786.676-12.168 2.703-2.028 4.055,0 7.433-1.012 4.055-3.043 5.407-8.785 4.731-12.84-9.461-3.719-1.012-17.574-12.164-19.602 3.379-1.687 6.758-7.093 10.476-5.742 14.192,17.91 36.157-4.394 50.348,13.18h8.785c1.016-5.07-1.351-9.801-.676-13.856l7.434-7.433c-3.039.336-.676-3.043-2.703-4.055 .676-4.054-1.012-7.097 3.379-10.476 4.055-1.352 2.027-8.11 4.73-11.153 2.028-8.785-7.769-10.472-8.785-17.91-3.715,1.356-2.363,6.422-4.73,8.789-3.043-2.703-1.692-5.07-1.692-8.789 9.125-9.461 25.344-3.039 37.172-2.363 12.164,4.394 27.031-.676 33.453,14.531l2.367,9.797c2.364.34 4.055-.676 5.743-2.703l-1.688-8.785c4.731-3.379 15.207,11.828 13.856-1.688-2.368-3.719-6.422-3.379-9.125-6.422 2.703-1.691 6.418-1.351 9.8-2.367-1.351-3.715-3.718-6.082-7.437-7.433-6.418-4.731-10.473,6.421-16.219,1.015-6.418-5.07-3.719-13.855-8.785-19.597-4.73-4.735-6.422-12.844-12.84-14.532-3.719-10.136-15.547-20.613-26.019-24.332-2.028-41.562-9.461-80.422-9.125-119.957-5.743-21.289 3.043-41.562-10.477-60.824-4.055-6.758-12.164-11.152-18.582-15.543 1.688-10.477 8.785-18.25 12.84-27.711 4.73-1.687 11.152.676 14.867-4.055 1.352-4.054-2.363-6.418-3.379-8.785-7.773-3.379-17.234-1.015-23.652,4.055-4.055,11.828-13.52,22.301-22.641,31.766 0-9.125-10.476-17.911-2.367-26.02-1.012-5.406-.676-11.152-6.418-14.5312h-1.691c-3.379-6.0821 5.746-7.0977 6.422-11.4883-1.692-1.6914-4.731.3359-6.422-1.6914-1.352,6.4218-9.801,8.7851-11.489,14.5309 3.379,3.379 8.786,5.071 9.801,9.801-4.055,3.379-9.801-1.016-13.855-.676-8.45-4.73 1.011-14.195-9.461-17.9098 0-3.3789-2.703-5.7461-5.071-7.4336-1.687,2.0273-9.125-1.6914-6.418,4.0547 5.743,1.3515 9.461,7.4335 11.489,12.1637-1.692,3.039-5.071,5.407-5.071,9.125-4.73.676-10.812-1.015-13.855-5.07 4.394-2.027 11.828-5.07 8.113-11.1523-6.422-13.1758-24.668-7.0938-33.117-17.9063h-6.422c7.774.6758 8.113,8.4453 16.223,8.7852 7.769,3.7148 20.273,1.3515 21.965,13.1757-3.043,3.3787-11.828,3.0427-9.125,10.4767l2.363,2.367c-4.391,0-9.121,1.012-13.516,2.363-1.687,2.368.34,7.098 4.055,7.434 8.449,2.367 9.801,12.84 11.152,20.953 1.352,3.715 6.422,8.109 3.379,11.488-2.027-.339-5.406.336-5.07,2.364l3.379,3.379-8.785,10.476c2.703-12.84 7.433-33.113-8.11-42.914-2.703-3.379-9.121-6.758-9.121-12.164 4.731-5.07 10.137-13.52 17.231-15.5469l4.054-4.0547c-4.73,0-8.445-4.0546-13.175-1.6875l-2.368,2.7032c-.336-1.0157-1.687-1.0157-2.363-1.0157-4.394,6.0816-7.098,12.5036-13.855,15.5466 .336,5.067-5.071,7.094-1.692,12.164 4.395,1.012 2.367,7.434 1.692,10.477-4.395,2.363-7.434-2.707-10.477-5.746l.676-4.055c-5.067,3.039-5.742-5.07-10.473-4.055-5.41-8.109-12.504-15.882-16.222-25.0073-5.743-2.0274-11.825-.336-16.895,1.6914 1.691,3.3789 4.395,6.4179 8.785,7.0939 5.071,8.113 14.531,11.828 16.219,21.289-2.703,2.027-1.352,5.07-4.055,7.098-5.742-4.055-11.824,1.351-16.894,4.054-.336,1.692-2.028,2.703-2.703,4.055-1.012-5.746 1.691-15.207-4.055-20.274-8.449,1.012-22.301-3.042-26.695,6.418-4.731,10.137-6.422,21.965-12.164,31.766-3.379-2.703-1.692,3.039-4.055,4.055-2.027-.676-1.016-4.395-4.055-3.379-2.027,2.703.676,9.125-4.73,8.109-2.367,3.379.675,6.758.675,9.801-2.703,4.055-12.843,6.082-8.789,13.176 3.043,2.367 3.719,7.433 5.747,11.152 0,12.164 5.746,31.766-9.125,40.551-5.067,1.687-8.11-2.367-12.165-4.055-7.093-13.515-7.093-34.469 0-46.972 0-6.418-8.109-6.418-10.472-11.489-12.504-13.855-13.52-32.437-25.008-46.968-9.461-2.028-19.938-5.747-29.398-3.043 0,7.097-11.149,2.027-9.797,9.464 4.054,1.012 4.73,7.77 9.797,7.434 6.082.336 13.515-1.691 16.218,4.73 6.086,13.176 16.899,26.356 23.657,39.872-1.352,4.394-5.747,4.394-9.801,9.8-4.391-1.687-5.742,6.758-8.785,8.786-5.746-30.075-22.301-59.809-50.348-76.032-3.379-4.73-7.098-7.769-10.477-11.488 5.071-4.391 14.192-1.012 18.586-5.742 7.77,1.351 14.868-1.692 18.586-6.422-4.73-1.352-9.125,3.043-12.843-.676l1.351-1.687c-2.027-3.383-7.434,2.027-11.148-1.016 .336-.34.675-1.016 1.687-.676v-2.367c-8.445,2.367-15.203,8.449-25.344,7.098-5.742,3.043-12.839,2.703-18.582,5.07 .336,1.688 1.688,2.703 2.364,4.055-7.77,4.39-10.813,18.246-20.274,16.894-1.351-2.027-.676-5.406-.676-8.109-1.015.336-2.703-.676-3.378,1.012-3.043-1.352-1.016-4.391-1.692-6.758-8.445-2.028-12.5-13.516-22.6405-9.461-8.4453-7.774-16.2188-12.1642-25.0039-18.9221-2.3672,2.7032.6757,5.0664.6757,7.4341-6.082.675-12.8398-3.3794-18.5859-6.4223l-.6758,7.0973c-1.3515-.34-2.7031-1.015-4.0547-.675-2.3632,3.378 3.3789,6.421 5.4063,8.109 12.1641,2.367 25.3437,1.351 35.8203,7.434-12.1641,3.042-26.0195,11.828-30.0742,25.007-10.1367,11.489 7.0937,25.004-5.7461,35.817-7.4336,20.273-5.0664,44.941-6.418,65.554 0,3.379 5.4063,7.774 0,9.801 3.7149,5.406 6.0821,11.153 7.4336,17.91-10.8164-5.746-13.1797,9.461-24.332,5.407-5.4063,2.027-8.1094,5.742-9.7969,10.812-5.7461,6.758-6.4219,17.234-2.3672,25.68 6.7578,20.277 30.0742,15.883 45.2813,16.222 2.3633,1.012 5.0664,4.731 7.4336,3.379l9.8007,4.731c-3.0429,8.109 6.0821,14.191 5.4063,21.289 11.4883,7.433 9.1211,31.426 27.0314,23.316 5.406,2.703 13.855,5.742 19.262,1.012 1.687,1.352 4.394.676 6.421.676 2.028-4.055 6.082-2.703 9.122-4.055 8.109-3.043 13.855-14.867 24.332-10.476 3.039-3.04 2.703-8.446 1.687-12.165-1.012-2.363-4.055-4.39-5.742-6.417 6.758-9.465.336-18.25 2.363-29.399 13.516-3.043 26.02-7.437 41.227-5.41l-.676-1.012c4.391-2.027 6.758-8.785 11.488-9.801-.676,11.493-6.758,23.657-3.379,36.497 1.352,13.179 2.703,28.046 9.801,39.875-3.383,7.433 3.715,14.867 4.055,22.636-4.395,3.719 2.363,6.762 2.363,10.477-11.828,3.719-22.641,10.476-34.805,13.179-15.882,8.786-30.41,20.95-45.617,31.426-5.07,2.028-10.812,3.039-16.894,2.703-7.438-4.054-15.547-14.867-22.641-3.379 .676,11.149-13.18,4.055-14.531,12.84 .336,4.055-1.692,12.164 4.73,13.856 6.422,4.73 18.246-3.043 22.641,6.418-4.731,5.406-1.692,13.519 1.012,18.926 3.379,2.027 6.421,6.418 10.476,4.73 5.07-10.137 11.153-21.965 23.317-25.008 22.3-16.894 56.093-13.176 80.421-3.379 2.028,6.422-.675,11.489 1.692,16.899 6.082,0 13.176-3.043 18.586-.676-1.692,1.687-3.379,4.391-6.422,3.379l-1.016,5.406c-1.351-2.027-3.715-2.367-5.406-4.055-2.363,2.704.34,5.743.676,8.11-.676,1.687-2.363,0-3.379-.676-2.363,6.758 4.055,13.516 8.109,19.598l-2.363,2.367c-3.043-4.395-4.73-9.125-7.098-13.856-4.73,2.704-7.769,9.461-6.757,16.219-7.434,9.461-23.317,17.57-18.586,31.766 3.379,5.406 13.179,2.703 18.586,2.363 8.109-5.066 20.277-5.066 29.398-2.363 4.395,2.027 8.109,5.742 12.164,8.785-14.191,8.785-9.121,25.344-11.488,40.547 4.394-.336 7.097-4.731 10.476-6.418"/>
   <path d="m295.926,604.133c-3.719-3.379-9.125-.336-12.844,1.015-1.352,1.688-3.039,2.364-5.066,2.364-.34-8.446 0-19.598 9.121-24.328-1.012-3.719-4.055.336-5.742.675-6.758,8.11-3.719,20.274-5.747,30.075 6.422-4.055 13.856-5.746 20.278-9.801" fill="#f14d3e"/>
   <path d="m354.383,591.293c4.73-2.367 3.719,3.719 7.433,4.055 11.153,1.351 20.274,6.757 29.063,13.855-4.395-17.574.676-40.887-18.586-50.351l-3.379.675c0-12.5 18.246-10.136 19.598-22.636-2.364.675-4.391,2.027-7.434,1.687-1.015-9.801 8.785-18.922 4.055-29.058-3.719,1.351-2.367,7.769-7.098,8.109-2.703-4.055-1.687-9.801-4.055-13.856-1.011-.675-1.011,4.055-3.378,5.747-4.391-2.368-4.055-8.11-7.434-11.493-1.352,1.692 0,6.422-4.055,5.746-2.027-1.351-1.687-3.714-4.054-5.07-3.043,7.774-9.461-3.379-15.207-3.039 0-1.351-2.364-.676-3.379-1.016 .34,4.395 8.109,6.422 5.746,10.817-7.098-6.422-14.867-13.52-23.656-15.547 2.027-2.703 6.761-1.688 9.125-.676l.675.676-1.687-1.688c3.715-4.394 6.758,2.364 10.812,2.364 .336,1.015-2.027-2.364-3.379-2.364 6.418-3.718 9.461,5.407 15.543,8.11l2.364-4.731c2.707,1.012 4.734,4.055 7.097,6.418 0-6.082 5.071-4.39 9.125-5.742 27.032-8.785 53.051-11.488 80.086-.676-.34,7.094 6.082,11.829 12.164,15.207 1.012.676 1.352,2.028 2.703,1.688 3.039-2.027 4.055-6.418 2.364-9.801 0-3.039-5.742-5.066-2.364-8.785 2.364,4.395 7.77,3.043 11.149,3.379 1.691-2.703 5.07-6.082 2.367-8.109-2.367-4.055-13.516-2.028-8.785-8.11h4.055c1.687-4.73-2.368-8.109-5.747-9.125-3.039-1.687-7.093.34-10.472,1.016-2.028-5.071-5.07-8.449-10.477-6.758-1.351,3.039-4.394,1.012-6.422,1.687 .34.34 1.016,1.016.676,1.692-9.461-1.352-16.555-16.219-27.707-17.91l-2.367-2.364 1.016-.675c-18.922-10.141-40.551-16.223-60.825-24.332-3.043-1.352-4.054-4.055-5.07-6.758 2.367-2.028 3.379,1.015 5.746-.676-5.07-17.234-12.504-35.48-10.476-53.391 2.703,7.098.675,16.219 4.73,22.641-2.027-20.273-2.027-38.184-2.363-56.094 1.687-21.625 11.488-39.871 11.488-62.511 1.016-2.028-4.055,2.027-3.379,4.054l-.676,1.012c-3.718-2.027-4.054-6.082-2.703-9.121l1.012-.68h-6.418c.336,1.356-1.016,1.692-1.691,2.367h-1.688c-1.691-4.054 2.363-7.773 4.731-11.152 1.687-2.027 4.054-2.703 6.757-2.703l-1.015-9.461c-1.012-.336-1.688,1.352-3.039.676-1.692-2.364-1.692-5.407-2.703-8.11-6.422,2.368-3.379-7.773-8.786-8.785l.676-1.015c-7.097-1.012-14.195-3.039-18.586-9.797l1.012-.676c-4.391-5.406-14.867-8.449-13.176-16.219-3.043-3.383-5.07-7.437-6.422-11.492-3.715-.336-3.715,4.73-2.363,6.758 6.082,6.082 5.742,13.519 7.094,22.64 0,12.504-1.352,26.02-12.84,32.442-5.406,1.012-8.785-2.028-12.84-3.379-10.476-9.125-10.812-23.992-9.125-37.172-1.012-6.422 9.461-11.148 3.379-16.219-19.938-12.84-20.273-38.523-35.816-54.402-8.114.672-13.52-4.734-21.965-3.383 1.011,2.703-2.028,6.082 2.703,7.438 1.687.336 4.055-.676 5.406.675 .676,1.352-1.016,1.688-1.351,2.704-4.731,1.011-7.098-2.028-10.813-3.379v-2.368l-4.055.676c2.703,12.84 14.868,2.367 21.286,9.125 6.761,16.895 21.964,28.383 27.371,45.953 1.691.34 3.379-.336 4.054,1.016-6.082,4.391-14.867,8.109-19.258,15.207l-1.015-.676c-8.449,9.797 0,23.653-7.094,34.129-3.043,3.039-4.734,7.77-9.125,9.797 0,9.125 1.012,21.629 4.055,32.441 .676-11.152 6.082-27.371 13.179-39.199 .676,5.746-4.394,10.817-5.746,16.223-1.687,9.121-3.718,18.246-4.054,27.707 2.027-11.152 8.449-20.613 16.218-29.059 .676,3.379-4.73,6.418-5.742,10.473l-5.746,13.855c8.11-14.191 28.047-20.273 43.93-17.91 4.73,6.758 8.445,11.489 13.851,17.91 3.719,6.418 2.707,15.543 5.747,21.625-2.364,4.731.339,10.813.675,16.223 3.043,12.84.34,29.734 5.746,42.238-4.054,2.028.676,5.407-1.015,9.121 7.773,24.668 10.812,51.704 19.597,76.032-1.351,11.488 3.043,31.425-11.488,37.508l-12.164.675c3.719.676 8.109,1.692 9.801,4.731l-1.692,1.015c16.223,8.45 33.118,23.993 31.766,42.914-1.351,2.028-2.367,4.055-4.055,5.747 .336,2.027 2.364-.676 3.379-1.016 3.039,1.351.676,4.055 0,5.746l-5.746,5.066c8.11,3.043 14.867,12.504 15.207,21.629-1.015,10.813-5.406,21.289-15.207,27.032-29.058,2.703-36.492-36.157-64.879-35.141l-12.164,1.012c16.895-3.719 27.707,9.8 38.184,20.273-.676.34-1.012,1.016-1.692.676 5.071,1.016-.336,10.476 8.114,13.855l-1.692,1.692 9.801,4.73-1.016,2.364 12.165,2.703-.676,2.367c15.883,2.027 27.035-11.488 36.496-21.965" fill="#f14d3e"/>
   <path d="m383.441,602.781c3.719-11.828-5.406-23.992-8.109-35.816h-1.352c-.335,1.012.34,2.703-1.011,3.379-1.692,0-2.028-2.703-4.055-1.692v2.368c5.066.335.336,5.742 4.055,7.433-3.043,4.731-4.731-4.394-8.785-2.703l4.73,5.066c-2.027,2.704-6.758-3.039-4.73,3.043h1.687c1.352,1.012-.336,2.364-1.012,3.379-1.691.336-3.043-.34-4.054-1.691 3.379,8.113 19.258,6.422 22.636,17.234"/>
   <path d="m335.797,591.293c5.746-6.758 9.125-15.883 6.422-25.004-1.016-8.113-10.137-11.152-15.543-13.18l-1.352-1.691 8.11-7.094c-1.016,1.352-2.704.676-4.055.676-3.379-3.719 2.363-5.746 4.055-9.801 2.363-15.207-8.786-29.398-21.965-37.172-16.219-7.093-30.414-23.988-51.028-18.582-4.39,1.352-10.136,3.039-11.488,8.11-2.703,4.73 5.406,8.109-.676,11.148 12.504,0 30.414-14.527 42.914,0 10.141,12.168 16.223,26.02 26.02,38.188l4.055-4.055c2.367,3.379-1.012,6.082-1.688,9.121-2.367.676-3.719,3.379-6.422,2.367 1.016-7.433-10.136-8.449-15.543-11.488-19.597-2.707-37.847,3.039-52.715,13.852l-.675-4.731c-2.028.34-3.379,2.367-5.067,4.055 6.418,3.379 11.149,8.449 11.489,16.222 29.058-11.152 48.66,18.246 68.933,32.438 7.434,1.351 10.137,1.351 16.219-3.379" fill="#fff"/>
   <path d="m334.78 586.56c0.676-2.704 2.363-5.071 1.688-8.11-2.703 3.039-3.715 8.785-8.11 11.149-5.066 2.027-8.109-3.715-12.164-2.364 4.731 5.746 15.207 6.758 18.586-0.675"/>
   <path d="m324.31 583.86c0.339-3.043-5.746-5.746-8.786-8.785 5.067-3.719 10.477-6.758 15.207-11.488-7.773-0.34-12.843 10.812-22.64 8.109l-3.043 3.379c7.433-1.691 12.84 5.742 19.262 8.785"/>
   <path d="m245.57 566.96c-2.703-4.731-10.136-4.731-15.203-3.379-1.355 1.012-4.058 1.012-4.058 3.379-1.012 2.703 1.691 3.379 3.042 4.055 5.747-1.352 11.829-0.34 16.219-4.055" fill="#fabfac"/>
   <path d="m267.54 549.06h-2.363v1.687c1.351 0.34 1.687-1.012 2.363-1.687"/>
   <path d="m350.33 529.79c-2.367 5.07-4.055 17.234-13.855 19.262 5.406 0 10.136-6.082 12.164-11.153l1.691-8.109"/>
   <path d="m356.07 538.58c-1.691 4.395-6.761 8.449-9.801 10.477 5.407-0.676 8.11-6.082 9.801-10.477"/>
   <path d="m251.32,536.215-4.73-9.801c-1.352,3.379-2.027,7.774-1.692,10.477 2.028-.34 4.055-1.016 6.422-.676" fill="#fff"/>
   <path d="m271.59 497.35c8.109 10.14 10.476 27.035 24.332 30.75-4.735-8.11-13.18-15.543-12.168-25.34 7.097 12.164 14.195 24.664 26.019 31.761-10.472-11.488-15.203-39.199-38.183-37.171" fill="#ed1c24"/>
   <path d="m264.5,517.629 8.109,8.785c-.675-7.434-2.027-14.531-5.07-20.949-3.379-2.027-4.055,4.055-6.418,4.73-.34,1.352 1.352,1.688.676,3.379-2.367,4.391-6.086-2.027-7.098-1.015 1.688,1.691.676,4.394 3.039,5.746-1.351,3.715-4.054,0-6.418,0 .676,5.406 5.407,9.461 8.11,13.855 2.703-3.719 1.351-10.476 5.07-14.531" fill="#f14d3e"/>
   <path d="m269.91 529.79c-1.351-2.367-2.367-4.73-4.73-6.758l-0.676 8.11c1.688-0.336 3.039-2.028 5.406-1.352" fill="#fff"/>
   <path d="m148.258,495.664c10.812-10.812 25.004-13.18 37.508-19.598 21.289-7.097 41.562,2.364 60.824,7.434 3.039-4.055 7.094-6.422 12.164-7.434-2.027-2.703-4.055-1.015-7.434-2.367 0-1.011-.34-4.73 2.364-4.73h6.757c-4.054-4.055-9.461-6.422-14.867-4.055-.336,1.352-2.027.336-3.039.676-.34-3.719 3.039-8.785 6.418-11.488-1.687-7.098-23.652,1.687-10.473-8.11 .336-1.015-3.378-3.379-2.367-6.422 1.016-1.691 6.082-2.703 3.043-5.746l-3.043,3.379-1.011-8.785h-.676c-2.367-2.703.676-4.73 2.363-6.758h3.379l-1.688-3.039c-4.73,3.039-7.097,12.84-12.167,17.906 1.351-6.082 5.07-12.839 8.789-18.922-6.762,3.379-9.801,12.165-13.856,18.922h-1.351c.335-5.066 4.73-10.812 8.109-15.543-7.434,1.692-8.109,11.489-13.856,15.543 0-4.73 4.731-9.121 7.098-13.851-6.422,1.687-7.433,8.785-12.84,12.164-1.015-2.703 2.703-5.406 4.055-8.11-4.731,1.688-9.125,5.743-13.856,4.731-12.503,10.477-27.371,19.262-40.55,30.074-5.407,2.363-11.825,2.028-17.907,3.379-6.421-2.027-12.843-13.855-19.261-5.746-2.367,3.043-5.746,7.098-3.379,11.152 4.39,1.016 10.472,1.016 12.164,5.071-4.055.675-9.125-1.016-13.856-1.692-3.039-1.687-2.027-8.449-7.093-4.73-3.383,1.351-4.059,6.422-2.368,9.461 4.395,5.406 13.516,3.379 20.274,5.07 3.379,4.055 10.812,7.77 4.055,13.852-1.012,3.718 1.351,8.449 4.054,11.152 8.45,7.434 9.125-8.785 13.52-12.84" fill="#f14d3e"/>
   <path d="m315.523,477.078c6.082-20.949-.675-43.59-6.421-63.527-2.028-20.274-10.473-38.524-10.813-58.121-3.379-24.328-5.742-49.336-10.476-72.989-3.715-5.746-8.786-8.109-12.165-14.867l-1.687,1.688c-6.082-5.407-14.871,1.691-22.641,1.691-7.433,2.703-12.84,7.77-15.207,15.543 4.395-3.379 11.489-5.406 16.219-3.379l1.352,1.692-9.461,9.796c6.757-1.011 13.179,3.379 16.218,8.786v1.691c-3.714.676-10.136-1.352-13.851,1.688-1.016,4.73 5.406,10.476.676,16.222-9.461-2.027-10.813-15.547-20.278-16.222-7.769,20.613-2.703,43.929 1.692,63.867 .336,6.082 10.476,11.152 3.379,17.234 .675,6.418 7.773,12.164 4.054,18.582 3.043,5.746 6.758,10.817 6.422,17.91-1.351.34-2.367,2.028-4.055,1.352 9.122,6.758-1.015,17.234 8.11,21.965l-1.016,1.015c3.379,1.352 8.11,3.039 9.125,6.418-3.043,1.692-4.73,2.703-7.433,4.731 6.418,1.015 15.543,3.379 18.586,10.476 0,1.016.675,2.703-.676,3.379-2.367.676-1.352-3.379-3.379-.676 2.703,3.043 10.812.676 15.543,2.368 5.406,1.351 12.84,3.039 17.91,8.109 6.418-4.055 15.879,1.012 20.273-6.422" fill="#fff"/>
   <path d="m148.258,480.121v-1.691c-3.043,2.703-5.406,2.027-8.785,1.015l-3.383-2.367c-1.012,3.043 2.707,4.395 4.058,5.406 3.379.676 6.082-.336 8.11-2.363"/>
   <path d="m532.8 468.97c-2.703-2.703-7.434-5.406-9.801-5.071h-3.039c4.391 1.016 7.434 5.411 12.84 5.071" fill="#bf7e71"/>
   <path d="m484.816,456.805c8.45,2.363 13.18,8.785 22.981,5.406 5.066-5.406 12.164-4.395 17.57-10.477 4.391,2.028-1.351,3.379-.676,5.746h-1.691v1.688c3.043,1.352 10.816-2.027 14.531-6.418l1.016-1.016-1.692-1.687c-.675,1.687-2.367.676-3.378,1.012l-4.055-4.055c-2.027,3.043-2.703-3.379-4.731,0-.675,4.055-6.757,4.055-8.785,4.73-1.351-.336-1.691,1.016-2.703,1.692l-.676-.676c-6.422,3.715-11.828-1.691-18.586-3.379-12.164-4.73-12.839-20.613-24.332-23.656 2.028-9.461 14.871-5.406 21.965-6.418 .676,3.715 5.746,3.039 7.098,4.055 2.027-.676 2.703,1.687 4.055,2.363 .675-1.352 2.363-.336 3.378-.676 1.692,5.07 6.758,2.367 9.801,5.746 .676,5.742 8.446,1.352 8.11,8.11 2.027-1.016 3.379,1.015 4.73,2.367 2.363-4.395 6.418,3.379 8.785-1.692l2.703-2.367c-4.73-.336-8.785-2.027-12.164-4.73 1.012-3.715 3.719-7.094 7.094-9.121l3.383-.676c-3.383-6.422-10.477-11.153-17.91-11.488-7.774-1.016-14.532,1.351-20.953,4.054 1.015,3.039 4.73.676 4.73,4.055-3.715,1.012-8.445-.676-11.488-4.731 .34-1.015-.336-2.703 1.015-3.378 2.028-1.016 2.028,1.687 3.039,2.363 17.911-1.352 25.344-35.481 44.606-19.262 3.719-1.012.34-4.73-.676-6.418-2.703-3.719-7.433-3.043-11.488-4.055-.34,6.082-9.461-2.027-11.152,1.352 1.015-.34 1.691,1.012 2.367,1.687-4.055,1.352-8.785,1.016-13.856,0 1.016,1.352 3.379.34 4.055,2.368-5.746,1.687-12.84-3.043-18.586,1.011-1.012-.336-.676-1.687-.676-2.363 4.395-3.379 15.883-1.016 16.223-7.433 12.84,6.757 36.832-8.79 38.859,13.851l-8.109,5.746 30.75.676c7.433,3.379 15.203,4.055 22.637,2.363-1.352-3.379 2.367-4.73 3.382-7.094l.676.676c1.688-10.476-9.125-11.488-8.789-20.953-3.039-1.012-2.703-6.418-5.742-4.055-2.027-1.011-1.691-3.039-1.691-5.066-3.04-7.098-9.122-11.828-15.207-16.894l1.355,4.054c-1.691,1.012-4.059-1.691-5.41-3.379 1.691-4.054-2.703-4.734-5.067-5.746l-1.691,1.692c1.016,1.011 3.043-.68 4.055,1.687 .34,2.367-2.364.676-3.039,2.367-1.692,6.418-3.379,13.852-6.422,20.274h-1.688c-1.351-5.071 2.028-10.137 3.039-15.207 6.082-36.492-7.093-72.989-7.093-111.172 2.363-19.602-4.055-37.508-12.168-53.731l.675-.675c5.407,4.73 5.407,9.464 9.801,14.531 1.352-21.965-2.703-45.281-23.652-54.403-2.028-1.691-3.379-4.054-4.055-6.421-4.055,4.73-6.422-5.743-11.152,0-.676-.676-2.028-1.012-1.692-2.364-1.687,1.688-7.769.676-5.742,5.743 7.774,6.082 16.219,10.136 24.328,15.207 2.703.339 6.082-.336 8.11,1.011-1.352,5.41-10.473,4.735-4.731,12.168-1.011.676-2.027,2.028-3.379,1.688-3.715-8.785-11.148-13.516-20.273-14.867l5.066,17.234c8.45,5.406 11.153,13.855 20.278,18.586 .675,3.379-1.016,5.406-3.379,7.433-7.098,3.379-13.856-7.433-16.899,0-2.703,1.012-4.054,1.012-6.758,0 1.016,4.391-4.39,7.094-7.093,9.461-4.395,2.028-9.125,1.688-13.18-.675-1.352-2.368-3.043-4.731-4.73-7.434-3.043,4.055-9.801,2.363-13.856,1.688-7.769-4.055-11.824-12.504-12.164-20.95-.676-6.422 3.719-13.179 9.125-17.234 5.742-2.363 11.824,2.703 10.473-7.098l2.367-3.379c-5.07-1.011-10.813.34-15.543,3.379-2.027,2.028-2.027,6.086-5.406,7.098h-3.383c-1.688-2.703-.676-6.422 1.691-8.785-12.504,7.773-9.125,21.625-9.801,34.129 5.407,6.757 16.559,9.8 18.586,19.261 9.461,6.418 9.461,18.246 17.235,26.02 5.746,6.418 20.273,2.703 19.262,15.543-3.719,1.691-6.758-3.043-11.153-1.688-.676,2.364 1.352,5.407-1.687,6.418-3.719-1.687-3.383-6.757-5.746-9.8-7.098-2.704-13.856-6.418-21.965-7.094 4.394,7.769 1.351,15.543 5.746,23.316 0,12.164 7.433,22.301 0,33.453-.676,8.11-4.731,18.246-3.379,27.371 4.391-5.746 12.84-4.054 17.906-5.406-2.703,6.758-11.824,2.363-15.203,9.461-9.125-2.027-5.746,10.137-13.855,9.797-3.043,1.691 0,5.746-3.379,7.438-9.461,0-13.18,8.785-21.965,11.148-3.043,5.406-10.477,5.746-11.153,12.164 0-.336 3.719.676 2.368,3.383l-3.379,3.379c-2.703,5.406 12.164,1.351 6.758,7.093l4.054,2.368-1.691,1.687c5.746,4.055 18.926-1.012 27.371,4.055 4.73,1.351 7.098-2.027 10.816-3.039 0-3.719 2.364-6.758 5.407-8.11 1.011,1.012 2.703,1.012 3.379,2.364 1.011-1.352 3.714-4.055 5.742-1.688l2.367,1.688c7.094-4.391 6.418-13.516 9.801-20.274 2.703,3.715.336,9.461-1.016,13.856l-1.352,3.039c3.379-3.379 8.11-7.774 9.461-12.84 2.704,6.082-4.054,12.164-6.418,15.207 4.055-1.016 7.434-3.719 10.473-7.098 1.692,4.395-6.082,7.774-7.094,11.153-3.379,2.703-6.422-4.731-9.8,0l.675,1.011c-2.367,1.692-5.406-1.011-8.109-2.363 1.687,1.352 2.703,5.067-.676,5.406-3.719.676-6.082-8.109-8.785-3.043 1.352.676.336,2.028.676,3.043-4.055,3.715-6.422,6.758-9.801,12.164l-2.367-1.351c1.691,9.461 8.113,13.515 15.547,20.273-3.379,0-7.098-3.715-10.813-5.066l-7.097-4.731c.675,6.082 9.8,5.743 8.785,11.149h-2.364c3.379,2.367 11.149,2.027 10.473,6.758h-1.687c7.433,1.351 12.839,9.8 17.906,15.207-3.715,4.73-9.797,7.097-14.527,10.476-3.043-5.07-1.352-12.164 1.687-16.894l.676-.676c.34-2.027-2.028-1.691-3.039-2.707-3.379,7.773-4.055,17.234-2.703,26.019 11.148,1.352 20.273-19.257 28.382-7.093" fill="#bf7e71"/>
   <path d="m451.703,457.48c.676-7.433 1.688-14.867 4.731-20.953-3.043-1.011-6.758-1.351-9.461-3.379 1.011-.675 1.687-2.363 3.039-2.363-2.364-2.027-6.758-2.703-9.801-5.746l2.703-3.379c-2.027-2.363-7.769-5.066-6.758-9.461 1.352-1.351 3.379-4.054 5.071-1.687-.676-3.383-2.368-6.086-1.692-9.801l5.746-1.691c-9.461-.676-23.316-6.418-30.074,5.07-5.406,5.406-13.855,5.406-20.949,4.055-1.692,4.054-6.082,7.773-10.817,8.109-2.363-2.027-1.687-6.758-.675-9.125 .675-1.688 2.367-3.379 1.691-5.742-7.434-3.379-12.504,11.828-17.234,1.687-1.012-3.715 4.73-7.094 7.433-10.472 .676.675-2.703-3.043-4.054-.676-6.418-1.352-5.407-8.449-9.797-11.488-10.817-13.52-11.828-32.778-14.532-50.352-2.367,30.75-1.015,61.84 11.489,87.519 26.359,9.801 53.051,19.938 74.34,39.875 5.07-1.015 8.785,5.407 13.179.676l6.422-.676" fill="#fff"/>
   <path d="m508.473,444.641c1.687,2.027 4.39-2.028 5.742-1.692l1.691-1.687c-2.703,1.011-4.394-1.692-5.07-3.383-3.039.34-7.773-1.012-10.477-4.055-3.714-5.066-8.445-2.027-12.839-6.418l-4.055-.676c3.719,4.731 6.422,15.208 14.531,17.911 4.055-3.719 7.434,3.379 10.477,0" fill="#bf7e71"/>
   <path d="m511.852,441.262c-6.762.336-13.52-3.043-19.602-6.422 3.719,5.406 10.813,9.461 18.586,8.109 .34-.336 1.016-1.011 1.016-1.687"/>
   <path d="m544.289,433.148c-3.039-.335-6.082-3.039-9.125-.675 2.707.675 6.422,1.691 9.125.675" fill="#fff"/>
   <path d="m455.08 425.72 5.406 5.07-4.73-5.07h-0.676"/>
   <path d="m547.332,420.984c-1.352-3.379-5.07-1.687-7.098-3.379-1.687,2.704 3.719,3.043.676,5.071l4.731,4.054c.675-1.351 2.367-3.378 1.691-5.746" fill="#bf7e71"/>
   <path d="m453.391,416.254c4.054-.336-1.688-3.039 2.367-4.055-2.367-1.687-2.367-4.73-2.367-5.746-.336-1.012-1.688-1.012-2.364-1.012 0,1.012-.339,2.028.676,2.704-.676,1.351-2.703.339-2.367,2.367l1.691,1.687-2.703,1.352c2.703,2.027 4.731,6.082 8.11,5.746l-3.043-3.043"/>
   <path d="m540.91 409.5-1.687 5.07h3.379l-1.692-5.07" fill="#fff"/>
   <path d="m524.02 407.13 2.363 1.691v-4.054l-2.363 2.363" fill="#fff"/>
   <path d="m455.08 401.39c-2.027 1.687-0.34 5.066 1.352 6.758 0.675-1.692-1.016-4.395-1.352-6.758"/>
   <path d="m524.691,396.656c2.364,2.364-.339,5.407-1.691,7.434 1.016-2.027 3.043-1.692 5.07-1.692l.676.676 4.055-8.109c-4.395-1.688-10.477,2.703-13.856,5.746l-4.73,6.418c6.082,0 6.082-7.094 10.476-10.473" fill="#f14d3e"/>
   <path d="m415.88 400.04 2.703-3.379c-5.406 0.336-8.785-3.379-13.856-3.379-3.039 5.067-10.812 3.039-9.121 10.813 2.704 3.039 7.094 1.012 10.813 1.351 1.687-3.378 6.418-3.378 9.461-5.406" fill="#fff"/>
   <path d="m459.813,402.398c0-1.011.335-2.027-.676-2.363h-1.692c-.675,1.352.676,4.731 2.368,2.363"/>
   <path d="m386.824,381.113c2.703,1.012 3.715,5.067 7.434,4.055 7.769-3.379 3.715-15.207 12.164-20.277 5.742-5.407 12.164-10.137 18.586-13.516l-2.367-3.379c.339,1.352-1.012,1.692-1.688,2.367l-2.367-3.043c-.676.676-4.731.34-5.746,3.043 1.015.336 2.707,3.039 0,4.055-3.715-1.016-7.434-2.027-9.797-5.746-3.043,2.027 6.418,8.785-1.691,8.109 1.351,2.028 2.027,4.055 1.691,6.758-3.043,3.379-7.098,0-10.477,0-1.011-1.687 4.731,4.731-1.011,4.731-5.071-2.028-10.477-2.364-15.207-5.743 .336,2.703 5.066,7.094 0,8.11-5.071.336-8.45-5.071-12.164-7.098 1.687,4.395 7.093,10.137 4.054,13.52h-3.379l4.055,9.796c4.055-4.39 11.149-8.445 17.91-5.742" fill="#fff"/>
   <path d="m129.672,380.438c-1.692-3.379-8.785-5.411-5.746-9.801 4.054,4.39 9.801,10.136 15.547,9.125 3.715-2.703 4.73-6.422 6.418-9.801 4.054,1.352-.676,3.039 1.015,5.742 4.391-1.687 9.461-5.066 11.149-9.797 2.027-3.379.34-7.097-1.688-9.801-1.351-2.363-7.433,1.352-8.109-3.378 8.785-.336 18.922-3.715 21.965-12.84l1.011-4.731h-1.011c-1.016-5.746-.676-12.84-2.368-17.234-1.351,1.351-.339,6.422-4.054,5.746-2.367-6.422-1.352-13.855-7.434-18.586l-2.367,2.363c-4.73-2.703-10.137-7.433-13.852-11.488 4.055-3.039 7.77,4.055 11.489,5.746 0-.676-.34-2.027.676-2.367 7.093,1.016 11.824,8.449 13.175,14.531 0,2.028 1.352-2.027 3.043-.676 2.028,7.774 9.801,2.028 13.856,1.688 12.164-8.785 26.355,5.07 34.804-9.797-1.351-.676-2.703,1.012-3.043,1.688-2.363,1.351-4.39-1.688-6.418-2.704-1.351-2.027 2.364-6.082 0-8.109 0-2.363 2.364-4.391 4.731-4.73l6.418.675c-.676-4.054-5.066-2.027-6.418-5.406 1.012-1.012 1.687-2.703 3.379-2.703-1.016-3.043-11.488,0-6.758-5.406-4.394-3.043-8.785,1.351-13.519-2.703 1.351-1.352 3.378-2.704 4.058-4.731l-14.871-.676c-.336-3.379 3.043-2.703 4.055-5.07l-16.219-.676c-.336-1.351 1.016-1.687 1.691-2.363-5.406-1.016-10.14,2.027-15.207,0l4.055-4.055c-1.352,1.352-4.055,0-5.07,2.364l-1.688-1.692c1.352-5.406 7.094-3.375 10.813-4.726 .336.675 2.027,1.011 1.351,2.363l-2.367,2.363 4.059-.672c3.715-17.91-5.41-35.144 1.687-51.363 2.703-10.141 4.395-20.613 4.731-31.426 1.015,0 2.027-.34 2.703.676v2.363c10.476-14.191.676-32.777-1.688-46.968-5.07-6.082-10.476-12.504-17.91-12.165-2.367,1.688-5.406,1.012-8.785,0l-2.703-3.042c-2.367,7.433-10.137,17.234-18.586,23.316-7.098-2.703-13.856,1.016-20.949,1.016 2.027-4.735 8.785-5.071 13.851-5.747 1.352-4.394-3.379-2.367-5.066-4.054-1.692.676-2.703,2.027-4.731,1.687l-1.015-1.011c.676-3.379 7.773-3.043 5.07-6.422-2.703.675-6.082,5.406-8.109,2.367 1.011-3.043 4.39-4.055 7.093-4.731-1.351-2.703-8.785,4.055-7.093-1.691l1.687-1.688c-1.351-2.027-7.773-3.378-12.1639-4.054-17.5703,7.433-38.5234,18.246-38.1836,40.547l1.6875,6.422c2.0273-2.028 4.0547-4.731 7.0977-4.731l1.0117.676c-22.3008,22.301-18.5821,59.473-18.9219,86.168 2.7031,4.73 5.7461,11.152 3.3789,15.207 1.6914,1.351 2.3672,3.039 2.3672,5.066 .3359-1.687-.6758-3.715 1.0117-5.066 3.3789,1.351 2.3672,9.121 7.0977,9.797-2.0274-1.012-2.7032-4.391-2.3672-7.094 .3398-1.016 1.6914-1.016 2.3672-1.016 2.0273,4.055 4.0547,9.801 8.1093,11.489-3.0429-.676-3.0429-4.391-4.0546-6.418 5.0664-2.028 6.4179,5.406 9.8007,8.109 0-3.719 2.3633-5.746 4.7305-8.109l9.7969-2.703c.3398,3.039-2.7031,6.757-4.0547,9.796 4.3945,1.352 10.8125-6.418 16.2189-2.363-1.688,2.027 0,5.742-2.363,7.434l-6.4223,4.73c3.043,3.043 9.8003-6.422 12.1683,1.692l-1.016.675c1.691-1.691 3.379-2.707 5.746-2.367l1.012.676c-2.703,4.391-9.801,4.73-11.488,9.125-3.7192.676-9.8012,1.012-9.8012,6.418-.6758,3.719 2.0273,12.164-2.3633,13.855-1.0156-6.082-2.3672-13.515 1.6875-19.597-3.7148,2.703-4.3906,9.461-9.1211,13.176-3.7187,4.73-2.0273,9.125-4.7305,14.531-.6757,2.703-1.3515,8.785 4.0547,11.152 6.0821-2.703.6758-14.531 10.4727-13.515h4.0547c2.0273-6.422-1.6875-15.883 6.4215-18.926 6.422-2.364 10.137,3.718 13.18,7.433 2.363,9.465 6.758,20.278 16.895,24.332 1.351,1.688 2.027,4.055 1.687,6.418l-.676,1.016c-3.715-7.773-12.84-8.785-19.597-11.488-6.418,4.73-21.6254-.34-19.598,12.84l1.0117,1.011-1.6875,1.692c-3.3789-2.703-.3399-8.786-2.3672-10.813-5.0664-.34-6.7578,3.715-8.1094,7.434 0,4.054 2.7032,7.097 4.0547,10.476 2.0274-3.043 4.3945-6.422 8.1094-8.113 2.3672,5.746 12.1683,8.113 8.1093,14.531-2.363,3.043-5.0663,5.071-9.121,4.055 5.742,4.394 12.164,9.461 20.273,9.125 0,1.352-1.351,2.027-2.363,3.039-5.07,1.016-9.801,2.027-12.844-2.363l1.692-1.692-3.3791-1.351c.6758,3.379 2.7031,11.152 8.7851,12.844 5.746,2.363 8.785-11.493 9.125-.676 3.715,1.351 9.121,4.054 12.84.676" fill="#bf7e71"/>
   <path d="m521.313,380.438c-5.071-4.395-13.18-5.411-19.262-2.368 5.07-.336 13.179.34 19.262,2.368"/>
   <path d="m516.582,373c1.352-1.352-2.703-1.352-4.055-2.363-.675,0-1.351.336-1.691,1.011 .34,2.368 4.73,1.352 5.746,1.352"/>
   <path d="m363.168,356.781 9.801,9.801c2.027-2.027-4.731-6.082 0-8.785 5.742.676 9.461,6.082 15.543,6.418-1.012-1.688-4.055-2.363-3.379-4.731 4.055-3.039 8.785,2.028 13.855,1.352-.675-1.688-2.367-3.039-1.691-5.406 7.098-3.039-3.039-6.758 2.367-9.801-1.016-11.488-14.531-6.418-20.277-14.527-7.434-7.098-15.543-15.543-16.895-26.02l4.731-1.016c-1.352-6.418-3.039-13.175-7.094-18.582-.34-2.367-2.367-4.058-3.379-6.421 0,6.757 5.066,11.152 6.418,16.894-5.406,2.027-5.742-6.422-8.785-8.785 0,4.055 5.746,6.758 2.367,11.488-3.719.676-1.691-3.715-4.059-5.066 .34,1.011-.336,1.351-.675,1.687 2.707,1.352 1.015,5.407 2.367,8.11-.336,1.015-1.692.675-2.367.675l-1.688-2.363c-6.422,18.246 1.688,34.129 2.363,51.024 4.395,2.027 1.016,8.449 4.059,11.488l6.418,8.109c0-3.379-7.094-12.84 0-15.543" fill="#f14d3e"/>
   <path d="m140.15 362.53 1.012-4.054c-2.027 6.757-10.812 7.093-16.219 6.418 3.379 4.054 13.516 3.043 15.207-2.364"/>
   <path d="m172.59 364.22c1.352-5.406-1.352-9.461-4.731-12.84l-4.73 2.367c2.027 3.379 7.098 3.039 8.109 6.418-3.043 2.703-5.746-1.351-8.109-2.363l-1.016 7.094c3.043-1.352 7.098-0.336 10.477-0.676" fill="#bf7e71"/>
   <path d="m567.605,353.742c-.675-.34-1.011.336-1.687.676 3.039,1.352.676,3.039 1.012,5.066-.336-2.027 5.07-3.379.675-5.742"/>
   <path d="m102.301,355.43c-1.016-1.012-7.7737-2.028-9.801.675 1.6914,2.368 7.773,2.368 9.801-.675" fill="#fff"/>
   <path d="m560.508,352.727c-.676,1.691-2.363.675-1.688,2.703h1.688v-2.703"/>
   <path d="m416.898,343.266c-.339-1.352 1.012-1.692 1.688-2.703 2.367-.34 1.691,5.066 4.055,1.011 2.027.34 3.043,2.703 3.043,4.735 0-.68.336-1.016 1.011-1.692 1.016.336 2.368-.34 3.043,1.012v1.691c8.446,2.028 5.407-8.785 12.164-9.8 0-4.055 6.082-5.067 7.434-9.122-2.703-8.449 1.016-16.558 3.043-24.332-6.082,6.082-10.141,14.532-16.223,21.289l-2.363-1.011c-2.703,8.109-10.813,8.785-16.895,13.851-3.043-.336-12.168-.336-16.222,1.016 2.703,3.039 4.73,12.504 11.152,8.109 2.703-1.011 1.688-5.07 5.07-4.054" fill="#fff"/>
   <path d="m140.148,339.887c0-1.016.676-2.703-.675-3.379l-3.383,6.758c2.031.336 3.719-2.028 4.058-3.379"/>
   <path d="m120.89 341.57c0-1.011 0-2.027-1.016-2.363l-0.676 2.363h1.692"/>
   <path d="m111.76 335.16h-1.352c-0.336 1.012 0 2.364 1.352 2.364v-2.364"/>
   <path d="m416.898,333.465c0-1.012 0-2.027-1.015-2.363l8.109-4.055c-2.363.336-6.758,2.027-8.785-1.016 .34-1.687 2.367-2.703 3.379-4.054 .34-.676-5.07,1.351-5.746-1.688 5.746-1.691-2.703-7.437 4.734-8.789-.676,1.352-2.027.676-3.043.676-1.691-1.352-2.027-4.731-1.015-7.094l1.691-1.691c-1.016.339-2.703-.676-3.379.675-1.351-1.687-5.746-.336-8.785-.675 4.391,1.015 1.687,4.394 2.363,6.422h-1.687c1.687,4.73 1.011,6.082-2.367,9.125 1.351-.676 1.691,1.011 2.367,1.351 .676,1.352-1.016,1.688-1.352,2.703h-1.691c.34.336 1.015.676.676,1.352-.676,1.687-2.704.676-4.055,1.011 1.691-.335 3.043,0 4.055,1.692-1.012,1.351-3.039.336-4.731.676 1.352,2.027 4.731-.676 5.746,2.363-.676,1.016-1.691,1.016-2.703,1.016 0,1.011 2.027,2.363 0,3.039 3.039,1.015 12.5,2.027 17.234-.676" fill="#bf7e71"/>
   <path d="m72.902 323.67c3.379-1.691-3.7187-9.465 4.0547-7.434-1.0156-2.031 2.3672-3.043 0-4.734-2.0273 5.41-8.4492 9.465-12.84 12.844 2.3633 5.406 9.7969 1.687 12.84 7.433-1.6914-2.703-3.7187-5.07-4.0547-8.109" fill="#bf7e71"/>
   <path d="m94.191 323.67c-3.043 0.336-5.0703 2.363-4.0547 5.742 4.7305 1.692 2.0274-4.055 4.0547-5.742" fill="#fff"/>
   <path d="m102.98 324.34c-1.016-2.028-3.0434-1.352-4.7309-1.352-3.3789 1.012-0.6758 4.731-2.7031 6.418 2.0273-2.363 8.109-0.336 7.434-5.066" fill="#fff"/>
   <path d="m386.148,328.398c-1.691-.339-3.043-2.027-4.058-3.043 4.058-2.027-3.379-6.417 4.058-5.066-1.015-1.016-2.707-1.016-3.382-2.367 0-.676-.336-2.027.675-2.363 1.692.336 2.707,1.687 4.059,2.363-.34-.336-1.016-.676-.676-1.688 .676-1.355 2.364-.339 3.379-.675-1.691.675-2.367-.68-3.379-1.692v-1.691c1.352-2.028 2.703.676 4.055,1.015 1.012,0-5.406-3.378-.676-5.07l2.363,1.692c1.692-1.016-7.093-4.055-1.687-6.422l.676.675-.676-.675 1.687-1.688-7.433-5.746 1.015,1.016c-1.015,2.027-3.718,2.027-5.07.675l-8.109-12.164c-.34,4.731-.676,8.446 1.687,12.164-.336,1.012-1.687,1.012-2.363,1.012l-3.379-4.055c-1.351,4.395 6.082,12.165 3.379,17.571-2.367.676-3.379-2.028-5.07-3.039 3.043,7.773 10.812,18.246 18.925,19.261" fill="#bf7e71"/>
   <path d="m68.1719,316.234c-4.3946-.339-9.8008,1.688-13.1797-1.355 5.0703-2.027 14.8672,1.016 17.9101-5.742-1.0156-2.028-5.746.676-7.0976-2.367 4.0547-.676 9.125-2.364 12.8437-1.688l-1.6914,1.688c5.7461-3.04 7.0977-8.786 10.4766-13.176-2.7031-1.016-4.7305,5.406-7.0977,1.011 1.0157-1.011 1.0157-2.703 2.3672-3.378 .336-1.012-4.0547,2.703-4.0547-.676v-2.703l-3.3828,1.687c-1.3515-1.351-.3359-4.726-.6758-5.742-1.0117,0-2.7031.676-3.3789-.676-.3359-2.703 2.3672-2.367 2.7032-4.73 0-2.028-2.3633-1.692-3.3789-2.703-3.7149.675-6.7579-6.082-12.1641-4.731 0,.676 2.7031,1.352 1.6914,3.379-4.0547,1.012-9.8008-2.027-13.8555-1.016l5.7461,5.071c-5.4062,3.379-11.1523-3.043-17.9101-1.016-1.6914,1.016.3359,2.367.6758,3.379l-8.1094.676c2.3633,3.043 5.7422,4.734 7.4336,7.433-2.3672,1.356-4.7305-2.363-7.4336-3.375-1.3516,1.012 1.0117,3.375 1.6875,5.067 1.0156,1.015 2.3672,1.691 1.6914,3.043l-.6758,1.011-5.0703-5.07c-1.6875,3.719 4.3945,7.098 0,9.125l-3.0391-6.758c-1.0156,8.11-2.3672,18.246 4.0547,24.332 7.4336,9.121 21.625,12.164 32.4375,8.11 3.043-3.379 7.4336-3.379 10.4766-8.11" fill="#bf7e71"/>
   <path d="m110.41 304.07h-4.055c1.352 7.774 2.704 16.559 9.461 20.278-1.011-3.719-4.39-7.434-3.039-11.153l8.11 12.164c-5.071-6.417-5.071-14.867-10.477-21.289" fill="#f14d3e"/>
   <path d="m445.281,307.445v-1.687c-1.015.676-1.351,2.027-2.367,1.687-2.363-1.687.34-3.379.676-4.73l-2.363,2.367c-1.016-1.352-5.407-3.379-2.368-5.746 0-1.352-3.714,3.043-3.379-.676 1.692-2.027-1.351,2.028-2.363,1.352-2.367-1.352.676-3.039.676-4.731s-1.352,2.367-3.043.676v-3.039c1.352-2.027-1.352,2.027-2.703,1.687-.676-2.363.676-4.054-3.039-4.054-2.367,1.351-3.719,4.73-6.422,4.73 .34.676 2.027,1.352 1.352,2.367l-.676,1.012c2.027.34 3.718-2.027 4.73.676 0,.676.34,2.027-.676,2.367 1.692,0 3.719-.34 4.731,1.688l-2.363,2.367c1.011,0 2.027.336 2.363-.676 .676.676 2.027,1.012 1.691,2.363l-1.691,1.692c1.691,0 3.379-.676 4.055.676 0,2.363-3.715,3.039-3.039,5.746 1.687-.34 2.703-2.368 4.73-1.692 1.352,2.028-.676,4.731-2.367,6.422 8.109,3.039 8.449-8.789 13.855-12.844" fill="#bf7e71"/>
   <path d="m413.52 295.28c-13.176-5.406-19.934-21.965-34.129-23.652-4.391-1.691-0.676-5.07-0.676-8.109 3.379-6.422 14.531-4.395 12.844-12.844l1.687-1.688c-3.715-6.422-13.179-4.394-19.262-4.73-6.757 1.012-9.121 6.082-14.867 8.785-2.027 8.109-1.351 12.504-1.351 20.273 3.718 4.731 5.406 10.477 8.109 15.543 6.758 1.016 2.703-12.5 9.461-8.109l4.055 8.109c6.761-1.011 8.113 5.746 13.855 8.789 4.055-4.054 9.461 5.743 13.18 0 3.379 1.688 4.391-2.703 7.094-2.367" fill="#fff"/>
   <path d="m452.379,279.738v-4.054c-2.027,3.379-3.379.675-6.422,1.687-1.352,5.07.34,9.125-5.746,11.488h-3.039c.336,1.016-1.016,1.692-1.692,2.368 1.692-4.731 5.407-.676 8.11-.676 .34.34 1.015.676.676,1.351 1.691-.336 3.718-3.043 5.07,0l-1.012,1.016c4.055,1.012-1.015,5.742 4.055,4.055 1.012-6.422 2.363-10.477 0-17.235" fill="#bf7e71"/>
   <path d="m123.25,291.227v-.676h-2.363c-.34,1.351 1.687,2.367 2.363.676"/>
   <path d="m218.203,251.352c-13.851,6.761-30.75,1.691-44.601-1.352-.34,3.379 0,6.422 2.363,8.785 2.367-.672 3.379,1.356 4.73,2.367 3.379,0 9.125-1.011 12.164,1.692 .676,1.687-1.011,2.703-1.351,4.054 4.73-.339 9.465-.339 12.844,3.379l-2.368,3.039c9.125-1.687 10.477,6.082 17.911,9.125l-2.704,4.055c2.704,0 5.743,3.039 5.743,5.406-1.352-11.488-7.094-27.371-4.731-40.55" fill="#fff"/>
   <path d="m118.52,285.484c-1.688,1.012-3.04,1.012-4.055,2.364l.676,1.687c.675-2.023 4.394-1.012 3.379-4.051"/>
   <path d="m421.629,288.859c1.351-5.406 5.406,0 9.121-1.687 1.352-7.434 5.406-16.219-4.055-19.598-3.379-1.351-8.109-2.367-11.488-.676l4.731,4.055c-3.04,2.027-7.434-.676-8.786-4.055 6.758-3.718 8.786-10.136 11.489-16.898 2.027-4.73 7.097-3.715 10.476-2.703 4.391,4.394.676,13.18 8.11,14.871 2.703-3.043 2.703-8.109.675-11.492l-4.73-6.418c-.34,1.012.676,2.703-1.016,3.039-4.054-1.012-2.027-7.434-4.73-10.473l-7.434-6.422c9.801-2.367 11.828,19.262 21.965,9.801 9.801,1.688 17.57,1.012 26.02,5.742-4.395-5.066-7.434-10.812-12.164-15.543 2.363-3.714-3.719-5.746-3.379-9.8-6.422-8.11-12.168-15.879-21.629-21.961 .675,4.054 10.476,6.757 4.73,11.488-.676.676 9.465,8.445 0,8.785-.336,1.688 4.395,3.715 4.731,7.434-2.028,2.027-6.418-.676-8.11,3.379 0,1.351.676,3.378-.676,4.73-1.351.34-1.687-1.012-2.363-1.687-1.015-3.719 2.028-6.758 4.731-8.114h1.687l-4.055-4.73 4.731-5.067c-1.688-1.351-4.055-1.691-5.406-4.054 2.027-3.379 2.703-5.407-1.012-8.11l-2.367-2.367c2.367-20.613.676-36.496-8.11-52.715l.676-.675 9.125,13.855c2.703-3.379 1.688-14.191.676-20.273-4.395-9.125-12.84-18.25-20.953-23.657-1.352,1.352-3.379.676-5.067.676-.675,3.719 1.688,3.719 2.704,6.758-.34,4.73 1.011,10.137-4.055,12.844-11.828-1.356-11.828-14.871-22.981-17.911-.336,3.715-1.011,5.067-3.039,8.11-4.054,2.027-2.367,7.769-4.054,11.488-3.043,11.152-8.45,22.641-1.692,34.129-4.73,4.055 2.028,7.434 3.379,11.152 3.043,0 .34,3.715 2.367,5.067-1.691,6.422 6.422,11.828 2.364,19.262-2.364,1.015-5.407,1.351-7.434,3.378-2.703,6.758-11.148,13.18-13.516,20.278 .676,0 2.028-.34 2.368.676-2.028,4.054-6.422,6.082-9.125,10.472 2.027,1.692 6.421.34 5.746,4.055 8.445-8.109 21.625-8.109 31.761-3.039 5.407,1.012 8.786-5.07 12.84-5.07-1.011,1.691-1.011,3.718-3.039,5.07 2.028-.676 3.715.676 5.406,1.687-2.367,3.379-11.152-1.011-12.839,5.407-4.731,7.097 9.461,12.168.675,17.91-3.379.676-8.109-1.012-12.168-1.688 5.747,0 2.368-10.476 9.125-5.406l-1.011-3.383c-3.719,1.016-8.45,3.719-9.465,8.113 .676,3.379 5.746,3.715 8.789,4.731 6.758,8.785 16.894,22.641 30.75,17.23" fill="#bfbfbf"/>
   <path d="m211.78 287.17-3.379 1.687h3.379v-1.687"/>
   <path d="m38.0977,281.426c-2.3672,1.691.6757,3.383.6757,5.07h1.6875l-2.3632-5.07"/>
   <path d="m420.953,285.484v-.675c-3.043.675-7.098-.68-9.801-2.368l-1.691-2.703c0,3.715 4.394,4.391 6.422,6.758 1.691-.336 3.719.34 5.07-1.012"/>
   <path d="m441.227,283.793c.675-1.352-1.016-2.027-1.692-3.043-1.012,1.016-1.012,2.367-2.363,3.043l-1.692-1.352-.675,2.368 .675-1.016c.34,3.043 4.395,1.352 5.747,0" fill="#fff"/>
   <path d="m200.3 283.79v1.016l5.742-1.016h-5.742"/>
   <path d="m58.371 281.43c-1.6875-0.676-2.7031-2.028-4.7305-1.688-1.0117 3.039 4.0547 1.012 4.7305 1.688"/>
   <path d="m62.426 278.39c-0.6758-0.676-1.3516-2.028-2.3633-1.692v1.692h2.3633"/>
   <path d="m439.54 265.21c2.028 5.07-4.39 10.137 2.367 13.18 1.688-4.395 1.012-9.801-2.367-13.18" fill="#bfbfbf"/>
   <path d="m170.223,270.277c-2.368-1.691-5.41-.339-7.098,1.352 2.703-1.691 5.066.336 7.098-1.352"/>
   <path d="m156.367,265.207c-2.367-.336-4.054.676-5.406,2.367 1.352,1.012 4.055-2.027 5.406-2.367"/>
   <path d="m433.793,260.477c.676,2.367 2.363,4.394 1.687,7.097v-6.422h-5.742c-2.703,3.719 1.352,4.395 3.379,7.434 1.352-3.379-3.043-6.758.676-8.109" fill="#fff"/>
   <path d="m430.75,250.676c0-1.352-2.363-.676-3.379-.676l-4.055,8.113c4.055-.675 4.731-5.07 7.434-7.437" fill="#f14d3e"/>
   <path d="m162.109,252.367c-.675-1.351 1.016-2.367 1.692-3.379l.676,1.012c.336-1.012-.34-2.703 1.011-3.379l-1.011-.676c-.34,2.368-7.098,2.703-4.055,6.422h1.687"/>
   <path d="m162.11 239.19c-2.027 1.015-3.039 5.07-4.73 7.433l-3.379 4.055c5.07-0.676 6.758-7.094 8.109-11.488"/>
   <path d="m226.313,239.188c9.8-25.344-2.364-52.04-14.528-73.665l-3.379-3.378c1.688,2.703 4.391,5.746 3.379,8.109-4.394-1.352-5.746-7.098-8.109-10.477-2.367-9.797-11.492-6.082-15.547-14.527l-.676.676-1.687-1.352v5.406c5.066,1.688 9.797,6.083 12.839,10.813 15.208,22.301 29.059,48.32 21.965,77.043h-1.691c.676-6.082.34-12.164-.676-16.219 0,1.352-.336,3.039-1.687,4.055-2.703-6.082-4.395-12.504-8.11-17.91 3.715,4.73 6.418,15.547 5.742,23.316-4.39-2.027-3.378-9.125-5.742-13.515-2.367-5.407-5.746-10.137-9.801-14.868 5.407,12.5 11.153,25.004 9.801,39.871-.676.676-1.351,2.028-2.367,1.692-2.363-13.516-5.742-26.695-14.531-37.508 5.07,7.094 6.082,15.879 8.789,23.652-.676.676-1.356,2.028-2.367,1.692-2.028-7.098-6.082-12.844-10.477-18.586l-5.066-4.055c.336,5.067 6.758,10.137 4.054,14.527l-5.746-6.417c-1.011,3.378 2.703,5.746 0,8.785-3.379-.676-2.363-6.758-7.093-5.746-5.747,9.125 4.054,17.234.675,25.343 16.219,5.407 39.871,8.789 52.036-6.757" fill="#a54f49"/>
   <path d="m152.313,242.566c-2.028.676-2.368,4.055-2.368,6.422h1.692l.676-6.422"/>
   <path d="m364.859,219.926c2.364-3.039 7.434-5.406 6.418-9.797 5.071-2.703 12.164-5.406 8.11-12.844-.336-1.687-2.364-3.715-4.055-4.051 2.027,12.164-11.488,4.391-10.473,16.219-6.082,7.77-14.531,13.176-25.007,12.164 5.07.676 5.07,7.434 8.109,10.477l.676-1.016c3.043,2.703 3.379,6.422 4.054,9.801 10.477-5.07 2.368-15.207 12.168-20.953" fill="#fff"/>
   <path d="m167.86 236.15c-1.351-0.339-1.691 1.012-2.367 1.688v2.367c2.028-0.34 2.367-2.367 2.367-4.055"/>
   <path d="m159.75 235.13v-1.352c-1.351-0.336-1.691 1.016-1.691 2.367 1.015 0 1.351-0.339 1.691-1.015"/>
   <path d="m163.125,225.672v-1.016h-2.703l1.012,1.692c.339-.336.675-1.012 1.691-.676"/>
   <path d="m350.328,214.859 .676,1.012c2.703-.336 3.043-8.109 8.109-8.109 2.367,1.691-.336,3.043-.675,4.73 6.757-5.742 4.394-19.933 12.839-20.273-.675-1.692 5.746-3.043 3.379-8.11-2.363-2.703-4.054-6.082-4.73-9.8 1.691-3.039 0-8.45-1.688-12.164 .676-9.125 1.352-18.586 5.742-26.696-3.039-3.043-8.109-2.027-11.488,1.016-7.433,6.418-10.812,17.23-11.488,26.691-8.785,10.141-14.191,30.414-31.426,28.387-3.379-6.422 5.746-1.352 8.11-4.055 6.757-4.054 4.054-10.812 2.367-16.218 .336-2.368-2.367-1.016-3.379-2.368-4.395-3.043-6.086-13.515-11.153-9.8-3.043,2.707-6.082,3.718-7.433,8.113l-3.043-3.383c-1.012,4.395 0,6.422-2.703,9.801-.336,10.137 3.043,17.57 11.488,25.008h-4.055c5.071,5.742 13.52,6.082 16.899,11.488-.34,1.351-2.028.676-3.043.676-1.012,4.054 5.07,3.715 7.097,5.742 5.067.676 15.204,2.703 19.598-1.688" fill="#bfbfbf"/>
   <path d="m494.617,203.707c0-1.012.336-2.027-.676-2.363 .336,2.363-.675,4.054-2.367,5.406-6.418-1.016-10.812.336-12.164-7.098 1.352,2.703 3.043,6.758 2.367,9.801-3.379-2.027-4.394-6.082-5.07-9.801-.336,4.055 4.055,7.434 2.703,11.153 5.07,2.703 14.192,0 15.207-7.098" fill="#808080"/>
   <path d="m473.664,199.652c1.352-2.027-.672-5.406 2.367-6.418 1.692,0 2.703,1.688 4.055,2.364 1.691-2.364 4.055-6.082 7.434-6.422 2.367,2.027 5.07,5.406 6.421,8.789 1.688-5.07 7.094-.68 10.473-.68l4.059,2.367c-.676-3.379 1.011-5.406 3.379-7.433-2.704-6.082-9.125-9.125-14.872-11.153-3.378-1.687-8.109-1.011-11.148,1.352l3.039,3.379c-1.351,3.719-4.055,0-6.418,0l-4.73-4.055c1.011-.676 1.687-2.363 3.039-1.687l1.015,1.011c-1.015-7.433.676-13.515 4.731-18.921 4.055-1.016 6.418,1.687 9.121,3.378 1.351,4.055 0,10.477 4.055,12.165-2.704-7.77-4.055-16.219-11.489-21.965-1.687,1.015-4.73,0-6.418-.676 1.012-1.352 2.364-2.027 4.055-1.688 2.363-1.351 3.715-1.691 4.731-5.746-.34-12.504-.676-26.019-12.165-33.113-3.718-1.352-5.746-1.352-9.8-1.016-4.731-1.351-4.731-11.488-9.461-7.093-2.028,3.714-3.719,8.785-1.692,12.839 2.028,3.379 3.379,7.434 6.422,10.473-3.379,5.07 2.363,10.817 4.055,15.547 1.012,2.027 5.406-.676 6.418,2.363-9.461,3.379-18.246,10.137-28.383,9.801 6.422,2.363.34,7.094 1.016,8.785 1.687-5.07 5.406-7.773 10.472-9.461l13.856-1.691c1.351,6.082-5.071,12.168-1.692,19.262 1.352.675.676,2.367.676,3.379l-.676.675c-2.363-4.054-8.445-6.082-13.175-4.054-9.125,6.757-5.407,14.867-4.055,23.656 2.363,3.715 6.418,7.094 10.812,8.109 4.731.676 8.446-2.367 10.473-6.422" fill="#808080"/>
   <path d="m520.64 201.34c-2.028-0.676-4.055-4.059-6.422-1.692 1.015 1.692 4.055 3.379 6.422 1.692" fill="#fff"/>
   <path d="m467.922,197.285c.336-4.051 3.039-7.769.676-11.488-3.043,1.351-3.719,4.73-5.407,7.437 2.028.336 3.379-2.031 4.055-3.382 2.027,2.367-.676,5.406-1.691,7.433-2.364,2.031-5.407,2.707-8.11.68-1.011,2.363 1.692,2.363 2.368,3.379 3.714,1.011 5.742-2.028 8.109-4.059"/>
   <path d="m262.81 193.23c-3.043-1.691-4.395 2.024-5.071 4.051 1.692 0 3.383-3.039 5.071-4.051"/>
   <path d="m467.25 183.43c-1.016-1.016-5.406 1.011-5.07 4.054 2.027-0.34 3.379-2.703 5.07-4.054"/>
   <path d="m327.69 184.11c-2.364-0.675-1.688-4.054-4.055-5.746l-1.012 1.016c1.012 2.027 3.039 4.055 5.067 4.73"/>
   <path d="m464.543,181.066-2.367-1.011v1.687c1.015,0 2.027.34 2.367-.676"/>
   <path d="m317.887,178.363h-1.688l1.012,2.703c1.016-.675.676-1.687.676-2.703"/>
   <path d="m354.38 140.52c-6.082 4.054-22.977 6.757-21.965 20.273 6.082 4.391-1.352 11.488 3.379 16.895 14.867-9.461 7.433-26.02 18.586-37.168" fill="#fff"/>
   <path d="m492.25,176c.34-2.703-3.379,2.027-5.742,1.688l5.742-1.688" fill="#fff"/>
   <path d="m493.941,150.992c-.675.676-2.367,2.703-1.691,4.731 8.449,5.07 20.953,4.394 25.008,14.531l-.676-4.731-22.641-14.531" fill="#808080"/>
   <path d="m491.574,166.199c-.676-1.015-1.687-.676-2.703-.676l-2.363,3.379 1.012.676c0-2.363 2.367-2.363 4.054-3.379" fill="#fff"/>
   <path d="m334.109,147.613c5.067-3.379 9.797-7.433 16.219-8.109l1.688-3.039c-1.352,1.351-5.743,2.363-9.121,3.039l-.676-.676c1.687-4.055 7.433-3.379 8.785-8.109l-.676-8.11h-2.367c.676,5.407-.336,10.813-5.742,12.84-3.719,1.016-9.125,2.028-12.164-.676 5.742-3.378 15.203-2.027 13.851-12.164-6.082,1.688-14.867-1.015-17.906,6.418-1.352,8.45-3.719,16.559-7.437,24.332 4.394,1.688 4.734,2.704 9.125,5.743l.675,3.043c0-5.407 2.703-10.137 5.746-14.532" fill="#f14d3e"/>
   <path d="m456.434,145.25c0,1.688.675,3.715-1.352,4.73-3.719-3.042-5.07,2.364-6.758,4.055l11.489-5.406-3.379-3.379" fill="#bf7e71"/>
   <path d="m463.87 146.94c-5.406-9.797-5.07-22.641-12.84-30.75l-4.054-1.012c7.093 6.418 6.757 24.328 16.894 31.762" fill="#fff"/>
   <path d="m167.86 129.03c-1.351-1.351-3.042-4.39-5.746-4.054 0.34 2.027 3.379 3.718 5.746 4.054"/>
   <path d="m160.42 128.35c-0.34-1.012-2.027-1.352-1.352-2.704h-1.691c-1.012 2.368 1.691 2.704 3.043 2.704"/>
   <path d="m149.94 120.92h1.6914v2.3672h-1.6914v-2.3672z"/>
  </g>
 </g>
</svg>
