<?xml version='1.0' encoding='utf-8'?>
<svg xmlns="http://www.w3.org/2000/svg" enable-background="new -153.874 -0.0469 1268.9209 1340.1917" version="1.1" viewBox="-153.874 -0.0469 1268.9209 1340.1917">
<g stroke-width=".0938">
	<path d="m370.74 0h5.5c-2.9 7.88-2.19 16.46-4.58 24.44-2.61 9.63-6.35 18.91-8.88 28.56-1.33 5.1-1.76 10.38-2.42 15.6-3.08 19-0.46 38.28-1.13 57.41-0.59 10.88 2.11 21.57 2.12 32.43 0.03 7.54 2.04 14.86 2.92 22.31 0.39 2.36 0.5 4.89 1.72 7.02 4.38 2.25 9.26 3.4 13.6 5.8 8.25 4.46 16.65 8.89 23.85 14.96 2.69 1.97 3.12 5.4 3.93 8.38-4.79 0.55-9.61 1.26-14.44 0.82-5.54-0.58-10.94-2.02-16.34-3.3 0.05 2.37-1.06 4.77-0.23 7.1 2.37 8.08 7.4 14.99 12.55 21.52 4.04 5.34 7.72 10.94 11.66 16.36 4.27 5.8 7.58 12.26 12.15 17.86 5.75 7.05 10.01 15.29 12.42 24.07-1.69 1.58-3.52 3.07-4.82 5 0.25 8.66 6.57 15.38 11.3 22.1 3.33 4.3 2.57 9.97 3.17 15.04l-0.34-0.68c-1.86-4.44-1.68-9.62-4.46-13.68-2.38-3.59-5.5-6.6-8.12-9.99-4.77-6.13-8.33-13.21-10.29-20.73-2.39-8.68-3.23-17.72-5.79-26.35-1.24-4.25-3.87-7.86-6.49-11.34-3.6-4.79-6.69-9.92-10.27-14.72-2.68-3.65-5.6-7.12-8.01-10.95-3.56-5.59-5.77-11.89-9.05-17.64 2.02-1.7 4.05-4 6.94-3.84 7.95-0.28 15.99 2.24 23.86 0.19 0.63-2.85-2.19-4.76-4.02-6.44-8.18-6.26-17.34-11.12-26.76-15.22-2.79-1.2-5.57-2.41-8.35-3.6-0.23-4.73-0.96-9.43-2.16-14.01-1.97-7.23-0.6-14.88-2.64-22.1-2.3-8.28-1.43-16.91-1.49-25.38-0.02-13.34-0.01-26.67-0.01-40 0.04-6.13-0.7-12.35 0.77-18.38 1.03-4.42 1.97-8.86 2.65-13.35 1.24-8.9 5.05-17.13 7.63-25.68 2.88-9.05 4.17-18.5 4.97-27.94-5.38 3.78-11.47 6.79-15.66 12.01-9.09 12.04-18.24 24.08-26.14 36.95-4.16 6.46-6.07 14.19-11.35 19.94 7.64-22.07 22.98-40.17 36.68-58.68 3.6-4.99 8.48-8.92 13.85-11.87z" fill="#A2A0A2" stroke="#A2A0A2"/>
	<path d="m537.73 0h8.62c3.75 3.58 7.76 6.94 12.49 9.17 6.03 3.06 10.78 8 16.46 11.58 3.76 2.45 7.95 4.11 11.9 6.22 12.44 7.22 25.2 14.06 38.73 19.04 14.03 6.36 28.24 12.38 42.83 17.36 5.29 2.01 10.33 4.65 15.62 6.66 9.43 2.84 18.85 5.79 28.52 7.7 8.61 2.21 17.54 2.79 26.18 4.89 7.18 1.74 14.61 0.96 21.92 1 8.75-0.16 17.65 0.95 26.22-1.39 6.9301-1.22 13.63-3.85 20.64-4.47 6.75 3.71 12.1 9.47 18.37 13.92 8.43 5.98 14.61 14.48 19.79 23.29 5.92 10.34 7.34 22.36 10.14 33.75 3.36-2.94 7.7401-3.95 11.59-6.02 0.26 2.45 0.35 4.96 1.12 7.33 1.55 2.09 3.9 3.46 5.37 5.61 0.8 4.13 0.17 8.37 0.01 12.53 2.01 0.4 4.02 0.79 6.04 1.21-0.99 1.32-1.97 2.65-3.02 3.91-2.71 3.38-7.08 4.56-10.83 6.38-1.24-1.71-2.47-3.43-3.7-5.14-6.74 2.12-11.96 7.1-18.5 9.63 0.49-4.12 1.52-8.15 2.99-12.02 3.21-8.32 2.33-17.38 2.34-26.1 0.16-7.38-2.66-14.28-4.57-21.28-1.78-6.65-6.14-12.13-9.8-17.83-5.32-8.19-14.95-12.27-24.21-14.04-8.94-1.78-17.56 1.86-26.06 4.02-11.84 3-23.44 7.89-35.85 7.8-12.19-0.08-24.43 0.3-36.57-1.01-2.37-0.05-5.49-0.57-6.95 1.81-3.87 5.79-5.18 13-9.74 18.4-7.72 9.36-17.19 17.51-22.66 28.54-2.96 5.7-2.96 12.33-2.66 18.59 0.29 5.15 1.43 10.61 4.95 14.57 2.1 2.21 5.45 0.62 7.72-0.49 6.02-3.53 10.6-8.95 15.97-13.32 2.08 1.56 4.29 3.02 5.98 5.03 3.51 4.75 3.2 12.04 8.69 15.32 6.81 4.91 15.42 5.68 22.85 9.25 8.15 4.15 17.51 5.69 24.89 11.38-5.02 1.53-10.22 0.91-15.37 0.9-11.75 1.16-22.56 6.32-33.59 10.16-9.79 3.38-18.63 9.83-24.09 18.7-1.08-2.05-0.11-4.03 1.22-5.68 6.6201-5.08 10.9-12.57 13.37-20.43 2.1-8.2 3.67-16.93 1.23-25.24l-0.06-0.92c-0.12-1.69-0.23-3.39-0.33-5.08-0.52 0.08-1.56 0.24-2.08 0.32-1.12 2.25-2.06 4.65-3.66 6.62-4.8 0.42-9.71 0.01-14.39 1.36-7.74 2.26-15.87 2.53-23.87 2.26-4.47-0.19-9.54-1.4-12.12-5.39-2.81-4.61-3.44-10.2-6.39-14.73-2.07-3.14-4.52-6.05-6.1-9.48-1.49-2.58-2.37-5.96-5.37-7.19-21.41-9.37-45.47-16.28-68.86-10.91-9.63 2.28-18.38 7.82-24.77 15.36-3.31 2.49-5.9 5.77-7.86 9.41 5.39-1.78 10.21-4.81 15.29-7.27 1.36 0.24 2.72 0.48 4.09 0.73-2.71 4.1-6.4901 8.69-5.15 13.7 6.72-6.1 11.4-14.07 18.35-19.94 5.35-1.93 10.99-2.99 16.66-3.38 4.53 0.01 9.05 0.42 13.58 0.75-1.66 4.3-3.65 8.49-5.05 12.89-1.2 3.73 0.15 7.61 1.26 11.19 3.01 8.61 5.15 17.83 10.85 25.17 3.25 3.82 6.92 7.25 10.12 11.11 3.35-1.47 6.67-3.38 10.4-3.6 2.9 1.34 5.42 3.35 8.24 4.85 1.81-0.82 3.66-1.57 5.47-2.43 4.1-2.21 8.77 0.63 12.16 2.96 0.74 2.33-1.49 3.88-2.92 5.31-5.38 4.74-12.32 7.61-16.62 13.57-7.05 5.31-15.78 7.31-23.64 11.04-2.5 1.13-4.97 2.3-7.47 3.4-9.37 2.31-18.3 6.35-27.97 7.36-5.91 0.9-11.9 0.45-17.8-0.17 0.66 1.63 0.87 3.44 1.64 5.04 2.55 3.25 6.4 5.31 8.59 8.88-1.11 6.84-9.5 6.65-14.79 7.77-0.99 1.51-2 3-2.96 4.52 1.45-2.9 2.45-6.09 2.96-9.27-1.03-9.02-2.9-17.94-3.94-26.96-0.96-8.47 1.21-17.24-1.4-25.51-2.12-6.57-8.18-10.6-11.46-16.47-2.48-4.38-4.21-9.22-4.99-14.2-0.78-4.48 1.3-8.7 2.4-12.94 1.24-4.17 1.58-8.76 4.23-12.37 5.11-7.11 9.79-14.64 16.37-20.54 4.61-4.69 10.86-7.17 17.04-9.04 7.12-2.16 14.63-0.97 21.93-1.66 7.39-0.7 14.76 0.38 22.14 0.6 9.98 0.31 19.95 1 29.94 0.64 7.98-0.36 16.14 0.64 23.94-1.61 6.72-1.91 13.92-2.28 20.21-5.56 4.9301-2.5 10.07-5.49 12.96-10.38 2.32-4.44-0.67-9.2-3.48-12.61-8.05-10.66-20.96-15.92-33.31-19.8-10.07-3.53-20.87-2.21-31.31-2.15-25.19 0.72-50.88 6.33-72.2 20.27-7.94 4.46-14.95 10.34-21.6 16.52-7.8 7.33-12.6 17.25-20.59 24.39-5.54 4.91-11.44 9.52-18.04 12.9-5.48 2.82-11.69 3.44-17.72 4-1.67-3.7-3.72-7.24-5.12-11.06-0.66-1.74 0.55-3.43 0.77-5.15 0.2 0.71 0.61 2.12 0.81 2.82 1.08 4.73 4.19 10.15 9.64 10.24 6.42-0.25 12.6-2.88 17.76-6.62 7.59-5.72 15.06-11.88 20.37-19.88 8.69-13.13 21.36-23.05 34.7-31.11 8.7-5.35 18.04-9.73 27.87-12.54 8.9-2.48 17.81-5.68 27.19-5.51 12.57 0.66 25.02-2.39 37.58-1.34 7.61 0.61 15.32-0.31 22.85 1.24 9.88 1.98 19.95 2.93 29.73 5.43 10.39 2.66 20.96 4.91 30.9 9.04 3.04 1.39 6.41 1.22 9.67 1.12-4.94-6.17-11.18-11.68-18.88-13.99-3.08-1.14-6.17-2.23-9.18-3.55-4.85-4.31-11.71-3.98-17.24-6.95-4.15-2.14-8.82-2.78-13.43-2.99 0.06-0.6 0.13-1.2 0.2-1.8-5.95-0.69-11.89-1.38-17.85-1.88 0.47-0.61 0.94-1.22 1.42-1.83-4.33 0.07-8.67-0.05-12.98-0.42-7.98-0.68-16.01-0.15-23.96-1.15-9.53-1.14-19.12-1.07-28.69-1.06-5.53-0.01-11.01 0.82-16.41 1.92-9.67 1.88-19.6 3.31-28.65 7.41-12.74 6.3-25.24 13.63-35.19 23.93-3.49 2.86-7.15 5.51-10.61 8.41 2.25-2.76 4.42-5.63 7.15-7.95 13.72-12.01 28.91-22.99 46.4-28.73 10.43-4 22.04-3.34 32.34-7.78 0.96-1.49 0.5099-3.35 0.02-4.92-2.03-5.69-5.78-10.65-10.39-14.5-12.04-10.28-24.59-20-35.77-31.24-3.6401-3.83-6.4301-8.37-10.16-12.13z" fill="#A2A0A2" stroke="#A2A0A2"/>
	<path d="m357.7 13.66c4.19-5.22 10.28-8.23 15.66-12.01-0.8 9.44-2.09 18.89-4.97 27.94-2.58 8.55-6.39 16.78-7.63 25.68-0.68 4.49-1.62 8.93-2.65 13.35-1.47 6.03-0.73 12.25-0.77 18.38 0 13.33-0.01 26.66 0.01 40 0.06 8.47-0.81 17.1 1.49 25.38 2.04 7.22 0.67 14.87 2.64 22.1 1.2 4.58 1.93 9.28 2.16 14.01 2.78 1.19 5.56 2.4 8.35 3.6-3.59-0.28-7.18-0.07-10.76 0.11-0.65 6.74-2 14.06 1.13 20.4 1.79 3.54 6.16 3.98 9.61 4.8 3.28 5.75 5.49 12.05 9.05 17.64 2.41 3.83 5.33 7.3 8.01 10.95 3.58 4.8 6.67 9.93 10.27 14.72 2.62 3.48 5.25 7.09 6.49 11.34 2.56 8.63 3.4 17.67 5.79 26.35 1.96 7.52 5.52 14.6 10.29 20.73 2.62 3.39 5.74 6.4 8.12 9.99 2.78 4.06 2.6 9.24 4.46 13.68l0.34 0.68c0.18 0.35 0.54 1.05 0.72 1.41-3.73 3.76-8.16 7.38-13.55 8.25-1.68 0.26-2.96-1.06-4.15-2-7.45-7.55-15.59-14.39-22.23-22.71-12.05-11.3-20.4-25.67-30.21-38.8-6.71-9.52-11.33-20.26-16.43-30.68-3.43-6.62-6.16-13.57-8.24-20.73-2.67-9.29-6.68-18.19-8.37-27.75-1.59-8.8-3.79-17.51-4.49-26.43-1.18-19.59-2.21-39.35 0.25-58.88 1.81-10.74 2.6-21.66 5.5-32.2 1.72-9.62 5.5-18.67 8.02-28.08 3.89-14.19 10.26-27.51 16.39-40.83 1.76-3.31 2.11-7.07 2.78-10.7-0.77 0.08-2.31 0.23-3.08 0.31z" fill="#868586" stroke="#868586"/>
	<path d="m357.7 13.66c0.77-0.08 2.31-0.23 3.08-0.31-0.67 3.63-1.02 7.39-2.78 10.7-6.13 13.32-12.5 26.64-16.39 40.83-2.52 9.41-6.3 18.46-8.02 28.08-2.9 10.54-3.69 21.46-5.5 32.2-2.46 19.53-1.43 39.29-0.25 58.88 0.7 8.92 2.9 17.63 4.49 26.43 1.69 9.56 5.7 18.46 8.37 27.75 2.08 7.16 4.81 14.11 8.24 20.73 5.1 10.42 9.72 21.16 16.43 30.68 9.81 13.13 18.16 27.5 30.21 38.8 6.64 8.32 14.78 15.16 22.23 22.71 1.19 0.94 2.47 2.26 4.15 2 5.39-0.87 9.82-4.49 13.55-8.25 1.21-1.25 2.43-2.5 3.66-3.74 0.46 4.03-0.31 8.03-2.5 11.47-5.07 8.51-6.08 18.54-7.26 28.17-0.9-0.15-1.79-0.29-2.67-0.42-0.98-1.54-1.95-3.08-2.91-4.62-3.36-0.11-6.71-0.2-10.06-0.4-2.12-3.6-5.91-5.39-9.64-6.84-3.61-1.29-5.2-5.11-7.21-8.03 3.56 0.28 7.15 0.38 10.63 1.3 0.73-3.51 2.08-7.02 1.74-10.65-1.08-2.27-2.83-4.1-4.51-5.93-4.57-4.76-8.87-9.81-13.98-14.02-3.86-3.13-7.12-6.88-10.42-10.56-3.61-4.07-8.39-6.85-12-10.9-7.38-8.15-14.82-16.26-21.55-24.96-2.99-4.46-6.88-8.24-9.76-12.78-3.39-5.23-7.54-9.96-10.37-15.54-6.02-10.63-12.22-21.32-15.9-33.04-4.85-12.26-7.34-25.33-8.87-38.39-2.01-9.21-1.29-18.67-1.37-28.01-0.07-7.45 0.95-14.86 0.75-22.3 0.58 0.22 1.17 0.45 1.76 0.69-0.7-11.54 3.62-22.37 6-33.45 1.81-7.89 5.28-15.27 6.88-23.22 0.46 0.11 0.9 0.26 1.36 0.4 0.92-2.87 1.92-5.72 2.9-8.57 5.28-5.75 7.19-13.48 11.35-19.94 7.9-12.87 17.05-24.91 26.14-36.95m70.39 339.37c-4.67 2.73-10.4 2.42-15.22 4.77-1.51 2.05-2.24 4.51-3.1 6.87-2.63-0.18-5.27-0.32-7.9-0.37 4.62 2.97 10.54 4.28 13.6 9.24 3.7 0.15 7.45 0.6 11.12-0.1 2.59-1.91 2.71-5.53 3.52-8.39 0.96-5.96 3.64-11.41 5.78-16.99-2.56 1.72-5.13 3.43-7.8 4.97z" fill="#4B474B" stroke="#4B474B"/>
	<path d="m582.59 67.5c5.4-1.1 10.88-1.93 16.41-1.92 9.57-0.01 19.16-0.08 28.69 1.06 7.95 1 15.98 0.47 23.96 1.15 4.31 0.37 8.65 0.49 12.98 0.42-0.48 0.61-0.95 1.22-1.42 1.83 5.96 0.5 11.9 1.19 17.85 1.88-0.07 0.6-0.14 1.2-0.2 1.8 4.61 0.21 9.28 0.85 13.43 2.99 5.53 2.97 12.39 2.64 17.24 6.95-8.41-1.18-16.07-5.05-24.28-7.01-10.44-2.5-21-4.54-31.69-5.51-14.71-2.68-29.72-2.23-44.6-2.63-9.98-0.43-19.98-0.08-29.93 0.63-18.55 2.63-36.34 10.21-51.08 21.78-3.56 2.89-7.4 5.38-11.2 7.92 9.95-10.3 22.45-17.63 35.19-23.93 9.0499-4.1 18.98-5.53 28.65-7.41z" fill="#4B474B" stroke="#4B474B"/>
	<path d="m581.03 69.14c9.95-0.71 19.95-1.06 29.93-0.63 14.88 0.4 29.89-0.05 44.6 2.63 10.69 0.97 21.25 3.01 31.69 5.51 8.21 1.96 15.87 5.83 24.28 7.01 3.0099 1.32 6.1 2.41 9.18 3.55 4.63 3.03 8.94 6.58 12.51 10.83-8.0699-0.59-14.93-5.57-22.93-6.53-7.88-1.05-15.31-4.18-23.22-5.03-8.3-1.07-16.48-3.14-24.89-3.15-12.03-1-24.12-1.08-36.17-0.42-5.84 0.45-11.68 0.59-17.52 0.4 0.11 0.8 0.24 1.6 0.37 2.4-9.38-0.17-18.29 3.03-27.19 5.51-9.83 2.81-19.17 7.19-27.87 12.54-13.34 8.06-26.01 17.98-34.7 31.11-5.31 8-12.78 14.16-20.37 19.88-5.16 3.74-11.34 6.37-17.76 6.62-5.45-0.09-8.56-5.51-9.64-10.24 3.99-4.67 8.48-8.96 11.74-14.22 4.43-7.01 8.08-14.85 14.67-20.18 3.68-2.92 7.16-6.08 10.4-9.48 3.46-2.9 7.12-5.55 10.61-8.41 3.8-2.54 7.64-5.03 11.2-7.92 14.74-11.57 32.53-19.15 51.08-21.78z" fill="#090909" stroke="#090909"/>
	<path d="m608.49 83.31c5.84 0.19 11.68 0.05 17.52-0.4 12.05-0.66 24.14-0.58 36.17 0.42 8.41 0.01 16.59 2.08 24.89 3.15 7.91 0.85 15.34 3.98 23.22 5.03 8 0.96 14.86 5.94 22.93 6.53-3.5699-4.25-7.8799-7.8-12.51-10.83 7.7 2.31 13.94 7.82 18.88 13.99-3.26 0.1-6.63 0.27-9.67-1.12-9.94-4.13-20.51-6.38-30.9-9.04-9.78-2.5-19.85-3.45-29.73-5.43-7.53-1.55-15.24-0.63-22.85-1.24-12.56-1.05-25.01 2-37.58 1.34-0.1301-0.8-0.2601-1.6-0.3701-2.4z" fill="#868586" stroke="#868586"/>
	<path d="m561.09 148.05c23.39-5.37 47.45 1.54 68.86 10.91 3 1.23 3.88 4.61 5.37 7.19 1.58 3.43 4.03 6.34 6.1 9.48 2.95 4.53 3.58 10.12 6.39 14.73 2.58 3.99 7.65 5.2 12.12 5.39 8 0.27 16.13 0 23.87-2.26 4.68-1.35 9.59-0.94 14.39-1.36 1.6-1.97 2.54-4.37 3.66-6.62 0.52-0.08 1.56-0.24 2.08-0.32 0.1 1.69 0.21 3.39 0.33 5.08-2.1 1.18-4.43 2.1-6.1 3.89-2.92 3.11-4.66 7.22-7.99 9.97-2.8 1.99-6.22 2.79-9.4 3.96-10.89 3.52-20.57 9.78-30.57 15.2-8.6 4.63-16.27 10.78-25.01 15.14 4.3-5.96 11.24-8.83 16.62-13.57 1.43-1.43 3.66-2.98 2.92-5.31-3.39-2.33-8.06-5.17-12.16-2.96-1.81 0.86-3.66 1.61-5.47 2.43-2.8199-1.5-5.34-3.51-8.24-4.85-3.73 0.22-7.05 2.13-10.4 3.6-3.2-3.86-6.87-7.29-10.12-11.11-5.7-7.34-7.84-16.56-10.85-25.17-1.11-3.58-2.46-7.46-1.26-11.19 1.4-4.4 3.39-8.59 5.05-12.89-4.53-0.33-9.05-0.74-13.58-0.75 7.7-0.55 15.51-0.72 23.12 0.81 7.56 1.33 14.96 3.41 22.42 5.14 2.38 0.81 4.5-0.79 6.75-1.27-14.04-8.42-30.35-11.73-46.38-13.85-8.53-0.93-17.1 0.54-25.31 2.78-3.89 1-7.33 3.16-10.54 5.5-3.52 2.51-7.18 4.79-10.78 7.17l-0.66 0.47c6.39-7.54 15.14-13.08 24.77-15.36z" fill="#868586" stroke="#868586"/>
	<path d="m558.3 150.27c8.21-2.24 16.78-3.71 25.31-2.78 16.03 2.12 32.34 5.43 46.38 13.85-2.25 0.48-4.37 2.08-6.75 1.27-7.46-1.73-14.86-3.81-22.42-5.14-7.61-1.53-15.42-1.36-23.12-0.81-5.67 0.39-11.31 1.45-16.66 3.38-5.7 2.04-11.65 3.3-17.29 5.51-5.08 2.46-9.9 5.49-15.29 7.27 1.96-3.64 4.55-6.92 7.86-9.41l0.66-0.47c-0.92 1.73-1.74 3.5-2.57 5.26 5.33-2.42 10.64-4.93 16.22-6.75 6.69-2.11 13.22-5.01 20.27-5.77 5.35-0.61 10.69-1.62 16.1-1.62 10.95 0.34 21.45 3.98 32.34 4.83-8.96-6.5-20.45-7.35-31-9.26-13.73-3-27.97 0.65-40.58 6.14 3.21-2.34 6.65-4.5 10.54-5.5z" fill="#4B474B" stroke="#4B474B"/>
	<path d="m547.76 155.77c12.61-5.49 26.85-9.14 40.58-6.14 10.55 1.91 22.04 2.76 31 9.26-10.89-0.85-21.39-4.49-32.34-4.83-5.41 0-10.75 1.01-16.1 1.62-7.05 0.76-13.58 3.66-20.27 5.77-5.58 1.82-10.89 4.33-16.22 6.75 0.83-1.76 1.65-3.53 2.57-5.26 3.6-2.38 7.26-4.66 10.78-7.17z" fill="#090909" stroke="#090909"/>
	<path d="m543.75 165.55c5.64-2.21 11.59-3.47 17.29-5.51-6.95 5.87-11.63 13.84-18.35 19.94-1.34-5.01 2.44-9.6 5.15-13.7-1.37-0.25-2.73-0.49-4.09-0.73z" fill="#868586" stroke="#868586"/>
	<path d="m885.92 165.12c0.93 0.43 1.88 0.87 2.83 1.31-0.14 3.75-0.21 7.75-2.37 11.01-4.2 5.15-9.16 9.65-14.62 13.42-2.02 0.75-1.12 3.3 0.5 3.94 3.21 1.19 6.68 0.22 9.88-0.57 5.38-1.6 10.9-3.26 15.49-6.63 3.5-2.47 6.32-5.73 8.93-9.09 1.11-0.11 2.22-0.22 3.35-0.33 1.51 8.1 0.89 16.41-1.28 24.32-1.26 8.66-4.2 17.32-10.3 23.8-4.5 6.17-10.8 10.59-17.17 14.62-4.47 2.41-9.85 1.85-14.27-0.33 5.95-8.25 15.31-13.54 20.16-22.64 2.47-4.58 5.36-8.94 7.38-13.74 0.91-1.69 0.16-3.56 0.11-5.35-5.93 2.09-12.14 3.78-18.48 2.88-8.07 0.4-16.29 0.08-24.23 1.83 0.93-2.21 1.34-4.81 3.54-6.19 7.49-5.42 14.8-11.14 21.55-17.46 4.4-3.95 6.61-9.54 9-14.8z" fill="#A2A0A2" stroke="#A2A0A2"/>
	<path d="m698.16 194.16c1.67-1.79 4-2.71 6.1-3.89l0.06 0.92c-0.8 3.16-1.97 6.33-1.73 9.65 0.22 4.35 0.94 8.86-0.7 13.05-2.98 8.17-7.71 15.55-12.17 22.97-1.33 1.65-2.3 3.63-1.22 5.68 0.37 0.33 1.13 1 1.51 1.33 0.24 1.19 0.51 2.39 0.76 3.59-3.5 0.14-7 0.35-10.49 0.65 0.87 1.24 1.81 2.44 2.71 3.67 0.69 1.11 1.35 2.25 1.99 3.41-2.99-0.19-6.01 0.07-8.91-0.87l-0.03 4.44c-2.54-1.73-4.11-4.43-5.58-7.03 2.69-0.4 5.45-0.59 8.16-0.16-0.78-2.4-1.54-4.8-2.3-7.2 3.54 0.44 7.07 0.92 10.59 1.47-1.79-2.43-3.65-4.89-4.61-7.78 2.66-5.48 7.07-9.97 9.17-15.76 2.75-7.42 5.58-14.87 6.6-22.75-4.21 3.34-8.3 6.93-13.15 9.34-7.09 3.61-14.41 6.76-21.46 10.47-8.31 4.38-16.99 8.1-24.87 13.26-6.3 4.1-12.66 8.14-19.39 11.51-5.47 2.74-11.34 4.53-16.92 6.98-7.7401 3.36-15.16 7.55-23.35 9.74-7.79 2.33-15.95 2.66-24.01 2.96 3.04 3.14 6.08 6.28 9.22 9.32-3.06 3.65-6.73 6.8-9.16 10.94 5.36 0.12 10.01-3.25 15.34-3.36 3.02-0.12 6.04 0.01 9.06 0.06-0.09 2.21-0.49 4.41-1.2 6.51 5.41-3.6 11.74-5.59 18.26-5.27 1.03 2.74 2.98 4.93 5.23 6.76 1.73-2.23 3.46-4.46 5.33-6.57 3.01-1 6.18-0.94 9.3-1.15 2.72 0.73 5.07 2.4 7.5 3.79 1.21-3.63 2.68-7.17 4.15-10.71 3.57 1.73 7.47 2.46 11.27 3.52-0.52-2.79-1.05-5.57-1.64-8.34 5.64 1.2 11.25 2.48 16.81 4.02 0.42-3.46 0.8-6.92 1.26-10.37 3.97 0.11 7.8199-1.07 10.92-3.58 4.39 1.63 8.8 3.17 13.18 4.81-0.56-1.4-1.12-2.79-1.67-4.19 2.27 1.31 4.55 2.6 6.83 3.91-0.2599 0.66-0.78 1.98-1.04 2.64-7.29-1.44-15.53-4.78-22.4-0.17-4.04 1.9-2.23 6.99-2.2 10.47-5.96-1.56-12.03-2.68-18.02-4.13 0.43 2.45 0.83 4.9 1.25 7.35-3.65-0.02-7.53-0.95-11.03 0.39-2.93 2.17-1.96 6.34-2.22 9.49-1.7-0.68-3.4-1.34-5.12-1.95-7.34-3.44-15.29 0.36-20.88 5.3-1.2-0.7-2.4-1.4-3.59-2.07-4.06-2.62-8.4-4.73-12.9-6.45-3.58 3.39-8.17 5.33-13.07 5.76 0.58-2.08 1.2-4.15 1.84-6.21-5.6201 0.87-11.01 2.6-16.4 4.35-5.6 0.29-10.99-1.62-16.11-3.65 3.78-1.79 7.71-3.23 11.63-4.68 2.64-0.91 5.06-2.77 6.1-5.44-1.69-4.96-6.42-8.1-9.67-12.02 8.23-1.44 16.76-0.67 24.84-3.06 6.34-1.51 12.38-3.99 18.16-6.96 2.5-1.1 4.97-2.27 7.47-3.4 7.86-3.73 16.59-5.73 23.64-11.04 8.74-4.36 16.41-10.51 25.01-15.14 10-5.42 19.68-11.68 30.57-15.2 3.18-1.17 6.6-1.97 9.4-3.96 3.33-2.75 5.07-6.86 7.99-9.97z" fill="#4B474B" stroke="#4B474B"/>
	<path d="m361.23 192.2c3.58-0.18 7.17-0.39 10.76-0.11 9.42 4.1 18.58 8.96 26.76 15.22 1.83 1.68 4.65 3.59 4.02 6.44-7.87 2.05-15.91-0.47-23.86-0.19-2.89-0.16-4.92 2.14-6.94 3.84-3.45-0.82-7.82-1.26-9.61-4.8-3.13-6.34-1.78-13.66-1.13-20.4z" fill="#090909" stroke="#090909"/>
	<path d="m704.32 191.19c2.44 8.31 0.87 17.04-1.23 25.24-2.47 7.86-6.75 15.35-13.37 20.43 4.46-7.42 9.19-14.8 12.17-22.97 1.64-4.19 0.92-8.7 0.7-13.05-0.2399-3.32 0.9301-6.49 1.7301-9.65z" fill="#868586" stroke="#868586"/>
	<path d="m684.92 208.89c4.85-2.41 8.94-6 13.15-9.34-1.02 7.88-3.85 15.33-6.6 22.75-2.1 5.79-6.5099 10.28-9.17 15.76 0.96 2.89 2.82 5.35 4.61 7.78-3.52-0.55-7.05-1.03-10.59-1.47 0.76 2.4 1.52 4.8 2.3 7.2-2.71-0.43-5.47-0.24-8.16 0.16 1.47 2.6 3.04 5.3 5.58 7.03l2.04 1.24c0.55 1.4 1.11 2.79 1.67 4.19-4.38-1.64-8.79-3.18-13.18-4.81-3.1 2.51-6.95 3.69-10.92 3.58-0.46 3.45-0.84 6.91-1.26 10.37-5.56-1.54-11.17-2.82-16.81-4.02 0.59 2.77 1.12 5.55 1.64 8.34-3.8-1.06-7.7-1.79-11.27-3.52-1.47 3.54-2.94 7.08-4.15 10.71-2.43-1.39-4.78-3.06-7.5-3.79-3.12 0.21-6.29 0.15-9.3 1.15-1.87 2.11-3.6 4.34-5.33 6.57-2.25-1.83-4.2-4.02-5.23-6.76-6.52-0.32-12.85 1.67-18.26 5.27 0.71-2.1 1.11-4.3 1.2-6.51-3.02-0.05-6.04-0.18-9.06-0.06-5.33 0.11-9.98 3.48-15.34 3.36 2.43-4.14 6.1-7.29 9.16-10.94-3.14-3.04-6.18-6.18-9.22-9.32 8.06-0.3 16.22-0.63 24.01-2.96 8.19-2.19 15.61-6.38 23.35-9.74 5.58-2.45 11.45-4.24 16.92-6.98 6.73-3.37 13.09-7.41 19.39-11.51 7.8799-5.16 16.56-8.88 24.87-13.26 7.05-3.71 14.37-6.86 21.46-10.47z" fill="#090909" stroke="#090909"/>
	<path d="m974.89 209.72c6.34 5.91 11.89 13.51 13.33 22.22 0.46 11.29 1.69 22.99-2.37 33.83-0.5099 2.57-2.74 4.07-4.65 5.58-0.33-0.58-0.99-1.74-1.32-2.32 0.05-0.4 0.16-1.19 0.21-1.59 0.5-3.64 0.85-7.38 0.08-11.01-0.94-6.29-6.21-11.03-6.5-17.5 0.55-9.73-0.94-19.62 1.22-29.21z" fill="#868586" stroke="#868586"/>
	<path d="m947.85 235.24c2.34 4.52 1.9 9.69 1.97 14.6 0.59 0.37 1.77 1.1 2.35 1.47 2.6-3.22 5.82-5.83 8.72-8.76 0.95 3.02 1.95 6.05 2.48 9.19 0.89 0.5 1.79 1 2.7 1.51 2.63-4.72 4.95-9.61 7.6-14.32 0.29 6.47 5.56 11.21 6.5 17.5 0.77 3.63 0.42 7.37-0.08 11.01-3.31-4.55-2.58-10.47-4.13-15.66-6.67 6.82-11.98 14.84-18.62 21.68-1.22 1.08-3.9 1.79-4.19-0.49 0.19-2.46 0.99-4.82 1.06-7.28-0.07-2.4-2.11-4-3.04-6.06-5.89 4.39-11.22 10.38-18.85 11.47-0.28-2.59-1-5.33-0.02-7.86 1.06-3.09 2.88-5.85 3.99-8.91 1.07-3.02 0.78-6.36 1.89-9.36 2.91-3.53 6.65-6.29 9.67-9.73z" fill="#A2A0A2" stroke="#A2A0A2"/>
	<path d="m690.01 243.87c2.26 1.56 3.46 4.05 4.68 6.42-3.82-0.42-7.71-0.1-11.41-1.38-0.07 0.72-0.22 2.15-0.29 2.87-0.9-1.23-1.84-2.43-2.71-3.67 3.49-0.3 6.99-0.51 10.49-0.65-0.25-1.2-0.52-2.4-0.76-3.59z" fill="#A2A0A2" stroke="#A2A0A2"/>
	<path d="m910.9 250.92c4.11-2.51 8.52-4.58 13.06-6.21 0.3 0.28 0.89 0.85 1.19 1.13-3.92 7.55-10.38 13.64-17.97 17.42-1.55 0.55-3.2 0.79-4.78 1.14 1.91-4.97 4.44-9.93 8.5-13.48z" fill="#A2A0A2" stroke="#A2A0A2"/>
	<path d="m1016.5 249.28c0.37-0.46 1.12-1.39 1.49-1.86 0.45 0.41 1.35 1.21 1.8 1.62-0.5601 2.73-1.04 5.48-1.4 8.25 4.58-2.02 6.9-6.63 10.7-9.61 3.4701-0.72 2.03 4.04 2.28 6.15-1.5599 3.03-3.3099 6.24-6.4399 7.9-4.04 2.26-8.2501 4.37-11.51 7.75-3.35 3.38-7.23 6.15-11.37 8.47 1.62-4.78 2.7-9.84 1.71-14.88 4.26-4.58 8.91-8.81 12.74-13.79z" fill="#868586" stroke="#868586"/>
	<path d="m1003.8 259.91c4.5699-3.14 7.71-7.98 12.65-10.63-3.83 4.98-8.48 9.21-12.74 13.79 0.99 5.04-0.09 10.1-1.71 14.88 4.14-2.32 8.02-5.09 11.37-8.47 3.26-3.38 7.47-5.49 11.51-7.75 3.13-1.66 4.88-4.87 6.4399-7.9-0.5 3.14-0.8099 6.32-1.67 9.4-1.96 6.55-0.36 13.93-4.1699 19.94-0.61-1.88-1.3101-3.72-1.96-5.57-4.51 12.56-10.67 24.51-18.78 35.13-3.73 6.19-9.45 11.15-11.84 18.08 6.7 0.2 10.75-5.64 14.84-10.02-1.7401 3.28-3.01 7.1-6 9.47-5.4 3.12-11.92 2.78-17.82 1.61l-0.51-1.35c2.1 1.52 2.56-1.22 4.1-1.82 4.78-3.18 8.85-7.3 12.46-11.74 4.51-5.75 6.82-12.75 9.7-19.36 4.06-7.6 4.55-16.39 7.44-24.42-0.81-0.78-1.61-1.55-2.39-2.33-4.42 3.77-8.31 8.1-12.59 12.01-1.44-2.15-2.9-4.28-4.37-6.4-7.14 2.53-11.8 8.61-17.33 13.4-0.89-4.62-1.1299-9.44 0.41-13.95 1.71-2.18 4.45-3.1 6.82-4.36 6.1299-2.75 10.7-7.84 16.14-11.64z" fill="#A2A0A2" stroke="#A2A0A2"/>
	<path d="m840.62 252.19c3.36-1.1 6.8-2.29 10.39-2.01 4.83 0.02 9.24 2.3 13.99 2.89 9.2 0.86 18.43 0.04 27.64-0.23 0.02 0.67 0.06 2.02 0.08 2.7-10.5 1.55-21.1 4-31.77 2.67-5.71-0.77-11.51-1.02-17.13-2.25-2.06-0.16-2.35-2.34-3.2-3.77z" fill="#A2A0A2" stroke="#A2A0A2"/>
	<path d="m566.11 260.23c9.67-1.01 18.6-5.05 27.97-7.36-5.78 2.97-11.82 5.45-18.16 6.96-8.08 2.39-16.61 1.62-24.84 3.06 3.25 3.92 7.98 7.06 9.67 12.02-1.04 2.67-3.46 4.53-6.1 5.44-3.92 1.45-7.85 2.89-11.63 4.68 5.12 2.03 10.51 3.94 16.11 3.65 5.39-1.75 10.78-3.48 16.4-4.35-0.64 2.06-1.26 4.13-1.84 6.21 4.9-0.43 9.49-2.37 13.07-5.76 4.5 1.72 8.84 3.83 12.9 6.45-6.6-1.77-13.17 0.43-19.62 1.72-5.88 1.32-11.13-2.8-16.96-2.7-7.53-0.08-16.31 1.97-22.29-3.98 0.96-1.52 1.97-3.01 2.96-4.52 5.29-1.12 13.68-0.93 14.79-7.77-2.19-3.57-6.04-5.63-8.59-8.88-0.77-1.6-0.98-3.41-1.64-5.04 5.9 0.62 11.89 1.07 17.8 0.17z" fill="#868586" stroke="#868586"/>
	<path d="m676.07 254.32c2.9 0.94 5.92 0.68 8.91 0.87 0.67 0.98 1.25 2.02 1.76 3.1-2.63-0.34-5.25-0.71-7.86-1.09 4.07 3.44 7.98 7.11 10.69 11.76-5.21 0.84-10.05-1.3-14.98-2.48-4.38 0.21-8.71 1.69-13.13 0.89-0.02 3.76-0.64 7.52-0.15 11.28-4.27-0.38-8.57-0.84-12.84-0.37-1.48 1.97-2.55 4.2-3.65 6.39-4.19-1.99-8.79-2.7-13.34-3.34 0.13 4.02 0.06 8.07 0.93 12.03-3.31-0.84-6.94-1.83-8.28-5.36 1.72 0.61 3.42 1.27 5.12 1.95 0.26-3.15-0.71-7.32 2.22-9.49 3.5-1.34 7.38-0.41 11.03-0.39-0.42-2.45-0.82-4.9-1.25-7.35 5.99 1.45 12.06 2.57 18.02 4.13-0.03-3.48-1.84-8.57 2.2-10.47 6.8701-4.61 15.11-1.27 22.4 0.17 0.26-0.66 0.78-1.98 1.04-2.64-2.28-1.31-4.56-2.6-6.83-3.91l-2.04-1.24 0.03-4.44z" fill="#A2A0A2" stroke="#A2A0A2"/>
	<path d="m1004.8 312.73c8.11-10.62 14.27-22.57 18.78-35.13 0.65 1.85 1.35 3.69 1.96 5.57 0.08 3.3-1.4 6.4-2.51 9.44-3.82 10-8.71 19.68-15.23 28.18-4.09 4.38-8.14 10.22-14.84 10.02 2.39-6.93 8.11-11.89 11.84-18.08z" fill="#868586" stroke="#868586"/>
	<path d="m1088.9 294.86c2.3099-1.99 5.4-2.43 8.27-3.13-0.53 8.53-1.5 17.07-4.04 25.27 7.24-3.1 14.71-5.65 21.89-8.88v2.4c-9.79 2.68-19.28 6.87-27.26 13.22-2.79 1.75-1.42 5.03-1.23 7.67 9.65-3.94 18.91-8.75 28.49-12.85v55.54c-9.1 4.72-19.89 6.44-29.93 4.15-5.4399-1.23-11.07-2.45-15.75-5.63-3.6699-2.45-6.21-6.12-8.75-9.63 2.77-0.37 5.55-0.89 8.37-0.74 6.1901 0.74 10.89 5.91 17.15 6.39 4.64 0.07 9.74-2.14 11.82-6.51 2.8199-5.44 3.1599-11.67 3.62-17.65-3.17-0.32-6.49 0.16-8.24 3.15-7.5601 0.17-14.1-4.26-21.5-4.94-16.21-1.9-33.96 1.49-46.23 12.86-9.6801 9.24-19.34 19.08-24.62 31.61-7.28 12.73-9.86 27.54-9.43 42.07-0.36-3.49-0.79-6.97-1.13-10.46-0.07 11.41 0.11 22.81-0.19 34.21 0.45-0.98 0.91-1.96 1.39-2.93-0.01 12.28 5.22 23.71 11.39 34.04 4.38 7.37 10.75 13.19 16.65 19.3 6 6.41 14.47 9.41 21.71 14.09-1.76 0.45-3.48 0.97-5.2 1.5-2.33 9.2-5.3101 18.46-10.88 26.26-3.98 5.43-7.17 11.39-11.24 16.76-5.18 6.77-11.87 12.14-17.33 18.65-10.96 13.31-23.18 25.49-35.36 37.67-8.6 7.72-16.57 16.1-25.01 23.99-7.08 7.26-14.98 13.65-22.07 20.91-7.88 7.8701-16.58 14.83-25.29 21.75-7.19 6.13-13.08 13.66-20.74 19.26-9.47 7.13-18.85 14.38-28.05 21.86-7.8 4.3-15.19 9.28-22.14 14.85-7.62 5.87-16.22 10.32-23.74 16.33-8.82 7.12-19.29 11.76-28.26 18.67-10.43 8.07-22.45 13.61-33.69 20.38-8.51 3.85-16.94 7.88-25.5 11.61 7.91-5.26 15.49-11.2 21.61-18.52 4.5-5.48 9.57-10.47 14.04-15.97 6.1-7.57 12.5-14.88 18.81-22.26 4.8-5.54 8.44-12 13.46-17.37 7.12-7.73 16.15-13.27 24.45-19.6 11.49-8.66 23.46-16.67 35.66-24.28 6.08-3.91 11.8-8.38 18.15-11.85 10.2-5.45 19.13-12.89 28.91-19.01 19.11-11.9 37.77-24.63 55.19-38.91 9.06-6.49 16.82-14.52 24.66-22.38 5.03-6 11.12-11.07 15.7-17.47 3.77-5.21 8.01-10.1 11.24-15.69 5.68-9.79 12.66-18.95 16.48-29.71 3.63-9.95 8.9-19.42 10.96-29.88-0.65-4.46-4.96-7.19-7.65-10.51-10.09-11.58-16.81-26.02-19.56-41.12-1.05-6.08-0.58-12.27-0.57-18.4 0.08-6.93-0.74-13.98 1.04-20.77 2.25-8.37 4.59-16.76 8.16-24.69 4.16-10.36 11.08-19.31 18.47-27.57 4.22-4.82 9.9901-7.93 14.27-12.68 1.85-1.65 1.0399-4.23 0.74-6.35-0.9401-4.16-1.87-8.41-3.7201-12.27-3.4-1.58-7.14-2.1-10.78-2.8 7.7501-3.16 16.07-4.84 23.52-8.72 4.3301-2.2 7.0601-6.35 10.38-9.72 4.65-4.64 9.14-9.46 14.28-13.57-0.08 7.05-3.28 13.7-2.46 20.81 9.21-6.8401 17.67-14.63 26.61-21.81m-25.44 23.61c-1.33 1.05-4.5699 3.31-5.0299 0.44 0.46-5.5 3.5399-10.58 3.15-16.22-3.4 0.18-5.51 3.72-8.0901 5.61 0.11 4.82 0.62 9.77-0.78 14.47-0.9099 3.12-1.8099 6.25-2.6699 9.39 2.88-1.44 5.8199-2.78 8.5499-4.53 5.5901-3.48 11.66-6.22 16.98-10.14 3.11-2.72 5.59-6.22 9.48-7.96 0.27 3.43 0.89 6.83 1.4 10.24 0.36 0.12 1.08 0.38 1.4399 0.51 6.49-7.38 7.49-17.82 6.47-27.2-10.68 7.98-21.16 16.27-30.9 25.39z" fill="#A2A0A2" stroke="#A2A0A2"/>
	<path d="m1063.4 318.47c9.7401-9.12 20.22-17.41 30.9-25.39 1.02 9.38 0.02 19.82-6.47 27.2-0.36-0.13-1.08-0.39-1.4399-0.51-0.51-3.41-1.13-6.81-1.4-10.24-3.89 1.74-6.37 5.24-9.48 7.96-5.3201 3.92-11.39 6.66-16.98 10.14-2.73 1.75-5.6699 3.09-8.5499 4.53 0.86-3.14 1.76-6.27 2.6699-9.39 1.4-4.7 0.89-9.65 0.78-14.47 2.5801-1.89 4.6901-5.43 8.0901-5.61 0.3899 5.64-2.6901 10.72-3.15 16.22 0.46 2.87 3.7 0.61 5.0299-0.44z" fill="#868586" stroke="#868586"/>
	<path d="m1087.7 323.74c7.98-6.35 17.47-10.54 27.26-13.22v8.04c-9.58 4.1-18.84 8.91-28.49 12.85-0.1901-2.64-1.56-5.92 1.23-7.67z" fill="#868586" stroke="#868586"/>
	<path d="m1025.6 355.55c12.27-11.37 30.02-14.76 46.23-12.86 7.3999 0.68 13.94 5.11 21.5 4.94l-0.3101 0.53c-0.46 0.82-0.9 1.65-1.3099 2.5-1.24 0.33-2.4601 0.67-3.6801 1.01-1.09 2-1.98 4.17-3.5599 5.85-2.65 1.83-5.9601 2.28-8.9801 3.17 0.03 0.86 0.0701 1.72 0.12 2.58-3.36-1.79-7.0399-3.36-10.93-3.05-2.72 0.01-4.83 1.94-7.11 3.12-1.5901 0.92-3.27 1.66-4.98 2.25-3.6101 1.1-7.49 1.97-10.26 4.71-9.0801 8.28-15.45 19.36-18.92 31.09-2.53 10.06-2.49 20.74-0.37 30.86 2.42 7.95 5.9301 15.88 11.95 21.77 5.5701 9.71 15.03 16.19 24.72 21.32 11.63 7.8 25.52 11.63 39.37 12.81 5.97 0.5 10.92 4.12 15.96 7.01v15.64c-7.26 7.19-17.42 10.27-27.24 11.95-9.95 1.23-20.19 1.2-29.93-1.36-5.49-1.37-10.99-2.66-16.5-3.91-7.24-4.68-15.71-7.68-21.71-14.09-5.9-6.11-12.27-11.93-16.65-19.3-6.17-10.33-11.4-21.76-11.39-34.04-0.48 0.97-0.94 1.95-1.39 2.93 0.3-11.4 0.12-22.8 0.19-34.21 0.34 3.49 0.77 6.97 1.13 10.46-0.43-14.53 2.15-29.34 9.43-42.07 5.2799-12.53 14.94-22.37 24.62-31.61m-30.04 92.39c-0.17 6.13 2.11 11.96 3.1 17.95 3.62 0.36 8.12-0.73 8.79-4.93-0.79-5.16-2.96-9.99-4.18-15.06-0.39-2.56-2.5-4.07-4.24-5.71-1.51 2.38-3.48 4.77-3.47 7.75m12.73 21.14c-1.67 0.34-1.56 2.6-1.68 3.93 0.23 6.09 3.02 11.87 7.03 16.37 9.01 10.05 21.03 16.8 33.42 21.8 5.83 2.09 12.32 4.8 18.49 2.44 2.6-1.1 5.78-3.29 4.91-6.57-0.3301-3.68-4.4301-4.8-7.0901-6.47-9.9399-5.7-20.72-10.04-29.82-17.12-4.48-3.46-8.36-7.59-12.46-11.46-3.26-3.29-8.46-4.25-12.8-2.92z" fill="#8F0C90" stroke="#8F0C90"/>
	<path d="m1093.3 347.63c1.75-2.99 5.0699-3.47 8.24-3.15-0.4601 5.98-0.8 12.21-3.62 17.65-2.0801 4.37-7.1801 6.58-11.82 6.51-6.26-0.48-10.96-5.65-17.15-6.39-2.8199-0.15-5.6 0.37-8.37 0.74 2.54 3.51 5.0801 7.18 8.75 9.63 4.6801 3.18 10.31 4.4 15.75 5.63 10.04 2.29 20.83 0.57 29.93-4.15v2.3c-13.66 7.58-31.06 6.97-44.32-1.16-4.91-3.34-8.8501-7.86-13.15-11.9 2.28-1.18 4.39-3.11 7.11-3.12 3.89-0.31 7.5699 1.26 10.93 3.05 5.29 3.49 11.78 3.93 17.79 2.26 4.83-4.84 5.28-11.87 5.35-18.31-1.9299 0.3-3.84 0.61-5.73 0.94l0.31-0.53z" fill="#868586" stroke="#868586"/>
	<path d="m1093 348.16c1.89-0.33 3.8-0.64 5.73-0.94-0.0699 6.44-0.52 13.47-5.35 18.31-4.27-0.37-8.51-0.82-12.76-1.24 4.66-1.68 9-4.09 13.38-6.37-0.76-2.43-1.53-4.85-2.3099-7.26 0.4099-0.85 0.8499-1.68 1.3099-2.5z" fill="#090909" stroke="#090909"/>
	<path d="m428.09 353.03c2.67-1.54 5.24-3.25 7.8-4.97-2.14 5.58-4.82 11.03-5.78 16.99-0.81 2.86-0.93 6.48-3.52 8.39-3.67 0.7-7.42 0.25-11.12 0.1-3.06-4.96-8.98-6.27-13.6-9.24 2.63 0.05 5.27 0.19 7.9 0.37 0.86-2.36 1.59-4.82 3.1-6.87 4.82-2.35 10.55-2.04 15.22-4.77z" fill="#090909" stroke="#090909"/>
	<path d="m1088 351.67c1.22-0.34 2.4401-0.68 3.6801-1.01 0.7799 2.41 1.5499 4.83 2.3099 7.26-4.38 2.28-8.72 4.69-13.38 6.37 4.25 0.42 8.49 0.87 12.76 1.24-6.01 1.67-12.5 1.23-17.79-2.26-0.0499-0.86-0.09-1.72-0.12-2.58 3.02-0.89 6.3301-1.34 8.9801-3.17 1.5799-1.68 2.4699-3.85 3.5599-5.85z" fill="#4B474B" stroke="#4B474B"/>
	<path d="m1052.6 365.59c1.71-0.59 3.3899-1.33 4.98-2.25 4.2999 4.04 8.24 8.56 13.15 11.9 13.26 8.13 30.66 8.74 44.32 1.16v6.98c-4.77 3.11-9.83 6.09-15.48 7.21-10.36 1.73-20.82-1.29-31.19-0.02-4.47 1.22-8.21 4.18-11.95 6.79-0.8197-10.65-3.6198-21.06-3.8298-31.77z" fill="#4B474B" stroke="#4B474B"/>
	<path d="m1042.3 370.3c2.77-2.74 6.6499-3.61 10.26-4.71 0.21 10.71 3.01 21.12 3.83 31.77 3.74-2.61 7.48-5.57 11.95-6.79 10.37-1.27 20.83 1.75 31.19 0.02 5.65-1.12 10.71-4.1 15.48-7.21v8.94c-4.76 5.82-10.55 10.89-14.01 17.67-4.24 8.24-8.8099 16.31-14.24 23.83-5.3199 7.14-8.77 15.52-14.81 22.14-4.7899 5.19-7.73 11.65-10.21 18.18 7.65 7.02 18.02 9.3 27.82 11.57 4.34 0.94 8.7799 1.23 13.13 2.18 4.4399 0.96 8.48 3.18 12.32 5.55v1.72c-5.04-2.89-9.99-6.51-15.96-7.01-13.85-1.18-27.74-5.01-39.37-12.81-9.6901-5.13-19.15-11.61-24.72-21.32 5.37 3.96 9.0801 9.94 15.05 13.08 1.5 0.38 3.89 2.26 4.76 0.07-0.55-2.93-2-5.69-2.01-8.71 0.1899-3.98 1.6-7.8 1.65-11.8 0.09-5.95-2.3201-11.65-1.9501-17.62 0.3401-5.39 1.74-10.66 1.9701-16.06 0.88-12.66-1.65-25.17-2.4601-37.75-0.02-2.83-1.5699-5.25-2.3199-7.89-5.3201 3.68-10.6 7.67-14.24 13.1-3.67 5.43-7.62 10.93-9.22 17.39-3.2401 12.59-5.0701 26.34 0.21 38.67 2.22 6.13 5.92 11.57 8.5599 17.52-6.0199-5.89-9.5299-13.82-11.95-21.77-2.12-10.12-2.16-20.8 0.37-30.86 3.4702-11.73 9.8402-22.81 18.92-31.09z" fill="#868586" stroke="#868586"/>
	<path d="m1035.4 380.44c3.64-5.43 8.9199-9.42 14.24-13.1 0.75 2.64 2.2999 5.06 2.3199 7.89 0.8101 12.58 3.3401 25.09 2.4601 37.75-0.2301 5.4-1.63 10.67-1.9701 16.06-0.37 5.97 2.04 11.67 1.9501 17.62-0.05 4-1.4601 7.82-1.65 11.8 0.01 3.02 1.46 5.78 2.01 8.71-0.87 2.19-3.26 0.31-4.76-0.07-5.97-3.14-9.6801-9.12-15.05-13.08-2.6399-5.95-6.34-11.39-8.5599-17.52 3.0699-4.75 2.01-10.48 2.04-15.79-0.02-7.35-0.14-14.69 0.09-22.03-0.59-0.21-1.76-0.64-2.34-0.85 1.5999-6.46 5.5499-11.96 9.2199-17.39z" fill="#A2A0A2" stroke="#A2A0A2"/>
	<path d="m1101 409.99c3.46-6.78 9.25-11.85 14.01-17.67v3.77c-3.71 8.98-7.6 17.88-12.49 26.29-4.95 8.3-7.11 18.15-13.54 25.56-3.97 4.83-7.64 9.92-10.59 15.44-2.71 5.14-6.5601 9.53-10.61 13.66 10.98 5.52 23.2 7.44 35.17 9.57 4.53 0.65 8.66 2.87 12.06 5.89v0.94c-3.84-2.37-7.88-4.59-12.32-5.55-4.3501-0.95-8.79-1.24-13.13-2.18-9.8-2.27-20.17-4.55-27.82-11.57 2.48-6.53 5.42-12.99 10.21-18.18 6.04-6.62 9.4901-15 14.81-22.14 5.43-7.52 9.9999-15.59 14.24-23.83z" fill="#A2A0A2" stroke="#A2A0A2"/>
	<path d="m570.47 433.05c1.4-0.02 2.83-0.2 4.23 0.09 0.83 1.4 1.35 2.95 1.96 4.45-0.66-0.1-2-0.32-2.66-0.43-2.03 7.95-5.52 15.69-11.11 21.79-3.2 3.27-6.82 6.1-10.1 9.29 4.35-0.73 8.75-1.61 12.67-3.73-1.4 1.15-2.61 2.61-4.26 3.41-5.6 1.78-11.3 3.48-17.23 3.37 2.75-2.06 5.5601-4.05 8.36-6.05 7.34-4.82 13.78-11.45 16.74-19.86 1.14-4 1.19-8.2 1.4-12.33z" fill="#868586" stroke="#868586"/>
	<path d="m574 437.16c0.66 0.11 2 0.33 2.66 0.43 0.11 6.29 0.05 12.75-2.5 18.62-1.16 4.17-5.2 6.32-8.7 8.3-3.92 2.12-8.32 3-12.67 3.73 3.28-3.19 6.9-6.02 10.1-9.29 5.59-6.1 9.08-13.84 11.11-21.79z" fill="#4B474B" stroke="#4B474B"/>
	<path d="m995.52 447.94c-0.01-2.98 1.96-5.37 3.47-7.75 1.74 1.64 3.85 3.15 4.24 5.71 1.22 5.07 3.39 9.9 4.18 15.06-0.67 4.2-5.17 5.29-8.79 4.93-0.99-5.99-3.27-11.82-3.1-17.95z" fill="#A2A0A2" stroke="#A2A0A2"/>
	<path d="m466.07 471.04c5.02-6.03 13.39-8.09 20.95-7.69 8.36 0.42 16.89-0.79 25.09 1.35 1.56 0.36 3.12 0.74 4.69 1.12 1.92 0.63 3.82 1.34 5.73 2.07-0.27 0.56-0.8101 1.68-1.08 2.24-3.18 0.65-6.34 1.45-9.34 2.72-4.08 3.92-8.3 8.37-14.06 9.59-5.33 0.63-10.7-0.18-16.04-0.08-3.98-0.07-7.99 0.54-11.94-0.1-2.01-0.81-3.84-1.98-5.71-3.05 0.27-2.75-0.33-5.95 1.71-8.17z" fill="#4B474B" stroke="#4B474B"/>
	<path d="m512.11 464.7c3.32 0.21 6.66 0.28 9.98 0.65 4.81 0.53 9.0099 3.63 13.95 3.55 5.7 0.52 10.94-2.16 16.29-3.66-2.8 2-5.61 3.99-8.36 6.05 5.9301 0.11 11.63-1.59 17.23-3.37-4.38 2.99-9.75 5.33-15.23 4.73-10.74-1.47-21.5 0.79-32.28-0.03 6.41-0.87 12.88-1.11 19.32-1.69-4.99-2.86-10.53-4.41-16.21-5.11-1.57-0.38-3.13-0.76-4.69-1.12z" fill="#A2A0A2" stroke="#A2A0A2"/>
	<path d="m516.8 465.82c5.68 0.7 11.22 2.25 16.21 5.11-6.44 0.58-12.91 0.82-19.32 1.69-0.39 0.06-1.18 0.17-1.58 0.23 3-1.27 6.16-2.07 9.34-2.72l1.08-2.24c-1.91-0.73-3.81-1.44-5.73-2.07z" fill="#868586" stroke="#868586"/>
	<path d="m1008.2 469.08c4.34-1.33 9.54-0.37 12.8 2.92 4.1 3.87 7.98 8 12.46 11.46 9.1 7.08 19.88 11.42 29.82 17.12 2.66 1.67 6.76 2.79 7.0901 6.47 0.87 3.28-2.3101 5.47-4.91 6.57-6.17 2.36-12.66-0.35-18.49-2.44-12.39-5-24.41-11.75-33.42-21.8-4.0099-4.5-6.8-10.28-7.03-16.37 0.12-1.33 0.01-3.59 1.68-3.93z" fill="#A2A0A2" stroke="#A2A0A2"/>
	<path d="m1087.8 522.75c9.8199-1.68 19.98-4.76 27.24-11.95v2.94c-4.24 3.86-9.42 6.59-14.85 8.35-12.28 2.21-24.77 1.59-37.17 1.8199-5.61-0.29-11.1-1.6299-16.54-2.94-0.24 0.53-0.7 1.6-0.9399 2.13 0.77 1.4 1.55 2.79 2.35 4.19-1.6799 1.66-3.35 3.32-5.01 4.9901 0.42 1.1 0.8401 2.21 1.26 3.33-5.3099 5.66-4.89 13.71-6.34 20.83-1.49 7.6-2.0701 15.39-4.39 22.81-1.97 6.39-3.25 13.01-5.8 19.22-3.3199 8.03-6.3099 16.2-9.9899 24.09-1.82 4.6-4.03 9.05-7.01 13.03-3.56 4.86-4.5 11.05-7.87 16.02-4.85 7.27-9.91 14.45-13.77 22.32-2.22 4.58-5 8.86-8.12 12.88-3.72 4.82-6.25 10.38-9.48 15.51-1.94 3.1-3.88 6.26-5.06 9.75-3.5 11.29-8.17 22.21-11.08 33.69-0.89 4.87-0.55 9.86-1.33 14.75-1.26 8.07-0.75 16.28-0.58 24.42 0.23 7.61 3.3799 14.66 4.79 22.07 0.92 4.61 1.54 9.55 4.6 13.36 4.68 5.88 8.11 12.59 12.29 18.82 5.24 8.14 8.31 17.44 13.32 25.72 3.0699 4.55 6.9 8.54 10.15 12.98-0.89 0.91-1.77 1.84-2.64 2.78-8.97-5.56-16.98-12.59-24.43-20.03-5.83-6.54-12.94-11.71-19.21-17.78-6.58-6.53-13.88-12.26-21.34-17.73-2.87-2.59-5.47-5.45-7.93-8.42 4.02 1.44 7.88 3.4 10.83 6.58 15.38 13.97 31.08 27.6 46.43 41.6 2.42 2.1 5.09 3.87 7.81 5.57-1.31-6.88-5.78-12.4-8.68-18.63-4.57-9.03-9.39-18.26-16.79-25.32-5.66-5.01-11.11-10.23-16.63-15.37-5.66-5.01-10.32-11-15.58-16.39-6.03-6.09-10.51-13.44-15.99-19.98-4.29-5.59-9.58-11.04-10.74-18.28-1.49-9.96 0.07-20.36 4.56-29.4 4.48-9.04 9.55-17.78 14.16-26.77 7.11-13.91 16.29-26.7 26.68-38.35 4.93-5.75 9.68-11.65 14.77-17.25 12.55-15.08 23.05-31.68 34.04-47.89 4.95-7.03 8.06-15.11 12.71-22.32 3.74-5.95 8.05-11.54 11.44-17.72-2.77 1.53-5.55 3.09-7.89 5.22 4.07-5.37 7.26-11.33 11.24-16.76 5.5699-7.8 8.55-17.06 10.88-26.26 1.72-0.53 3.4399-1.05 5.2-1.5 5.51 1.25 11.01 2.54 16.5 3.91 9.7398 2.56 19.98 2.59 29.93 1.36z" fill="#868586" stroke="#868586"/>
	<path d="m1046.4 520.97c5.4401 1.3101 10.93 2.65 16.54 2.94 12.4-0.23 24.89 0.39 37.17-1.8199-8.72 3.17-17.96 4.67-27.22 4.55-7.14-0.49-11.48 5.93-17.11 9.07-3.96 2.58-9 3.71-12.05 7.5-0.91 5.4 4.13 9.39 8.23 11.91 5.37 3.43 12.05 2.22 17.88 4.12 1.51 1.49 0.22 3.49-0.64 4.95-3.33 4.88-7.9399 8.7-11.85 13.1 1.92 1.22 3.83 2.56 6.02 3.27 5.2899 1.38 11.03 0.06 16.18 2.1 2.6801 0.9901 1.9701 4.23 1.49 6.39-1.88 7.11-5.73 13.47-9.39 19.78-3.6699 5.97-7.6499 12.38-14.08 15.67-4.15 1.63-8.17 3.53-12.24 5.34 6.1 8.16 14.45 14.19 22.4 20.41 7.0699 4.83 12.99 11.24 20.56 15.37 6.0901 3.52 12.36 6.83 17.98 11.1 5.1 3.72 3.75 10.81 4.0499 16.28-0.75 14.44 2.91 28.6 3.02 43-0.01 24.66 0.02 49.33 0.01 73.99-0.17 11.59 0.6899 23.26-1.3101 34.74-1.6699 9.35-1.7999 18.86-1.75 28.33 0.0701 7.09-2.64 13.83-2.7899 20.91-0.26 11.28-4.14 22.01-6.23 33.01-3.6101 18.51-11.04 35.98-19.35 52.83-8.46 16.33-19.26 31.28-29.67 46.4-8.1901 13.52-18.86 25.3-27.35 38.63-4.5999 6.8-9.9099 13.17-13.42 20.67-4.35 8.11-9.91 15.51-14.26 23.63-5.4 9.4399-11.39 18.54-17.45 27.57-10.28 17.08-20.57 34.15-30.74 51.3-5.94 10.24-10.74 21.09-16.71 31.31-5.46 9.25-9.14 19.4-13.98 28.97-3.58 6.75-5.86 14.07-9.21 20.91-3.88 7.9601-5.77 16.67-9.33 24.75-3.44 9.6001-6.03 19.49-8.77 29.32-1.76 5.5599-0.67 12.22-4.79 16.77-1.58-10.48-0.21-21.06-0.28-31.58-0.05-4.48 0.71-8.8999 1.81-13.22 1.63-6.5699 0.13-13.4 1.34-20.02 0.85-4.74 2.16-9.39 2.62-14.18 0.94-10.09 3.25-19.96 4.96-29.92 1.8-10.31 5.59-20.1 8.13-30.21 2.45-10.02 6.44-19.55 9.78-29.29 4.39-12.65 10.62-24.53 15.97-36.78 3.58-8.45 7.41-16.79 10.77-25.33 6.95-18.15 12.27-36.92 15.91-56 1.55-8.5 4.34-16.83 4.43-25.53 0.07-4.45 0.72-8.84 1.66-13.16 1.61-7.5 1.16-15.2 1.23-22.81 0.05-11.8 0.02-23.6-0.11-35.39 0-6.33-2.58-12.29-2.82-18.58-0.25-5.39 0.51-10.88-0.99-16.14-1.6-5.6-2.11-11.41-2.91-17.15-3.88-19.87-7.7401-40-16.02-58.6-3.65-7.01-7.07-14.15-10.95-21.03 7.46 5.47 14.76 11.2 21.34 17.73 6.27 6.07 13.38 11.24 19.21 17.78 7.45 7.44 15.46 14.47 24.43 20.03 0.87-0.94 1.75-1.87 2.64-2.78-3.25-4.44-7.08-8.43-10.15-12.98-5.01-8.28-8.08-17.58-13.32-25.72-4.18-6.23-7.61-12.94-12.29-18.82-3.06-3.81-3.68-8.75-4.6-13.36-1.41-7.41-4.56-14.46-4.79-22.07-0.17-8.14-0.6801-16.35 0.58-24.42 0.78-4.89 0.44-9.88 1.33-14.75 2.91-11.48 7.58-22.4 11.08-33.69 1.18-3.49 3.12-6.65 5.06-9.75 3.23-5.13 5.76-10.69 9.48-15.51 3.12-4.02 5.9-8.3 8.12-12.88 3.86-7.87 8.92-15.05 13.77-22.32 3.37-4.97 4.31-11.16 7.87-16.02 2.98-3.98 5.19-8.4301 7.01-13.03 3.68-7.89 6.67-16.06 9.9899-24.09 2.55-6.21 3.8301-12.83 5.8-19.22 2.3199-7.42 2.9-15.21 4.39-22.81 1.45-7.12 1.03-15.17 6.34-20.83-0.4199-1.12-0.84-2.23-1.26-3.33 1.66-1.67 3.3301-3.33 5.01-4.9901-0.7999-1.4-1.58-2.79-2.35-4.19 0.2404-0.5299 0.7004-1.5999 0.9403-2.1299z" fill="#A2A0A2" stroke="#A2A0A2"/>
	<path d="m508.74 535.69c4.57-3.71 10.22-6.38 16.19-6.54 5.36-0.2 10.74 0.03 16.11 0.05 5.17-0.07 10.07 1.72 15.04 2.88 13.73 3.4 27.4 6.99 41.02 10.8 5.73 2.36 11.68 4.07 17.68 5.58 9.24 2.84 18.19 6.77 27.79 8.35 0.43 0.73 0.86 1.46 1.3 2.21-10.92-2.39-21.47-6.09-32.32-8.73-8.73-2.54-17.38-5.32-26.1-7.88-10.75-3.34-21.83-5.36-32.7-8.2-8.58-1.9-17.39-4.85-26.24-2.87-5.85 1.24-12.31 2.0699-16.85 6.33-3.59 3.07-5.47 7.77-9.37 10.46-5.99 1.65-12.34-0.87-18.32 0.82-2.98 2.76-3.29 7.23-3.32 11.06-0.03 7.97 4.37 15.07 9.5 20.85 3.51 3.99 7.83 7.21 12.46 9.82 9.17 5.05 18.54 9.77 27.43 15.33 5.88 3.77 13.02 5.84 17.69 11.28 2.61 3.08 5.06 6.31 7.34 9.65 0.67 3.79 2.3 8.37-0.38 11.75-4.11 5.3-10.76 8.53-12.91 15.27 7.55-0.51 13.25-7.11 20.92-6.62 4.53 0.1299 7.39 4.02 9.91 7.28 5.34-0.5 10.83-1.02 15.7-3.46 6.7-3.35 13.02-7.43 18.96-11.98 3.13-2.32 6.63-4.7 10.69-4.65 1.74 0.45 3.31 1.45 5.08 1.93-2.39 5.25-4.79 10.57-8.35 15.15-3.12 4.02-6.13 8.12-8.85 12.43 2.27 0.3 4.55 0.61 6.83 0.9-0.05 2.73-0.08 5.47-0.1 8.21 16.1-16.72 28.86-36.62 37.42-58.19 5.75-9.84 9.43-20.7 15-30.64 1.82-4.14 3.77-8.99 2.02-13.47-2.29-3.66-6.69-5.1-10.18-7.3199l0.88 0.3c5.79-1.18 12.36 4.02 12.23 10.12 0.57 4.75-2.06 8.97-4.21 12.97-4.57 8.17-7.37 17.14-11.46 25.53-2.53 6.08-3.82 12.61-6.27 18.72-1.63 4.75-4.03 9.19-5.47 14-3.39 10.92-9.08 21.11-16.73 29.61-3.33 3.59-5.82 8.56-10.83 10.02-7.48 2.24-14.19 6.75-22 7.88-6.3 1.36-12.68 0.05-19.01-0.19-6.73-0.36-13.85-1.04-19.64-4.81-7.05-5.12-13.13-12.22-15.21-20.84-0.82-4.72-1.03-9.76 0.45-14.36 2.86-5.53 8.37-8.9 12.55-13.32 2.8-2.65 2.1-7.0099 1.06-10.31-2.92-6.75-7.53-13.5-14.74-16.11-7.38-2.91-13.4-8.25-20.47-11.75-11.55-6.18-24.65-11.41-32.24-22.7-3.89-6.05-7.92-12.86-7.18-20.34 0.35-4.09 1.52-9 5.68-10.79 5.58-2.62 11.8 1.85 17.43-0.44 3.6798-3.0901 5.3098-7.9901 9.0898-11.03m99.27 104.34c-6.36 5.34-14.01 8.66-21.13 12.81-6.27 3.58-14.05 4.42-19.32 9.7-1.82 1.7401-4.07 4.4901-2.36 7.06 2.81 4.34 8.2 7.4301 13.45 6.25 5.5-1.06 9.85-4.83 14.56-7.59 10.18-6 17.62-15.64 23.22-25.86 1.03-1.92 1.04-4.16 1.55-6.22-3.64 0.3-7.2 1.37-9.97 3.85z" fill="#A2A0A2" stroke="#A2A0A2"/>
	<path d="m526.51 531.34c8.85-1.98 17.66 0.97 26.24 2.87 10.87 2.84 21.95 4.86 32.7 8.2 8.72 2.56 17.37 5.34 26.1 7.88 10.85 2.64 21.4 6.34 32.32 8.73 4.11 1.11 8.32 2.3 11.84 4.81l-0.88-0.3c-8.28 1.7-16.7 0.12-25.04-0.07-0.95 1.48-1.86 2.98-2.87 4.41-7.27-5.1-16.64-3.22-24.9-2.65-6.19 0.92-11.89-2.42-17.98-2.6299-5.33-0.15-10.69 0.03-15.95 0.9-5.1 0.84-8.6801 5.69-13.97 5.79-4.44 0.11-8.88 0.4-13.26 1.1-0.94-0.41-1.88-0.8-2.8-1.18-3.23 1.56-6.53 3.14-10.11 3.67-4.3 0.82-8.84 0.53-12.95 2.18-2.49 0.68-2.26 4.13-1.38 6.04 3.23 1.85 6.83 2.87 10.39 3.92-1.29 1.4-2.6 2.79-4 4.08-6.43 0.94-13.03 0.03-19.4 1.59-4.63-2.61-8.95-5.83-12.46-9.82-5.13-5.78-9.53-12.88-9.5-20.85 0.03-3.83 0.34-8.3 3.32-11.06 5.98-1.69 12.33 0.83 18.32-0.82 3.9-2.69 5.78-7.39 9.37-10.46 4.54-4.2601 11-5.0901 16.85-6.3301z" fill="#8F0C90" stroke="#8F0C90"/>
	<path d="m1014 562c2.34-2.13 5.12-3.69 7.89-5.22-3.39 6.18-7.7 11.77-11.44 17.72-4.65 7.21-7.76 15.29-12.71 22.32-10.99 16.21-21.49 32.81-34.04 47.89-5.09 5.6-9.84 11.5-14.77 17.25-10.39 11.65-19.57 24.44-26.68 38.35-4.61 8.99-9.68 17.73-14.16 26.77-4.49 9.04-6.05 19.44-4.56 29.4 1.16 7.24 6.45 12.69 10.74 18.28 5.48 6.54 9.96 13.89 15.99 19.98 5.26 5.39 9.92 11.38 15.58 16.39 5.52 5.14 10.97 10.36 16.63 15.37 7.4 7.06 12.22 16.29 16.79 25.32 2.9 6.23 7.37 11.75 8.68 18.63-2.72-1.7-5.39-3.47-7.81-5.57-15.35-14-31.05-27.63-46.43-41.6-2.95-3.1801-6.81-5.14-10.83-6.58-5.38-5.48-10.82-10.92-16.56-16.03-6.26-5.21-12.26-10.89-19.52-14.72-4.01-2.09-7.39-5.09-10.91-7.87-5.35-4.3-11.76-6.9-17.59-10.43-10.46-5.88-22.92-10.39-34.97-7.17-6.66 2.27-12.59 6.23-19.15 8.76-8.57 3.34-16.37 8.26-24.59 12.31-2.76 1.4-5.46 2.93-7.9901 4.71-4.77 3.43-10.21 5.73-15.22 8.75-4.23 2.89-8.48 5.79-13.17 7.87-9.08 1.86-16.84 7.2-25.7 9.69-9.06 2.67-18.36 6.42-27.97 4.55 6.77-3.82 14.38-5.79 21.27-9.37 6.7-3.47 13.89-5.91 20.55-9.47 3.96-2.1201 8-4.09 12.04-6.05 5.47-2.65 10.45-6.16 15.8-9.02 7-3.61 13.25-8.51 20.51-11.62-4.92 3.78-10.04 7.48-13.74 12.55 8.38-2.84 15.57-8.17 23.73-11.53 12.48-5.35 24.6-11.48 36.93-17.15 11.38-6.29 21.9-13.98 32.71-21.17 17.34-12.43 34.03-25.78 49.9-40.05 9.43-7.51 17.08-16.92 26.04-24.96 6.74-5.95 12.19-13.14 18.42-19.58 9.43-10.56 18.26-21.62 27.5-32.34 6.11-8.62 12.04-17.39 17.67-26.33 3.09-5.7401 7.73-11.2 7.51-18.08-5.18 5.31-9.53 11.35-14.68 16.69-8.67 9.35-16.89 19.17-26.51 27.58-3.55 3.09-6.77 6.53-9.97 9.98-4.47 4.86-10.09 8.51-14.46 13.5-5 5.71-11.11 10.28-16.44 15.67-9.13 9.18-18.7 17.91-28.11 26.81-10.89 10.22-23.05 18.92-34.46 28.51-6.54 5.91-13.98 10.7-20.65 16.45-9.81 7.92-19.46 16.07-29.92 23.13-6.18 4.3-12.37 8.66-19.21 11.87 4.72-4.84 10.52-8.31 16.07-12.07 10.83-8.17 22.48-15.34 32.12-24.98 9.2-7.48 18.58-14.73 28.05-21.86 7.66-5.6 13.55-13.13 20.74-19.26 8.71-6.92 17.41-13.88 25.29-21.75 7.09-7.2599 14.99-13.65 22.07-20.91 8.44-7.89 16.41-16.27 25.01-23.99 12.18-12.18 24.4-24.36 35.36-37.67 5.4601-6.51 12.15-11.88 17.33-18.65z" fill="#4B474B" stroke="#4B474B"/>
	<path d="m554.12 569.28c5.29-0.1 8.87-4.95 13.97-5.79 5.2599-0.87 10.62-1.05 15.95-0.9 6.09 0.21 11.79 3.55 17.98 2.6299 8.26-0.5699 17.63-2.45 24.9 2.65-1.91 2.7-4.84 4.28-7.94 5.22 0.25 0.67 0.48 1.34 0.74 2.03-5.06 1.32-10.27 1.4-15.45 1.22-1.54 3.52-2.07 8.1299-5.84 10.03-5.83 3.24-11.63 6.55-17.52 9.69-7.31 3.13-14.71 7.48-22.98 6.64-6.05-0.08-11.94-3.29-14.99-8.56-2.49-4.11-4.13-8.71-5.12-13.4-0.99-3.77 1.46-7.15 3.04-10.36 4.38-0.6999 8.82-0.9899 13.26-1.0999z" fill="#F6F2E7" stroke="#F6F2E7"/>
	<path d="m629.79 563.46c8.34 0.19 16.76 1.77 25.04 0.07 3.49 2.22 7.89 3.66 10.18 7.3199 1.75 4.48-0.2 9.33-2.02 13.47-1.02-2.78-2.01-5.58-3.17-8.31-0.37-0.07-1.12-0.2-1.5-0.27-0.72 0.16-2.16 0.47-2.88 0.63 0.95-0.95 1.85-1.95 2.78-2.93-9.5699 2.73-18.61 6.94-27.52 11.28-4.7 2.47-10.32-2.23-14.74 1.21-2.5 1.26-3.14 4.13-4.71 6.22-2.28 3.61-5.45 6.5-8.15 9.78-5.72 6.01-5.78 14.75-5.64 22.52-6.54 3.25-13.38 5.77-20.42 7.68-3.77-4.24-4.86-9.9-7.48-14.73-4.9-4.06-11.86-2.52-17.73-2.86-4.54 0.28-8.4-2.38-12-4.75 1.88-2.21 3.05-5.49 6.33-5.92 5.44-0.83 10.42 2.94 15.89 2.44 6.05-0.59 11.01-4.45 16.41-6.88 7.36-3.36 14.58-7.12 21.15-11.88 2.84-1.97 4.6-5 6.27-7.94 4.91-0.42 10.14-0.82 13.84-4.49-0.2599-0.69-0.49-1.36-0.74-2.03 3.1-0.94 6.03-2.52 7.94-5.22 1.01-1.4299 1.92-2.9299 2.87-4.4099z" fill="#090909" stroke="#090909"/>
	<path d="m527.95 572.87c3.58-0.53 6.88-2.11 10.11-3.67 0.92 0.38 1.86 0.77 2.8 1.18-1.58 3.21-4.03 6.59-3.04 10.36 0.99 4.69 2.63 9.29 5.12 13.4 3.05 5.27 8.94 8.48 14.99 8.56 8.27 0.84 15.67-3.51 22.98-6.64 5.89-3.14 11.69-6.45 17.52-9.69 3.77-1.9 4.3-6.51 5.84-10.03 5.18 0.18 10.39 0.1 15.45-1.22-3.7 3.67-8.93 4.07-13.84 4.49-1.67 2.94-3.43 5.97-6.27 7.94-6.57 4.76-13.79 8.52-21.15 11.88-5.4 2.43-10.36 6.29-16.41 6.88-5.47 0.5-10.45-3.27-15.89-2.44-3.28 0.43-4.45 3.71-6.33 5.92 3.6 2.37 7.46 5.03 12 4.75 5.87 0.34 12.83-1.2 17.73 2.86 2.62 4.83 3.71 10.49 7.48 14.73 7.04-1.91 13.88-4.43 20.42-7.68-0.14-7.77-0.08-16.51 5.64-22.52-1.92 6.01-2.6 12.33-2.44 18.63 8.73-2.42 16.11-7.81 23.92-12.16 5.23-2.95 10.26-6.28 15.7-8.86 6.31-3.0099 12-7.43 16.05-13.17 2.16-3.09 1.78-7.06 1.99-10.63 0.38 0.07 1.13 0.2 1.5 0.27 1.16 2.73 2.15 5.53 3.17 8.31-5.57 9.94-9.25 20.8-15 30.64-1.25 1.58-2.59 3.1-3.92 4.62-2.63-1.65-5.41-3.73-8.71-3.13-5.67 0.61-11.74-1.01-17.03 1.7-13.16 5.98-26.31 12.4-40.51 15.53-7.55 1.6-14.11 5.9-21.44 8.16-0.26-5.06-0.25-10.62-3.31-14.9-2.28-3.34-4.73-6.57-7.34-9.65-4.67-5.44-11.81-7.5099-17.69-11.28-8.89-5.56-18.26-10.28-27.43-15.33 6.37-1.56 12.97-0.65 19.4-1.59 1.4-1.29 2.71-2.6801 4-4.08-3.56-1.05-7.16-2.07-10.39-3.92-0.88-1.91-1.11-5.36 1.38-6.04 4.11-1.65 8.65-1.36 12.95-2.18z" fill="#4B474B" stroke="#4B474B"/>
	<path d="m1006.4 572.95c0.22 6.88-4.42 12.34-7.51 18.08-5.63 8.9399-11.56 17.71-17.67 26.33-9.24 10.72-18.07 21.78-27.5 32.34-6.23 6.44-11.68 13.63-18.42 19.58-8.96 8.04-16.61 17.45-26.04 24.96-15.87 14.27-32.56 27.62-49.9 40.05-10.81 7.19-21.33 14.88-32.71 21.17-12.33 5.67-24.45 11.8-36.93 17.15-8.16 3.36-15.35 8.69-23.73 11.53 3.7-5.07 8.82-8.77 13.74-12.55 4.12-2.76 8.17-5.63 12.26-8.45 6.84-3.21 13.03-7.57 19.21-11.87 10.46-7.06 20.11-15.21 29.92-23.13 6.67-5.75 14.11-10.54 20.65-16.45 11.41-9.59 23.57-18.29 34.46-28.51 9.41-8.9 18.98-17.63 28.11-26.81 5.33-5.39 11.44-9.96 16.44-15.67 4.37-4.99 9.99-8.64 14.46-13.5 3.2-3.45 6.42-6.89 9.97-9.98 9.62-8.41 17.84-18.23 26.51-27.58 5.15-5.34 9.5-11.38 14.68-16.69z" fill="#090909" stroke="#090909"/>
	<path d="m630.7 584.72c8.91-4.34 17.95-8.55 27.52-11.28-0.93 0.98-1.83 1.98-2.78 2.93-11.45 4.17-22.97 8.88-32.55 16.6-0.7-2.47-1.42-4.93-2.15-7.3799-3.29 1.99-6.68 3.89-9.49 6.56 1.57-2.09 2.21-4.96 4.71-6.22 4.42-3.4401 10.04 1.2599 14.74-1.2101z" fill="#4B474B" stroke="#4B474B"/>
	<path d="m655.44 576.37c0.72-0.16 2.16-0.47 2.88-0.63-0.21 3.57 0.17 7.54-1.99 10.63-4.05 5.74-9.74 10.16-16.05 13.17-5.44 2.58-10.47 5.91-15.7 8.86-7.81 4.35-15.19 9.74-23.92 12.16-0.16-6.3 0.52-12.62 2.44-18.63 2.7-3.28 5.87-6.17 8.15-9.78 2.81-2.67 6.2-4.57 9.49-6.56 0.73 2.45 1.45 4.91 2.15 7.3799 9.58-7.7199 21.1-12.43 32.55-16.6z" fill="#A2A0A2" stroke="#A2A0A2"/>
	<path d="m644.07 619.58c1.33-1.52 2.67-3.04 3.92-4.62-8.56 21.57-21.32 41.47-37.42 58.19 0.02-2.7401 0.05-5.48 0.1-8.21-2.28-0.29-4.56-0.6-6.83-0.9 2.72-4.31 5.73-8.41 8.85-12.43 3.56-4.58 5.96-9.9 8.35-15.15-1.77-0.48-3.34-1.48-5.08-1.93-4.06-0.05-7.56 2.33-10.69 4.65-5.94 4.55-12.26 8.63-18.96 11.98-4.87 2.44-10.36 2.96-15.7 3.46-2.52-3.26-5.38-7.15-9.91-7.28-7.67-0.4901-13.37 6.11-20.92 6.62 2.15-6.7401 8.8-9.97 12.91-15.27 2.68-3.38 1.05-7.96 0.38-11.75 3.06 4.28 3.05 9.84 3.31 14.9 7.33-2.26 13.89-6.56 21.44-8.16 14.2-3.13 27.35-9.55 40.51-15.53 5.29-2.71 11.36-1.09 17.03-1.7 3.3-0.6 6.08 1.48 8.71 3.13z" fill="#8F0C90" stroke="#8F0C90"/>
	<path d="m608.01 640.03c2.77-2.48 6.33-3.55 9.97-3.85-0.51 2.06-0.52 4.3-1.55 6.22-5.6 10.22-13.04 19.86-23.22 25.86-4.71 2.76-9.06 6.53-14.56 7.59-5.25 1.1801-10.64-1.91-13.45-6.25-1.71-2.5699 0.54-5.3199 2.36-7.06 5.27-5.28 13.05-6.12 19.32-9.7 7.12-4.15 14.77-7.47 21.13-12.81z" fill="#F6F2E7" stroke="#F6F2E7"/>
	<path d="m818.02 740.94c6.95-5.57 14.34-10.55 22.14-14.85-9.64 9.64-21.29 16.81-32.12 24.98-5.55 3.76-11.35 7.23-16.07 12.07-4.09 2.82-8.14 5.69-12.26 8.45-7.26 3.11-13.51 8.0099-20.51 11.62-5.35 2.86-10.33 6.37-15.8 9.02-4.04 1.96-8.08 3.93-12.04 6.05-6.66 3.56-13.85 6-20.55 9.47-6.89 3.58-14.5 5.55-21.27 9.37 9.61 1.87 18.91-1.88 27.97-4.55 8.86-2.49 16.62-7.83 25.7-9.69-7.3 5.47-16.3 7.43-24.41 11.3-7.19 3.22-15.11 3.66-22.72 5.24-5.6 1.19-11.35 1.2-17.02 0.64l-0.2-2.88c0.91-0.67 1.82-1.34 2.74-2-1.17-0.28-2.34-0.55-3.5-0.8 10.04 0.88 19.66-2.58 28.73-6.45 8.56-3.73 16.99-7.76 25.5-11.61 11.24-6.77 23.26-12.31 33.69-20.38 8.97-6.91 19.44-11.55 28.26-18.67 7.5199-6.01 16.12-10.46 23.74-16.33z" fill="#868586" stroke="#868586"/>
</g>
<g fill="#020202">
	<path d="m209.04 655.26c2.3514 0.2238 4.2691 1.0017 6.3593 1.5605 2.0915 0.4858 3.8438 1.296 5.9123 1.7975 4.3341 0.9609 8.4509 2.1526 12.666 3.1969 2.4111 0.3503 4.6594 0.895 6.8573 1.4609 4.4912 1.0251 9.2981 1.7147 13.858 2.6207 3.34 0.6998 7.244 0.8344 10.328 1.7338-1.4858 2.6907-5.2638 5.0807-7.8631 7.6318-3.1577 2.6923-5.9663 5.4439-9.1676 8.1287-1.5577 1.6125-3.5217 3.1494-5.2864 4.7224-2.2684 2.374-5.3183 4.6097-7.6621 6.9729-3.2213 2.6794-5.9673 5.4465-9.1738 8.1259-2.2876 2.4026-5.5525 4.6285-7.6685 7.0576-2.5033 2.1867-4.7976 4.4091-7.1713 6.6199-3.3312 2.8178-6.5818 5.8411-11.706 8.01-4.3686 1.5349-9.106 2.6696-13.808 3.2601-5.4342 0.3121-10.757-0.089-15.044-1.4627-2.1795-0.7491-3.4859-2.1824-3.3065-3.7737 0.0995-2.779 3.3091-5.5928 7.5226-7.308 5.9537-2.2805 12.962-3.3636 19.576-3.4564 4.4379 0.2399 8.9505 0.6733 12.395 1.9467 0.6243 0.2247 1.3058 0.4075 2.0347 0.5476 1.874-1.5933 4.0115-3.1328 5.6547-4.779 6.1558-5.2224 12.11-10.491 17.953-15.78 2.8458-2.3103 5.0793-4.7479 7.9921-7.0422 2.2068-2.3831 5.3077-4.6034 7.5939-6.9745 0.9366-1.0594 2.6315-1.9928 3.2415-3.0931-3.2475-0.3466-6.1021-1.1177-9.4082-1.424-3.9009-0.8172-7.9165-1.5372-11.854-2.3553-2.8038-0.4736-5.2589-1.2981-7.9721-1.8757-4.6737-0.8452-8.7927-2.3133-13.273-3.4095-2.7642-0.5121-4.9736-1.6053-7.6216-2.2454-1.8826 1.7449-4.0648 3.3801-5.847 5.1637-1.8827 1.8704-4.2665 3.556-6.0432 5.4633-2.3003 1.8945-4.4263 3.856-6.5414 5.8226-2.6818 2.1431-4.819 4.4893-7.4964 6.6328-1.5016 1.1651-2.5448 2.4946-4.0291 3.6688-2.8485 2.433-5.4493 4.9623-8.2572 7.4114-2.1432 2.3972-4.922 4.5748-7.4129 6.8503-2.4857 1.9417-5.0613 3.9421-8.4606 5.2922-6.4179 2.0456-13.924 3.0197-20.087 1.3281-2.8789-0.519-5.3455-1.6254-7.365-3.0043-2.1782-1.6815-1.8502-4.3256-0.3917-6.3928 1.4549-2.2871 4.473-4.0177 7.7793-5.019 5.416-1.6129 11.494-2.0225 17.082-1.3148 3.4159 0.5737 6.6459 1.5086 9.4036 2.8335 1.0021 0.4891 1.9396 1.0411 3.1202 1.3771 0.9167-1.1964 2.2514-2.26 3.5944-3.3008 1.8982-1.4372 3.3638-3.0543 5.2116-4.5135 2.2132-1.7044 3.8931-3.6191 6.1358-5.3122 2.1159-1.9682 4.2849-3.9112 6.618-5.7932 2.0138-2.2109 4.7937-4.1486 6.9013-6.3326 1.433-1.4719 3.3736-2.75 4.7894-4.2311 2.2057-2.226 4.9529-4.2528 7.0893-6.5007 3.1443-2.5677 5.8705-5.2905 8.8248-7.9296 0.9446-0.954 2.1373-1.8116 3.4234-2.6136m-4.208 6.8555c-0.3509 0.4462-0.7352 0.8865-1.0585 1.3405 2.684 0.8044 5.1851 1.8018 8.1017 2.348 3.6931 1.0716 7.3669 2.1524 11.268 2.9862 3.6898 0.6843 6.8716 1.8846 10.715 2.3709 3.5641 0.7362 7.0994 1.4917 10.697 2.1558 3.3714 0.2466 6.1277 1.1465 9.4624 1.3998 0.2655-0.5054 0.9686-1.0444 0.8344-1.5314-8.1549-0.9913-15.81-2.5908-23.521-4.1816-3.2025-0.9861-6.9178-1.4407-10.143-2.4252-3.0384-0.871-6.2134-1.6121-9.2671-2.4879-2.4811-0.5352-4.5003-1.5536-7.089-1.9751z"/>
	<path d="m-27.827 371.42c0.1961 2.3799 0.6766 4.5045 0.7935 6.9654-0.9358 1.8146-2.112 2.1405-3.1905 3.1734-1.0966 0.9019-2.2226 1.1553-3.3063 2.2639-1.9252 1.9061-3.9181 2.7613-5.8481 4.6312-2.1028 1.6281-4.2163 3.0333-6.3135 4.7455-2.7861 2.6459-5.6299 4.2027-8.4325 6.5399-4.5462 3.8376-9.1349 6.7941-13.674 10.724-0.8546 0.858-1.7302 1.2381-2.5941 1.9247-2.7207 2.2627-5.4343 4.9131-8.1834 6.3115-1.6687 0.7962-3.4296 2.2522-4.9958 1.9091-1.8994-0.5302-3.6121-1.926-4.9741-4.05-1.7057-2.4759-2.5103-6.8316-2.7459-11.538-0.223-2.6626-0.0428-6.1209 1.0353-9.2594 0.718-2.4434 1.8314-4.3187 2.8917-5.8861 1.2304-1.8713 2.4448-2.0922 3.6297-2.7352 1.5571-0.9679 2.7128 0.2362 3.8708 1.1189 3.8211 3.4146 6.2531 12.159 5.4289 23.143 1.7249-0.9026 3.4418-2.7058 5.1723-3.775 1.4118-1.3641 2.8389-1.8084 4.254-3.0023 2.6828-1.8975 5.3358-4.5137 8.028-6.0844 2.0509-1.5431 4.0891-3.3144 6.1407-4.8486 2.7222-2.2437 5.4631-4.039 8.1869-6.2941 1.7554-1.5948 3.5291-3.0034 5.3126-3.9159 0.1202-2.1263-0.2799-3.8254-0.5089-5.6395-0.3552-3.5114-0.6329-7.0827-1.0003-10.544-0.1281-2.6144-0.252-5.2201-0.517-7.6756-0.1007-4.7852-0.4345-9.3123-0.3833-14.191 0.0445-2.6952-0.1646-5.1201 0.0237-7.935 0.1086-3.668 0.0369-7.1452 0.3745-10.996-1.895 2.0003-3.6705 2.6051-5.5485 4.3484-1.2185 0.8145-2.511 2.3212-3.7045 2.932-2.4163 1.553-4.891 3.6478-7.3562 5.6481-4.1985 2.8941-8.4693 6.4061-12.699 9.6354-1.9387 0.9982-4.0711 3.5981-6.0482 4.8759-2.5457 2.0625-5.0265 3.6648-7.3944 4.5852-2.0311 0.9727-3.2778-1.1242-4.2357-3.3739-0.6991-1.6499-1.2069-3.7579-1.1608-6.7476 0.0264-3.9209 0.4115-8.4009 1.5947-13.602 0.7516-3.9767 2.54-8.7763 4.3671-11.952 2.2391-3.835 4.4713-6.4152 5.7753-6.0493 2.855 1.4219 3.7268 8.4974 3.0671 18.368-0.4927 4.5412-0.8869 9.1548-1.9367 14.207 2.4848-1.9469 4.8648-3.1807 7.3913-5.4412 1.1692-1.0997 2.2023-1.24 3.3716-2.3507 0.8216-0.7021 1.5704-0.9016 2.393-1.6206 2.8048-2.6412 5.4672-4.1144 8.233-6.4049 1.1815-0.8503 2.3882-1.8998 3.551-2.6078 2.5149-2.4121 4.8892-3.6252 7.3642-5.6928 1.0105-1.0056 1.9737-1.5674 2.9277-2.109 0.4526-2.3879 0.3753-4.344 0.6616-6.5975 1.2364-15.209 3.5833-31.337 7.7502-48.498 1.1495-5.2051 2.893-10.951 4.3468-16.322-2.2007 1.0032-5.1645 4.2639-7.3057 5.1022-1.3928 1.1304-2.6704 1.9193-4.1702 3.3738-3.9485 2.4895-8.3294 6.2212-12.331 8.9094-1.1778 1.0441-2.0138 1.1534-3.282 2.4482-1.5231 1.6186-2.6165 2.0424-3.9716 3.1958-1.3299 0.7517-3.1447 2.7995-4.328 3.1609-1.6233 0.5549-3.8653 2.2373-3.7061-1.0092 0.1803-3.6951 1.2407-8.9317 4.5038-16.856 2.7062-6.4503 6.4155-14.014 11.356-22.527 2.9573-4.9822 6.3258-10.325 10.096-15.868 6.4374-9.1946 12.58-16.812 13.814-17.905 0.4991-0.4015 2.3326-2.6283 1.0163-0.5428-1.5774 2.528-2.4866 4.2711-4.6931 8.0883-5.0142 8.6977-10.757 20.326-16.165 32.695-1.758 3.907-3.4314 7.8104-5.0026 11.646-1.9683 4.4577-3.9386 8.9094-5.7346 13.224 2.6476-2.0666 4.8608-3.0126 7.445-4.8938 2.0834-1.868 3.8976-2.9993 5.6352-3.9453 5.0188-4.1189 9.5107-6.7665 14.634-11.134 1.6172-0.7581 3.4925-2.2211 5.4683-4.0003 1.6995-1.0779 3.5527-2.6006 5.3848-4.0633 0.6461-0.4309 1.3152-0.811 1.0405 0.9609-0.428 1.9038-1.1764 4.2154-1.778 6.3565-12.868 46.461-13.374 87.712-9.111 123.27m-6.8096-0.3043c-0.1032-2.2553-0.4641-4.2415-0.6017-6.4443-0.1651-2.5915-0.3298-5.1777-0.4905-7.7502-0.2991-3.0396-0.1916-6.4731-0.4366-9.5303 0.0022-4.7243-0.1823-9.2351-0.0434-14.029 0.186-3.1754-0.0116-5.948 0.2861-9.2043-0.4026 0.2297-0.806 0.4649-1.2118 0.7171-0.2985 3.8069-0.2705 7.3239-0.3279 10.936-0.2042 2.9648-0.0056 5.5365 0.0126 8.3037-0.0955 3.514 0.1368 6.7232 0.2681 10.048 1e-4 3.9876 0.5476 7.4464 0.6268 11.395 0.561 5.2006 0.8717 10.714 1.7506 15.667 0.2717-0.1618 0.8127-0.4841 1.0819-0.6398 0.0564-3.485-0.7693-6.1744-0.9142-9.4683m0.1583-66.212c0.5405-3.7539 0.7664-7.1707 1.3796-10.946 0.8184-5.2689 1.5028-10.351 2.7144-15.899 0.8248-4.909 2.1621-10.301 3.3866-15.508 0.987-4.2717 2.3943-8.9299 3.6205-13.35-0.4018 0.2937-0.7972 0.5461-1.3348 1.3005-1.1065 4.2276-2.4126 8.7272-3.5083 13.041-1.1344 5.0523-2.4939 10.399-3.3704 15.308-0.6316 3.6079-1.5094 7.4999-1.9407 10.956-0.3489 2.8173-1.0284 5.9801-1.2982 8.7538-0.5482 4.8986-1.303 10.061-1.5347 14.722-0.1818 2.5678-0.5946 5.3694-0.576 7.7621 0.2594-0.146 0.7759-0.4367 1.0322-0.5759 0.651-5.3662 0.881-10.355 1.4298-15.564z"/>
	<path d="m61.249 496.13c1.0608 0.8451 2.2347 2.0789 2.2066 3.7363 0.0702 1.3044-0.5859 2.4438-1.0928 3.5469-2.2537 4.3213-5.3692 7.8799-8.22 11.645-1.7157 1.7982-3.4322 3.6071-5.2707 5.2332-1.8929 1.2753-3.7295 2.6735-5.726 3.717-5.7568 3.0214-12.154 3.8205-18.285 3.1957-6.5191-0.6428-12.77-2.8268-18.941-4.7702-3.8747 3.7154-7.6273 7.6431-11.444 11.46 0.9495 2.3979 2.0081 4.7454 2.6359 7.3251 1.1689 3.4795 2.1395 7.1326 2.2791 10.916 6e-4 6.0884-2.1157 11.986-5.328 16.657-1.3255 2.097-3.1714 3.6017-4.8383 5.2957-4.1521 3.3202-9.0113 5.253-13.923 5.9752-4.1994 0.5577-8.5293 0.2335-12.398-1.6685-2.8524-1.2419-5.2736-3.4634-7.5065-5.8809-2.0184 2.0314-4.0276 4.0978-6.2271 5.8006-1.4351 1.6014-3.2098 2.5146-4.6823 4.0484-1.0783 0.8596-2.1659 1.7037-3.2194 2.6235-2.3773 1.4801-4.793 3.0543-7.421 3.5229-4.668 1.264-9.6336 0.0451-13.37-3.4623-1.9068-2.1304-3.8685-4.3863-4.8574-7.5372-2.0011-4.8412-2.5463-11.23-0.6171-16.658 1.3847-4.1058 4.0918-7.0983 6.9792-8.7858 2.2552-1.2959 4.9017-1.633 7.0229-0.0567 2.8186 1.9172 5.0398 5.577 5.6518 9.9543 0.7506 3.4567 0.2941 7.5649-1.5751 10.391-0.9567 1.0731-1.9578 2.1005-3.0144 2.9987-2.4887 1.5344-5.3756 1.3283-7.7685-0.0377-1.4482-1.0007-3.0255-1.8617-4.0503-3.6309-0.3235 0.2838-0.6477 0.5735-0.9686 0.8698 0.1925 3.8376 1.9482 7.1013 4.046 9.4157 2.9685 3.301 7.1746 4.4528 11.101 3.4472 2.3466-0.4174 4.5014-1.8347 6.6891-2.9901 3.0787-2.2218 6.2741-4.2374 9.0426-7.1137 1.9729-1.441 3.6755-3.3852 5.4921-5.1196-1.0368-1.8169-2.2157-3.5096-3.0584-5.4954-0.945-2.9044-2.2241-5.6468-2.6862-8.8158-1.346-6.2995-1.4884-13.255 0.0526-19.806 2.1736-9.4793 6.8234-17.681 12.164-24.257 1.9373-1.9404 3.7962-4.1008 5.9215-5.5746 3.0474-2.1152 6.2429-3.8635 9.5772-4.3713 6.1888-0.7888 12.399-0.0695 18.526 1.3308 5.7662 1.54 11.456 3.7219 17.114 6.234 0.5784 0.2569 1.1524 0.5827 1.7807 0.6241 1.6764-0.5688 2.8895-2.3275 4.2234-3.6589 2.0662-2.9135 4.7923-4.7649 7.2506-7.0308 6.6279-5.2926 14.413-8.5468 22.256-8.1837 5.0528 0.1514 10.082 1.8208 14.478 4.9405m-8.2019 5.7962c-2.8473-0.896-5.7647-1.4889-8.7001-1.5627-9.2937-0.6302-18.68 3.0467-26.264 9.85-0.7967 0.8252 0.0051 2.3718 0.8359 2.5663 3.9951 1.6121 8.1149 2.9562 12.362 3.5862 4.6435 0.6391 9.4672 0.6609 14.049-1.0005 4.0234-1.28 7.6122-4.1058 10.541-7.5779 0.7309-1.1718 1.8608-2.0204 2.1788-3.4933-1.4921-1.253-3.279-1.7795-5.0025-2.3681m-53.326 18.092c-5.2646-1.9728-10.344-4.7274-15.774-5.4485-6.6374-1.134-13.673 0.4603-19.591 5.3408-1.7853 1.6878-3.5616 3.4017-5.2581 5.2707-3.8754 4.8788-7.0874 11.286-7.856 18.407-0.5929 3.9814-0.1178 7.9946 0.6451 11.756 1.2822 4.0278 2.6538 8.0923 4.9423 11.306 9.0103-9.0333 18.033-18.039 27.036-27.085-3.3041-5.3757-9.5622-6.6978-14.307-3.5496-1.241 0.9222-2.5933 1.6119-3.6534 2.928-1.7822 2.2654-3.4896 4.8091-4.2355 7.9701-0.3204 1.0867-0.313 2.4489-1.2078 3.0813-1.1175-2.5438-0.5509-5.6112 0.1071-8.325 1.4338-5.2205 3.7356-10.279 7.1396-13.631 3.6243-4.0709 8.6569-5.3335 13.048-3.8278 2.3557 0.8032 4.8296 1.0787 7.1594 2.1092 1.6265 0.6857 3.1667 1.6804 4.7984 2.3816 0.8331 0.3672 1.7678 0.251 2.5587-0.3052 1.9723-1.0503 3.5328-2.9769 5.2144-4.6163 0.7729-0.7194 1.3539-1.6911 1.9868-2.5902-0.8825-0.5221-1.8279-0.8115-2.7527-1.1722m-14.225 22.248c-8.8928 8.8956-17.782 17.797-26.666 26.7 3.1822 4.3717 8.3471 6.2228 13.099 5.0256 5.4001-1.3795 10.182-5.4646 13.623-10.659 1.9576-3.3135 3.3092-7.355 3.0238-11.477-0.2749-3.4817-1.2392-6.9462-3.0789-9.5892z"/>
	<path d="m315.59 674.5c1.2292-1.1895 2.3649-2.4264 4.5062-3.5668 1.5076-0.2268 1.8444 0.4203 1.4781 0.9707-1.1674 1.816-2.4142 3.6468-3.0237 5.3825-0.4335 2.2975-0.0393 4.4698 2.0047 6.0331 0.6441 1.489 2.8259 2.4488 3.6641 3.8371 0.8162 1.218 2.0515 2.2787 2.8996 3.4532 0.7172 1.493 0.9438 3.1545-0.3819 5.156-2.3456 3.5505-8.4505 7.6661-15.107 11.545-4.7118 2.6566-9.4529 5.3916-15.254 7.7398-0.0693-0.079-0.2134-0.2353-0.2823-0.3147 1.9153-1.0824 4.3394-2.067 6.2645-3.1573 7.1563-3.9561 11.351-8.1095 12.464-11.502 0.4099-1.7432 0.4782-3.454-1.4675-4.5493-1.554-1.629-6.3577-2.128-11.962-1.4802-0.2845 0.0936-0.8511 0.2821-1.1334 0.377-2.9215 2.4142-4.6149 4.789-7.1952 7.1974-3.5769 3.8723-7.5905 7.7683-11.266 11.647-1.7349 2.0528-3.7039 4.1207-5.5576 6.1825-2.694 2.6498-5.1735 5.3484-9.4871 7.9755-1.6046 1.0876-3.9772 1.9801-6.2335 2.8327-3.8925 1.7025-8.434 2.8884-12.774 3.9219-6.2254 0.9935-12.797 1.6268-17.25 0.4924-2.6774-0.6417-3.0727-2.3772-2.3194-4.0305 0.9141-2.4612 4.7619-5.0576 9.5767-6.7902 4.1161-1.5414 8.642-2.8071 13.214-3.8 7.0721-1.3261 14.228-1.7153 20.007-1.2584 0.5797 0.0647 1.5053-0.3199 1.8596-0.6094 0.7212-0.5953 1.2872-1.1907 1.8839-1.7852 2.504-2.6466 5.349-5.3058 8.0516-7.9601 11.122-11.322 21.936-22.629 32.82-33.94m-4.2408 15.04c0.3004 0.322 0.7063 0.6151 1.4794 0.7354 1.9518 0.4229 3.359 1.082 4.3746 1.8661 1.202 0.9377 2.8832 1.7076 2.9394 2.997 0.0789 0.7114-0.4985 1.6042 0.081 2.1707 0.6459-0.4589 1.3854-0.9478 1.5446-1.3575 0.5774-1.2336 0.9905-2.4833-0.14-3.2689-1.1469-0.8487-2.2568-1.738-3.8611-2.4537-1.8856-0.3335-3.4952-1.0099-6.4179-0.6891z"/>
	<path d="m-13.181 426.77c0.2754 0.9401 0.1781 1.9977-0.4286 2.7286-2.7154 3.747-5.5795 7.4619-7.4799 12.434-3.7058 9.9148-5.3159 20.968-8.908 30.72-1.4791 3.9685-3.4098 7.6876-5.9578 10.165-5.5141 5.3055-11.909 7.2747-18.014 7.5711-0.751 0.0371-1.4678-0.2599-2.0898-0.7953 1.9825-1.2473 4.0693 0.012 6.0382-1.4702 6.1402-2.6133 11.655-10.162 14.038-19.556 0.682-2.6871 0.911-5.5652 0.8435-8.3292-0.2761-2.4366-0.8663-4.6962-1.6689-6.6966-2.2906 1.9353-4.4338 4.4615-6.6806 6.5916-2.5882 2.2681-4.9308 5.3386-7.5449 7.5215-1.1185 0.9108-2.0918 2.2916-3.165 3.3583-2.9686 2.8298-5.8522 5.9424-8.6826 9.1869-2.9088 2.7202-5.8788 5.3427-8.9988 7.0772-2.6177 0.8416-5.1466-0.2786-7.3502-1.8598-2.7591-1.7386-4.3763-6.0518-5.72-10.206-0.3709-1.6338-0.5888-3.416-0.7115-5.2275 0.1152-3.7452 1.3437-7.5855 3.0741-10.253 2.3246-3.4807 5.3342-4.9564 7.8722-4.1179 3.5997 1.0653 6.8453 4.3512 8.8367 9.6073 1.2476 3.0617 1.7654 6.8755 2.3803 10.524 4.2002-4.2032 8.5266-7.9645 12.674-12.356 1.5282-1.6539 3.1733-2.8684 4.6941-4.5454 1.7106-1.9464 3.4919-3.6886 5.3026-5.3054 3.0877-3.2981 6.2123-6.462 9.3701-9.5271 1.5369-1.5239 2.9603-3.4375 4.57-4.6972 1.9368-1.76 3.7165-4.0155 5.6554-5.763 2.6336-2.4138 5.1076-6.0242 8.0522-6.7799m-17.628 27.608c-0.5705 1.6219-0.4012 3.3704-0.5814 5.0677-0.5246 5.0682-1.4931 10.201-3.3825 14.619-0.4988 1.207-1.3686 2.1408-1.486 3.6198 1.095-0.7 1.8248-2.2509 2.6033-3.5813 2.2672-4.6012 3.2836-10.424 3.2482-15.913 0.0628-1.3489 0.0247-2.7091-0.4016-3.8127z"/>
	<path d="m72.142 565.31c3.2999-0.5021 6.6692-0.0496 9.9112 0.73 1.4926 0.701 3.0054 1.4188 4.3494 2.3952 0.3789 1.029 0.2447 2.2144-0.367 3.1365-0.8904 1.9259-2.4039 3.459-3.4798 5.2728-1.3688 1.5862-2.797 3.1329-4.2375 4.665-2.8637 2.5497-6.2489 4.6363-10.012 5.6638-5.8946 1.6324-12.091 1.1812-17.982 0.2153-1.5937-0.0712-3.1222-0.6991-4.7095-0.6595-1.5413 1.219-2.8755 2.6697-4.1781 4.1436-1.2001 1.0422-2.266 2.231-3.4383 3.3023 1.7776 2.6978 3.2252 5.6066 4.36 8.6151 1.0597 3.567 0.3903 7.4979-1.4689 10.677-1.5458 3.0341-4.0242 5.5743-7.0526 7.2383-5.6347 3.0839-12.724 4.1018-18.673 1.4937-1.197-0.6277-2.333-1.3591-3.4828-2.0495-3.0437 2.6101-5.8668 5.4974-9.1154 7.8509-2.4622 1.8668-5.3169 3.3639-8.406 3.6045-2.416 0.1714-5.0092-0.017-7.073-1.4458-1.2161-0.8116-2.5005-1.5373-3.5875-2.5295-1.4647-1.7993-2.7992-3.8728-3.2216-6.274-0.651-2.8149-0.0675-6.0121 1.6842-8.2493 2.0436-2.3763 5.1627-4.3071 8.1999-3.2416 1.7786 0.8832 3.5788 2.0715 4.5763 3.9666 1.1324 2.0835 1.7062 4.7491 0.7223 7.0119-1.1819 2.542-3.9863 3.8774-6.592 3.6365-2.1337-0.0054-3.744-1.8707-5.8479-2.0336 1.0419 4.7562 5.9061 7.8145 10.396 7.2204 3.859-0.4359 7.1438-2.8016 10.234-5.0634 2.1781-1.8464 4.4201-3.6502 6.2321-5.8945-1.7542-2.2276-3.6178-4.4155-4.7262-7.1036-1.9751-4.4674-2.7987-9.6702-1.5427-14.554 1-3.356 2.0763-6.7886 4.1-9.6019 2.0486-2.6688 4.1177-5.4382 6.8502-7.2941 2.0433-1.5333 4.3087-2.7733 6.7573-3.2808 7.8985-1.7411 16.143-0.8947 24.099 0.8809 1.5872 0.3286 3.1553 0.8318 4.7855 0.92 0.949-0.5151 1.6257-1.3867 2.3421-2.1804 5.1333-5.6793 11.89-10.346 19.595-11.185m8.572 6.2619c-7.2834-1.6473-15.105-0.5819-21.525 3.1119-2.0775 1.2887-4.3918 2.4843-5.7801 4.5988 0.5872 0.3347 1.1625 0.7545 1.8516 0.8778 6.2122 1.2218 12.932 1.9442 19.057-0.406 3.5984-1.4185 6.8405-3.9347 8.4614-7.4368-0.6757-0.3024-1.3345-0.6337-2.0652-0.7457m-53.478 12.084c-7.4426 0.1655-14.882 4.3787-18.572 11.474-1.2734 1.9189-1.8462 4.2438-2.1935 6.5352-0.5001 4.0552 0.8193 8.1566 3.0646 11.382 0.9476 1.1314 1.7022 2.5001 3.0173 3.2344 1.2928-1.7435 3.1078-2.9692 4.5002-4.6185 2.6052-2.483 5.0581-5.1293 7.6994-7.5695 1.7939-2.072 4.0393-3.6863 5.7058-5.8815-1.3394-0.8821-2.6752-1.918-4.2982-2.0997-5.8524-1.2827-11.871 4.0421-12.028 10.224-0.1893-0.1617-0.5658-0.4886-0.7546-0.6508-0.8618-1.9686-0.2191-4.1785 0.1832-6.1868 1.0965-3.1187 2.72-6.2913 5.4433-8.1083 2.3365-1.7747 5.351-2.3423 8.17-1.878 2.3657 0.2518 4.7496 0.5021 7.0729 1.1265 1.2056 0.3812 2.606 1.2097 3.7979 0.3183 1.8162-1.3378 3.6449-2.8472 4.6724-4.9388-5.1762-0.8651-10.242-2.6546-15.481-2.3627m4.3965 16.086c-0.5271 0.7536-1.1211 1.4545-1.7581 2.1172-5.444 5.1876-10.651 10.625-16.07 15.84 0.4543 0.2897 0.9154 0.5822 1.3868 0.8712 2.7297 1.8711 6.3375 1.9684 9.4313 0.9752 2.7888-1.0342 5.2377-2.8511 7.2509-5.0104 1.009-1.4411 1.9241-2.968 2.6304-4.5776 0.6375-2.3541 0.551-5.0089-0.6619-7.1827-0.5621-1.1252-1.1371-2.3209-2.209-3.033z"/>
	<path d="m64.118 669.55c-1.3954 0.5211-2.8961 0.8099-4.3658 1.1392-2.6414 0.6448-5.3663 0.1763-8.0218 0.0513-6.3747-0.8185-12.007-3.9883-16.35-7.9561-3.2446-2.7462-4.1916-7.5226-1.9017-11.073 0.9282-1.7591 2.7908-2.8154 4.5702-3.751 2.9017-1.1505 6.1291-0.8691 9.2084-0.7198 9.0662 0.8842 17.189 5.6737 22.816 11.757 2.334-1.7731 4.2765-3.8718 6.417-5.8002 13.131-12.483 25.71-25.353 38.468-38.099 1.9262-1.9191 3.4777-4.4666 6.6306-5.1064 1.3884 1.0081 0.3893 2.5276-0.2792 3.647-2.1902 2.6157-4.8948 4.9052-7.2743 7.3994-10.425 10.399-20.861 20.787-31.285 31.185-5.1716 4.8747-9.354 10.44-15.024 14.954-1.1767 0.8134-2.2569 1.75-3.6086 2.3715m-1.2151-7.2237c-0.4708-1.5801-2.0568-2.6386-3.5409-3.553-3.8729-2.2216-8.1949-3.8829-12.714-4.7443-2.2901-0.3297-4.6643-0.7664-6.9066 0.0161-0.2412 0.3327-0.4913 0.6605-0.7495 0.9865 0.1537 2.0026 2.0346 3.2434 3.6564 4.3636 4.9266 2.8373 10.697 4.8436 16.763 4.8595 1.3908-0.1469 3.5181-0.3801 3.4915-1.9284z"/>
	<path d="m156.73 637.25c0.8657-0.3655 1.7772 0.0023 2.633 0.1353-1.1799 1.39-2.2683 2.819-3.5138 4.1788-2.1457 1.7864-3.9535 3.7553-5.887 5.6566-9.7957 9.8326-19.548 19.685-29.369 29.509-4.755 4.7712-8.7099 10.105-15.041 13.954-2.3807 0.8831-4.9615 1.3882-7.4806 1.94-4.5735 0.6313-9.2097-0.2161-13.022-1.9112-2.3838-1.1097-4.6717-2.532-5.8408-4.5233-1.2101-3.5996 1.3999-7.722 5.6713-9.476 2.3958-0.6501 4.8418-1.2887 7.351-1.6115 4.6605-0.088 9.626 0.4094 13.436 2.5104 2.3458 0.9896 4.1649 2.4543 6.142 3.7675 13.857-13.26 27.173-26.807 40.514-40.338 1.2684-1.3598 2.3767-2.9381 4.4082-3.7911z"/>
	<path d="m426.72 652.02c1.9115-0.969 2.0658-0.6119 2.2932-0.5255-0.4071 1.0378-1.0457 2.1836-1.1242 3.0646 1.3651 0.2195 2.3112 0.6361 5.1996-0.1301 2.3763-0.6894 3.4046-0.6489 6.1921-1.7277 3.173-1.0299 7.6338-3.0239 10.563-4.23 3.3804-1.4177 7.1784-3.3053 10.76-5.2953 4.1454-2.0557 7.3594-3.9839 3.9169-0.8288-6.2865 5.7256-22.038 18.112-37.833 28.952-1.1457 0.7421-3.4196 2.1968-4.5371 2.9032 0.3513-0.3944 1.3749-1.1538 2.9333-2.2081 5.9628-4.0588 9.4504-6.8598 13.429-9.9368 4.4086-3.3776 7.2132-5.8013 9.9847-8.1946 4.0002-3.4894 3.5876-3.9117-1.3517-1.8455-7.9821 3.7426-20.539 9.2313-30.327 12.162-2.3244 1.9719-3.5018 3.4549-5.2927 5.2007-5.4424 5.3647-10.632 10.621-15.897 15.908-3.0266 3.0818-5.2797 5.8287-9.2068 9.2993-2.3788 2.0584-5.4604 4.5104-11.098 7.6638-6.8683 3.8973-14.62 7.955-22.613 11.116-5.3658 2.1547-10.73 4.0851-15.428 5.2819-3.1888 0.8085-5.9602 1.1068-6.5381 0.4467-2.0725-1.0215 2.0504-4.3101 8.1282-7.3164 5.1624-2.709 11.451-5.4501 18.001-8.1478 8.7568-3.5536 18.105-6.924 26.709-10.165 11.313-10.553 20.835-20.38 30.914-30.434 2.3148-2.3404 4.6791-4.7014 6.9417-7.0214 1.245-1.1263 1.8729-2.0885 5.2799-3.9922z"/>
</g>
</svg>